<?xml version="1.0" standalone="no"?>
<!DOCTYPE svg PUBLIC "-//W3C//DTD SVG 20010904//EN"
 "http://www.w3.org/TR/2001/REC-SVG-20010904/DTD/svg10.dtd">
<svg version="1.0" xmlns="http://www.w3.org/2000/svg"
 width="1280.000000pt" height="720.000000pt" viewBox="0 0 1280.000000 720.000000"
 preserveAspectRatio="xMidYMid meet">

<g transform="translate(0.000000,720.000000) scale(0.100000,-0.100000)"
fill="#000000" stroke="none">
<path d="M0 6251 l0 -949 75 5 c82 6 150 -11 193 -51 60 -54 49 -81 -26 -65
-29 6 -52 15 -52 20 0 18 -49 59 -69 59 -19 0 -51 -24 -51 -39 0 -23 33 -43
98 -60 39 -10 84 -26 98 -36 30 -19 54 -14 54 13 0 27 59 79 110 97 84 30 212
-6 257 -74 37 -55 32 -65 -29 -58 -29 4 -55 12 -59 19 -22 38 -38 50 -75 55
-33 4 -45 1 -69 -20 -25 -21 -29 -33 -33 -88 -5 -84 9 -104 71 -104 31 0 52 6
67 20 17 16 33 19 80 17 53 -3 60 -1 71 20 17 33 99 157 107 162 11 6 174 -22
184 -32 7 -7 19 -92 28 -200 0 -2 6 -2 12 0 7 3 22 45 33 94 l21 89 52 -1 c58
-2 112 -20 112 -38 0 -17 56 -156 67 -167 11 -11 36 46 52 119 5 24 11 46 14
48 10 10 79 -9 84 -23 7 -19 -16 -127 -38 -178 -10 -22 -21 -57 -25 -79 l-7
-39 -55 6 c-59 6 -84 26 -97 75 -10 40 -66 132 -80 132 -15 0 -31 -43 -41
-112 -3 -26 -11 -52 -18 -57 -7 -5 -32 -5 -66 1 -91 16 -105 22 -108 46 -5 30
-25 39 -114 47 -71 7 -77 6 -87 -14 -9 -17 -21 -21 -56 -21 -41 0 -45 2 -45
25 0 28 -16 32 -47 10 -61 -43 -199 -21 -251 40 -15 18 -32 40 -38 51 -11 18
-13 18 -43 -11 -30 -28 -37 -30 -109 -30 -42 0 -94 4 -114 8 l-38 8 0 -2496 0
-2495 4110 0 c2270 0 4110 4 4110 9 0 4 29 11 63 14 35 3 76 12 91 18 26 12
26 14 10 26 -10 7 -28 13 -40 13 -30 0 -38 15 -18 35 9 9 15 17 13 19 -2 1
-35 7 -73 13 -38 7 -74 17 -80 23 -8 9 -1 11 29 6 94 -16 118 -14 142 12 17
19 20 28 12 43 -5 11 -18 19 -27 19 -10 0 -35 9 -57 20 -22 11 -59 20 -82 20
-24 0 -43 5 -43 10 0 13 -53 13 -66 0 -6 -6 -19 -4 -38 5 -16 8 -39 15 -52 15
-13 0 -24 4 -24 9 0 17 61 71 79 71 10 0 26 9 36 20 17 18 30 21 104 19 97 -1
205 6 220 15 5 3 21 1 35 -5 21 -10 33 -9 66 6 l41 18 -32 33 c-28 29 -37 33
-71 29 -29 -4 -43 0 -58 15 -11 11 -40 25 -64 31 -47 12 -85 42 -67 53 6 4 69
7 141 8 72 0 133 5 136 9 3 5 10 7 15 4 5 -3 6 0 4 7 -3 8 1 22 9 33 12 17 25
20 95 18 118 -3 119 27 1 40 -157 17 -232 28 -248 36 -22 12 -163 31 -223 31
-25 0 -59 4 -75 9 -45 15 -323 33 -487 31 -113 -1 -154 2 -170 13 -12 8 -74
19 -137 26 -126 13 -180 26 -180 44 1 23 53 51 92 50 21 -1 38 2 38 7 0 4 25
6 55 4 46 -4 56 -2 62 12 10 27 -20 41 -108 47 -45 3 -85 10 -89 16 -3 6 -43
13 -88 14 -63 3 -92 -1 -122 -14 -51 -23 -178 -25 -187 -3 -4 11 -9 12 -19 3
-15 -12 -65 -4 -75 12 -10 17 3 69 17 69 8 0 14 -4 14 -9 0 -14 51 -10 57 5 4
10 23 14 63 14 33 0 62 4 65 10 3 5 -2 10 -12 11 -10 0 -31 3 -48 5 -16 3 -47
6 -68 7 -34 1 -38 3 -35 26 l3 26 125 -2 c559 -11 841 -32 899 -66 27 -16 61
-22 180 -28 80 -5 183 -10 228 -13 70 -5 81 -3 77 9 -4 8 -11 15 -18 16 -6 0
-92 4 -191 9 -168 8 -254 16 -262 24 -9 9 189 18 351 16 100 -2 195 -2 211 -1
28 2 28 3 -14 17 -26 10 -59 14 -80 10 -19 -3 -40 -1 -47 5 -8 6 -90 12 -201
14 -103 2 -215 7 -248 11 -33 3 -80 6 -104 5 -24 0 -53 6 -65 14 -26 19 -46
19 -46 0 0 -18 -31 -20 -48 -3 -10 10 -17 10 -32 0 -11 -6 -23 -12 -26 -12 -8
0 0 117 8 126 3 3 24 -6 45 -20 48 -32 96 -47 114 -35 11 6 6 16 -20 43 l-35
36 35 -10 c18 -6 35 -10 36 -10 12 0 -1 51 -17 65 -11 10 -20 25 -20 34 0 17
-74 61 -102 61 -10 0 -18 6 -18 13 0 7 -31 28 -70 47 -64 32 -69 37 -70 68 0
22 -5 32 -15 32 -8 0 -24 9 -35 20 -24 24 -65 26 -74 5 -3 -8 -17 -15 -31 -15
-23 0 -26 4 -23 27 3 23 -1 28 -29 34 -18 3 -40 12 -48 19 -12 10 -18 10 -30
0 -40 -33 -19 -76 68 -137 32 -22 41 -24 62 -15 16 7 25 20 25 34 1 33 40 -47
40 -81 0 -35 35 -91 57 -91 9 0 38 -22 63 -48 43 -45 47 -53 48 -102 0 -29 -3
-62 -9 -72 -12 -22 -42 -24 -59 -3 -8 9 -29 14 -63 13 -29 -1 -70 2 -92 6 -32
6 -44 5 -54 -8 -18 -22 -64 -20 -103 4 -38 23 -77 25 -131 6 -32 -12 -43 -12
-64 -1 -14 7 -31 11 -38 9 -21 -9 -24 9 -14 81 9 68 25 124 50 178 11 24 10
29 -6 41 -19 14 -13 36 10 36 16 0 35 59 35 112 0 43 -21 68 -56 68 -33 0 -64
17 -64 34 0 8 13 19 30 25 16 5 30 15 30 20 0 17 -33 81 -42 81 -12 0 -10 -14
4 -28 9 -9 6 -17 -12 -37 -31 -33 -52 -38 -92 -22 -18 7 -60 19 -93 26 -174
35 -167 32 -181 81 -11 37 -11 47 1 60 19 21 22 79 6 118 -16 37 -11 36 -47
17 -16 -8 -36 -12 -46 -9 -9 2 -19 0 -23 -6 -3 -5 -11 -10 -16 -10 -11 0 -1
50 12 65 5 5 9 21 9 36 0 15 7 29 15 33 8 3 15 17 15 31 0 23 -2 24 -20 15
-11 -6 -20 -19 -20 -29 0 -25 -41 -35 -71 -18 -101 56 -108 69 -59 114 36 34
32 58 -11 67 -16 3 -48 20 -69 37 -58 47 -62 26 -7 -28 26 -25 47 -50 47 -57
0 -6 -12 -19 -26 -29 -21 -16 -29 -17 -62 -6 -20 6 -49 20 -64 30 -14 11 -34
19 -43 19 -22 0 -12 34 26 82 16 20 29 41 29 46 0 5 9 17 20 27 17 15 24 16
46 7 31 -15 81 -16 89 -2 3 5 -6 21 -22 34 -25 21 -26 26 -15 50 18 41 16 96
-5 96 -19 0 -102 61 -103 75 0 18 35 33 63 28 15 -3 38 -19 52 -35 20 -24 28
-27 43 -19 15 8 21 25 24 68 6 62 -5 91 -27 73 -10 -8 -33 4 -90 47 -48 36
-70 59 -61 61 23 5 20 29 -5 42 -26 14 -36 6 -19 -15 22 -27 -4 -16 -39 16
-27 24 -31 33 -20 40 11 7 12 12 1 26 -56 80 -60 107 -26 175 15 30 19 82 5
74 -4 -3 -18 -34 -31 -68 -13 -35 -31 -69 -41 -76 -10 -7 -23 -32 -30 -55 -6
-23 -23 -55 -37 -70 -22 -24 -32 -27 -60 -22 -28 5 -33 3 -42 -21 -11 -27 -17
-28 -87 -8 -29 8 -30 -12 -3 -41 25 -26 17 -55 -14 -55 -29 0 -39 10 -26 25 8
9 6 14 -4 18 -9 4 -29 33 -46 67 -26 51 -28 61 -15 66 10 4 13 13 10 25 -4 11
1 25 14 36 12 10 21 21 21 26 0 5 14 22 30 39 35 35 54 28 65 -24 8 -34 70
-108 91 -108 18 0 18 3 -6 42 -11 18 -20 41 -20 51 0 10 -20 38 -45 63 -25 24
-45 47 -45 49 0 11 43 4 65 -11 21 -14 25 -14 25 -2 0 8 -11 24 -25 36 -13 12
-27 34 -31 49 -10 49 -14 55 -29 49 -8 -3 -26 -1 -40 4 -29 11 -31 4 -10 -36
21 -41 19 -59 -15 -107 -50 -71 -63 -86 -117 -142 -28 -30 -54 -63 -58 -74 -3
-10 -15 -21 -26 -24 -13 -3 -20 -13 -18 -24 1 -10 -1 -27 -5 -38 -5 -11 -10
-26 -12 -32 -5 -20 -32 -15 -39 7 -3 10 2 34 11 52 10 18 17 43 15 56 -1 12 6
55 17 95 18 63 25 103 49 264 4 25 1 32 -16 38 -12 3 -21 13 -21 21 0 17 12
18 28 2 22 -22 32 5 52 139 11 72 24 152 30 179 17 74 10 89 -44 89 -37 0 -47
-3 -55 -22 -14 -30 -2 -145 15 -156 21 -12 17 -47 -5 -47 -11 0 -28 -15 -40
-35 -24 -41 -51 -47 -51 -11 0 14 5 28 10 31 6 4 7 12 3 18 -5 7 -10 41 -13
77 l-5 65 -124 61 c-68 34 -127 68 -131 74 -16 26 -40 2 -40 -39 0 -22 -4 -43
-10 -46 -5 -3 -42 4 -81 17 -69 22 -71 22 -102 4 -30 -17 -32 -17 -44 0 -18
25 -16 63 3 71 10 4 24 -4 38 -21 l22 -28 27 27 c15 15 27 34 27 41 0 17 22
18 38 2 7 -7 12 -8 12 -2 0 27 -74 74 -116 74 -15 0 -36 8 -46 17 -18 16 -20
15 -49 -16 -24 -27 -32 -31 -44 -21 -18 15 -19 42 -4 57 19 19 4 38 -42 53
-24 8 -79 34 -122 57 -43 23 -94 47 -113 53 -19 7 -40 20 -47 31 -6 10 -20 19
-31 19 -18 0 -18 -1 -2 -19 26 -29 5 -34 -60 -15 -34 10 -72 30 -96 52 -23 21
-58 40 -86 47 -35 9 -48 17 -50 33 -3 18 2 20 50 20 29 0 84 5 121 11 60 11
72 10 94 -4 15 -10 34 -14 49 -11 31 8 207 -49 250 -81 17 -13 36 -23 41 -23
6 0 16 -7 23 -15 16 -19 68 -45 91 -45 10 0 21 5 25 12 5 7 10 4 16 -12 7 -18
13 -21 37 -17 17 4 36 0 49 -9 11 -7 40 -16 63 -19 46 -6 59 -17 59 -50 0 -57
74 -90 95 -43 12 25 61 48 52 24 -10 -27 31 -66 69 -66 34 0 34 -1 34 -44 0
-42 2 -44 33 -50 23 -4 38 -15 46 -32 10 -23 12 -24 27 -9 12 12 20 13 27 6
17 -17 27 -13 27 9 0 14 -7 20 -22 20 -49 0 -55 19 -32 102 3 9 -8 31 -25 50
-22 25 -45 38 -99 53 -53 14 -73 24 -81 42 -6 13 -17 23 -25 23 -7 0 -19 7
-26 15 -7 8 -20 15 -30 15 -9 0 -46 19 -81 42 -35 23 -99 56 -141 74 -42 17
-90 41 -106 52 -27 20 -214 112 -268 132 -27 11 -31 32 -9 50 8 7 20 30 27 52
6 22 17 42 24 45 6 2 46 -2 88 -10 113 -22 151 -6 163 66 3 21 11 41 18 43 6
3 47 -7 90 -21 88 -28 99 -29 145 -14 30 11 32 14 27 51 -5 40 10 58 48 58 25
0 85 69 111 128 17 37 29 52 43 52 11 0 26 6 34 14 12 13 17 13 36 0 28 -20
42 -9 70 52 44 92 69 259 80 524 l6 155 33 3 c35 4 40 16 17 42 -13 14 -13 19
-2 28 10 8 26 7 62 -3 74 -23 110 -20 134 12 36 45 37 71 5 104 -24 26 -29 39
-32 100 -5 76 9 123 39 140 50 26 -4 95 -121 152 l-85 42 -1 122 c-2 172 -13
362 -25 398 -5 17 -14 49 -19 73 -8 32 -15 42 -31 42 -16 0 -19 -4 -14 -17 10
-27 32 -166 44 -275 11 -96 15 -318 7 -318 -13 0 -167 39 -176 45 -5 3 -10 10
-10 15 0 5 -22 47 -48 92 -27 46 -65 112 -84 148 -20 36 -47 85 -60 110 -14
25 -44 80 -67 123 -40 73 -44 77 -77 77 -39 0 -42 13 26 -120 18 -36 48 -96
67 -135 18 -38 38 -77 43 -85 12 -18 76 -151 97 -200 8 -19 19 -43 24 -52 5
-11 5 -19 -2 -24 -6 -3 -15 -17 -20 -31 -5 -14 -13 -23 -16 -19 -14 13 -105
165 -224 375 -102 178 -128 216 -154 227 -17 7 -37 24 -45 38 l-13 26 -2329 0
-2328 0 0 -949z m4673 826 c3 -8 1 -20 -4 -28 -11 -19 -34 3 -26 25 8 20 23
21 30 3z m76 -97 c17 -28 31 -52 31 -54 0 -2 20 -39 43 -82 24 -44 61 -109 81
-146 20 -38 32 -68 27 -68 -6 0 -11 7 -11 15 0 8 -3 15 -8 15 -4 0 -13 14 -21
32 -8 18 -35 66 -60 107 -26 42 -53 89 -61 104 -16 32 -58 77 -71 77 -5 0 -9
11 -9 25 0 40 26 29 59 -25z m-96 -43 c29 1 42 -5 58 -25 52 -67 309 -537 309
-566 0 -9 -5 -36 -12 -61 -10 -37 -10 -50 1 -66 7 -12 10 -23 7 -26 -2 -3 -96
24 -208 60 -112 36 -215 68 -229 71 -27 6 -27 6 -25 98 l1 93 -28 0 c-52 0
-55 33 -17 200 10 44 23 104 29 133 14 67 38 106 60 95 9 -4 33 -7 54 -6z m81
-813 c88 -30 162 -56 164 -59 3 -2 -2 -19 -11 -37 -15 -30 -48 -164 -107 -433
-21 -97 -51 -283 -65 -412 l-7 -63 -69 0 c-49 0 -81 6 -107 19 -21 11 -53 21
-72 23 -31 3 -35 1 -33 -19 4 -34 -21 -29 -67 13 -43 39 -47 54 -27 94 10 20
22 26 57 30 40 4 47 9 63 43 10 21 21 67 24 101 6 65 -4 96 -49 157 -20 26
-20 28 1 160 11 74 23 168 27 209 6 84 26 147 63 203 17 27 29 36 40 31 9 -4
88 -31 175 -60z m661 -85 c4 -6 5 -12 2 -15 -7 -7 -37 7 -37 17 0 13 27 11 35
-2z m-914 -929 c5 0 9 -5 9 -11 0 -15 -43 -7 -48 10 -3 10 0 12 12 8 10 -4 22
-7 27 -7z m-2845 -41 c8 -6 9 -20 3 -42 -30 -115 -32 -128 -22 -138 7 -7 17 1
33 28 53 89 95 143 106 139 7 -3 45 -8 85 -12 41 -3 79 -11 85 -16 7 -4 15
-43 18 -86 4 -42 14 -113 22 -156 8 -44 12 -81 10 -83 -2 -2 -21 -1 -41 3 -37
7 -59 23 -80 57 -7 12 -35 21 -93 29 l-84 11 -21 -25 c-22 -26 -23 -26 -97
-16 -80 11 -104 22 -95 46 3 8 12 56 21 106 15 92 29 140 48 164 11 15 81 9
102 -9z m3342 -791 c-6 -18 -28 -21 -28 -4 0 9 7 16 16 16 9 0 14 -5 12 -12z
m-448 -66 c0 -12 -62 -73 -68 -67 -10 10 33 75 50 75 10 0 18 -4 18 -8z m-172
-32 c-14 -22 -24 -25 -33 -10 -9 15 4 30 26 30 17 0 18 -3 7 -20z m90 -57 c-4
-22 -48 -31 -48 -10 0 19 10 27 32 27 13 0 18 -6 16 -17z m612 -146 c38 -19
45 -27 48 -55 2 -19 -1 -32 -8 -32 -41 0 -133 86 -108 101 17 11 16 11 68 -14z
m-229 -43 c10 -13 10 -21 0 -47 -7 -18 -26 -72 -42 -121 -25 -79 -27 -94 -17
-128 15 -52 4 -62 -61 -53 -42 6 -51 10 -51 27 0 26 53 176 92 257 39 83 54
95 79 65z m128 -58 c13 -13 33 -27 45 -30 13 -3 39 -27 60 -52 30 -39 36 -55
36 -95 0 -78 -34 -229 -52 -229 -4 0 -8 10 -8 23 0 12 -4 28 -9 36 -7 10 -10
6 -14 -15 -3 -16 -6 -36 -6 -44 -1 -101 -10 -203 -19 -212 -16 -16 -32 0 -32
33 0 34 -8 36 -38 9 -14 -14 -22 -33 -22 -55 0 -39 -12 -45 -33 -15 -18 26
-35 9 -35 -34 1 -36 68 -108 117 -125 39 -13 71 -38 71 -56 0 -18 -30 -27 -46
-14 -7 6 -57 33 -111 61 -54 27 -105 56 -114 64 -8 7 -23 14 -32 14 -9 0 -39
14 -67 30 -28 17 -56 30 -63 30 -19 1 -123 97 -114 106 4 5 22 2 40 -5 18 -7
44 -16 60 -18 25 -5 27 -3 27 25 0 17 5 34 10 37 13 8 32 -43 25 -66 -8 -25
24 -39 37 -16 5 10 16 17 24 17 12 0 14 -7 10 -27 -8 -35 0 -46 47 -68 33 -15
40 -16 48 -4 5 8 6 28 2 44 -4 17 -7 59 -8 95 0 36 -4 72 -8 80 -4 8 -6 49 -4
90 2 75 2 75 32 80 26 5 30 9 27 35 -2 17 11 72 28 123 16 52 30 111 30 133 0
31 4 39 18 39 10 0 29 -11 41 -24z m211 -2 c0 -16 -16 -19 -25 -4 -8 13 4 32
16 25 5 -4 9 -13 9 -21z m-1102 -34 c33 -21 36 -24 46 -72 4 -19 13 -28 26
-28 10 0 24 -6 29 -12 6 -7 24 -29 41 -49 l30 -37 -26 -46 c-31 -55 -51 -62
-139 -47 -98 17 -109 24 -125 70 -12 36 -11 46 3 75 9 19 25 37 37 41 29 9 21
25 -26 51 -45 25 -49 43 -14 61 36 18 80 16 118 -7z m557 -79 c0 -30 -29 -51
-46 -34 -10 10 -10 18 -1 38 15 33 47 30 47 -4z m92 -292 c17 -17 -17 -70 -42
-67 -26 4 -45 55 -25 68 20 13 54 12 67 -1z m63 -195 c0 -8 -7 -14 -15 -14
-15 0 -21 21 -9 33 10 9 24 -2 24 -19z m200 -114 c0 -20 -26 -34 -36 -19 -3 6
-3 22 0 35 6 21 9 24 21 14 8 -7 15 -20 15 -30z m864 -71 c48 -57 26 -70 -23
-14 -35 40 -37 45 -17 45 8 0 26 -14 40 -31z m-2364 -179 c0 -20 -5 -30 -15
-30 -16 0 -19 17 -9 44 10 26 24 18 24 -14z m2380 -176 c40 -36 50 -54 29 -54
-12 0 -79 69 -79 82 0 14 9 9 50 -28z m-944 -151 c23 -22 34 -41 34 -60 0 -16
7 -39 16 -51 15 -22 15 -22 -25 -16 l-40 6 21 -41 c22 -44 18 -77 -8 -67 -9 3
-29 6 -45 6 -22 0 -29 5 -29 20 0 11 -6 20 -13 20 -7 0 -20 -9 -30 -20 -9 -11
-21 -20 -25 -20 -5 0 -17 9 -27 20 -10 11 -29 20 -42 20 -22 0 -23 3 -23 65 0
37 -4 65 -10 65 -5 0 -10 -8 -10 -19 0 -10 -11 -26 -25 -35 -24 -16 -25 -16
-25 4 0 11 -7 23 -15 26 -8 4 -15 12 -15 20 0 25 -28 15 -53 -18 -43 -57 -59
-98 -54 -137 3 -29 -6 -56 -44 -131 -86 -172 -109 -220 -109 -232 0 -6 -8 -17
-17 -24 -13 -10 -15 -16 -7 -21 7 -5 14 -17 16 -28 4 -18 6 -16 19 10 15 32
65 84 83 86 23 3 42 -3 59 -18 9 -9 17 -13 17 -9 0 11 45 -36 65 -69 10 -16
22 -46 26 -65 5 -19 12 -55 18 -80 5 -26 8 -197 6 -400 -2 -293 -6 -368 -20
-430 -10 -41 -21 -97 -26 -125 -11 -72 -20 -105 -30 -111 -15 -9 -10 72 12
194 20 110 22 232 5 250 -25 24 -90 -88 -106 -183 -6 -33 -22 -100 -35 -150
-13 -49 -27 -103 -32 -120 -5 -22 -9 -5 -13 70 -4 74 -1 109 9 135 8 19 20 64
27 100 6 36 19 91 28 123 9 32 16 70 16 85 l-1 27 -20 -27 c-25 -34 -39 -36
-39 -5 0 13 -3 26 -6 29 -8 9 -122 -110 -130 -135 -7 -24 -33 -57 -44 -57 -4
0 -3 19 2 42 5 24 13 66 18 93 14 85 64 239 85 265 7 8 19 29 28 45 28 54 76
95 113 95 24 0 34 -5 39 -20 8 -26 -1 -40 -28 -40 -26 0 -60 -26 -76 -58 -14
-27 -7 -42 20 -42 10 0 36 -15 56 -34 21 -18 49 -35 63 -38 14 -3 33 -9 42
-12 15 -7 17 7 20 141 2 82 -2 168 -8 193 l-10 44 -62 11 c-38 7 -67 19 -75
30 -13 16 -15 16 -35 -10 -12 -15 -22 -36 -22 -46 0 -9 -6 -24 -12 -31 -26
-27 -39 -60 -33 -79 4 -12 -1 -29 -14 -45 -12 -15 -21 -36 -21 -48 0 -12 -7
-31 -15 -43 -21 -29 -75 -164 -75 -185 0 -9 -4 -20 -10 -23 -16 -10 -12 63 6
98 9 17 17 49 17 71 0 26 14 70 39 124 22 46 37 90 34 98 -3 8 -19 17 -36 20
-16 4 -27 10 -24 15 3 5 1 9 -4 9 -5 0 -15 12 -22 28 -22 43 -61 93 -69 88 -4
-3 -13 -1 -21 4 -12 8 -11 13 7 30 12 11 25 20 28 20 3 0 23 13 46 29 39 29
39 30 19 41 -20 11 -20 13 -6 29 9 10 16 35 16 58 0 95 152 462 224 541 49 55
109 65 204 33 31 -11 73 -22 94 -26 31 -6 37 -4 43 14 4 13 15 21 29 21 13 0
31 9 42 21 18 20 19 20 22 3 2 -11 19 -33 38 -51z m-1353 22 c8 -8 25 -30 37
-50 13 -21 32 -37 48 -40 15 -3 56 -15 91 -27 35 -12 89 -23 120 -24 31 -2 59
-3 62 -4 3 0 4 -11 1 -25 -8 -43 13 -28 35 26 21 47 24 50 55 47 46 -4 46 -25
3 -123 -40 -90 -59 -107 -82 -75 -18 26 -46 13 -69 -32 -14 -26 -14 -38 -4
-71 13 -44 35 -71 49 -63 8 6 51 -43 51 -58 0 -3 -10 -6 -22 -6 -17 0 -19 -3
-10 -12 9 -9 16 -8 29 3 27 23 51 13 55 -24 2 -24 8 -32 22 -32 17 0 20 -9 24
-56 3 -50 1 -56 -20 -66 -23 -11 -23 -11 10 -23 24 -9 32 -18 32 -36 0 -19 -7
-24 -37 -30 -52 -9 -84 -27 -75 -41 4 -6 45 -17 91 -25 93 -14 105 -26 94 -92
-6 -41 -37 -56 -114 -56 -27 0 -49 -2 -49 -4 0 -20 16 -36 36 -36 15 0 24 -6
24 -15 0 -8 -4 -15 -10 -15 -5 0 -10 5 -10 11 0 6 -10 9 -22 7 -18 -2 -23 -10
-23 -33 0 -16 4 -33 10 -37 6 -5 6 -11 -2 -19 -8 -8 -23 2 -60 40 -27 28 -59
52 -71 52 -48 3 -57 5 -69 12 -9 6 -13 0 -13 -22 0 -18 -8 -35 -18 -43 -46
-32 -30 -78 26 -77 187 1 222 -6 222 -46 0 -20 -6 -23 -72 -28 -40 -4 -93 -5
-118 -3 -29 2 -55 -2 -72 -12 -25 -15 -29 -14 -46 1 -13 12 -36 17 -73 17 -30
0 -88 9 -129 20 -41 11 -98 20 -126 20 -28 0 -64 4 -80 10 -30 10 -254 19
-254 10 0 -11 -117 -2 -168 14 -39 11 -60 12 -80 5 -21 -8 -29 -7 -38 5 -12
18 -49 21 -59 6 -3 -5 -12 -7 -20 -3 -11 3 -17 -4 -21 -26 -4 -17 -13 -36 -20
-42 -8 -6 -14 -18 -14 -25 0 -7 -13 -20 -30 -29 -18 -9 -30 -23 -30 -35 0 -11
-6 -20 -14 -20 -32 0 -46 13 -46 41 0 32 -11 37 -30 14 -20 -24 -50 -19 -50 9
0 13 7 26 15 30 19 7 19 40 0 56 -8 7 -15 20 -15 29 0 13 -10 17 -42 17 -24 0
-91 2 -150 6 l-106 5 -46 47 c-26 25 -54 46 -63 46 -9 0 -37 10 -61 22 -25 11
-67 23 -94 26 -40 4 -54 10 -71 33 -12 17 -23 25 -27 19 -5 -7 -16 -6 -36 4
-16 8 -42 18 -59 23 -48 14 -37 35 30 55 51 16 61 22 63 42 1 20 -4 26 -28 31
-33 7 -100 69 -100 92 0 8 7 21 15 29 8 9 15 27 15 40 0 20 -4 24 -19 19 -11
-3 -31 -3 -45 1 -21 5 -26 12 -26 39 0 29 -4 35 -35 45 -63 21 -42 34 43 25
114 -11 116 -11 253 13 123 21 159 32 245 73 22 10 53 19 68 19 15 0 37 6 49
13 12 6 38 12 57 12 32 0 35 3 38 33 3 27 7 32 28 32 31 0 52 19 47 41 -6 21
12 27 60 21 31 -3 38 -8 34 -22 -3 -13 0 -17 9 -13 8 3 14 9 14 14 0 5 5 9 11
9 6 0 9 -9 6 -20 -6 -25 26 -35 81 -26 20 4 78 8 128 10 50 2 107 9 127 15 25
9 42 9 55 2 23 -12 90 -6 155 15 38 13 79 15 197 11 82 -3 164 -11 184 -18 26
-9 44 -10 69 -2 23 7 40 7 52 1 12 -7 21 -6 31 4 12 12 10 19 -10 48 -41 61
-66 182 -46 220 13 24 23 25 43 5z m-1743 -30 c0 -17 -29 -34 -47 -28 -9 3
-10 10 -3 24 12 22 50 26 50 4z m-60 -119 c0 -28 -23 -76 -36 -76 -18 0 -18
24 1 60 16 31 35 40 35 16z m4190 -38 c60 -31 63 -48 8 -41 -24 3 -45 10 -47
15 -2 5 -14 13 -27 18 -17 7 -22 14 -17 27 9 25 27 35 33 18 3 -8 25 -25 50
-37z m-771 -48 c23 0 30 -5 33 -25 5 -22 2 -25 -23 -25 -35 0 -59 24 -59 58 1
23 2 25 11 10 6 -11 22 -18 38 -18z m941 -30 c0 -11 -7 -20 -15 -20 -15 0 -21
21 -8 33 12 13 23 7 23 -13z m51 -36 c12 -14 11 -16 -5 -13 -11 2 -21 10 -24
17 -5 17 13 15 29 -4z m-1180 -53 c31 -5 74 -17 95 -27 39 -18 48 -21 72 -23
7 0 10 -6 7 -11 -3 -6 -17 -7 -31 -4 -20 5 -26 2 -31 -15 -6 -23 -7 -24 -166
-25 l-98 -1 6 25 c4 14 8 39 10 55 1 17 3 34 4 39 1 9 23 6 132 -13z m-1096
-34 c0 -26 -20 -25 -23 2 -3 16 1 22 10 19 7 -3 13 -12 13 -21z m1047 -248
c20 -5 40 -14 44 -20 9 -15 -17 -30 -38 -23 -18 5 -58 -11 -58 -24 0 -8 79
-32 105 -32 9 0 15 10 15 26 0 25 2 26 38 20 111 -19 167 -26 262 -36 114 -12
171 -33 209 -74 14 -14 34 -26 46 -26 26 0 63 -25 53 -36 -5 -4 -99 1 -210 11
-123 11 -232 15 -279 11 -60 -5 -96 -2 -165 15 -105 25 -154 44 -154 59 0 24
22 50 42 50 21 0 21 1 -5 28 -27 28 -34 52 -20 66 8 8 50 2 115 -15z m840 -35
c4 -3 -9 -37 -28 -74 -19 -38 -34 -73 -34 -78 0 -4 -9 -25 -20 -47 -11 -22
-20 -47 -20 -57 0 -9 -4 -20 -10 -23 -5 -3 -10 -19 -10 -34 0 -15 -7 -36 -16
-47 -15 -18 -15 -18 -10 11 2 17 8 59 12 95 3 36 10 70 14 75 3 6 15 33 25 60
33 90 75 142 97 119z m-132 -19 c0 -8 -4 -15 -10 -15 -5 0 -10 7 -10 15 0 8 5
15 10 15 6 0 10 -7 10 -15z m255 -86 c0 -20 9 -27 65 -46 36 -13 76 -23 90
-23 14 0 34 -7 44 -15 25 -19 21 -19 -116 -3 -103 11 -123 20 -112 48 4 8 6
28 5 43 -1 19 3 27 11 25 7 -3 13 -15 13 -29z m729 -27 c3 -5 -8 -42 -24 -83
-16 -41 -29 -84 -30 -95 0 -12 -7 -27 -15 -34 -19 -15 -19 -12 0 79 24 113 50
163 69 133z m87 -34 c2 -17 3 -13 -24 -90 -28 -82 -37 -93 -37 -46 0 30 8 61
35 136 2 6 9 12 15 12 5 0 11 -6 11 -12z m79 -34 c0 -8 -4 -22 -9 -32 -5 -9
-13 -28 -19 -42 -26 -66 -31 -75 -31 -58 -1 24 20 120 31 141 10 19 28 14 28
-9z m-5287 -21 c4 -3 2 -12 -4 -20 -9 -10 -15 -10 -25 -2 -8 6 -14 15 -14 20
0 10 34 12 43 2z m5824 -85 c-3 -8 -6 -5 -6 6 -1 11 2 17 5 13 3 -3 4 -12 1
-19z m-2373 6 c21 -8 21 -43 0 -51 -8 -3 -23 1 -31 10 -13 13 -14 19 -3 31 14
18 13 18 34 10z m-784 -43 c0 -5 -7 -14 -15 -21 -8 -7 -15 -10 -15 -7 0 3 -3
12 -6 21 -4 12 0 16 15 16 12 0 21 -4 21 -9z m1340 -22 c0 -16 -31 -22 -43
-10 -9 9 -9 14 2 20 16 10 41 4 41 -10z m1906 9 c10 -16 6 -70 -6 -82 -6 -6
-15 5 -25 28 -15 35 -19 38 -46 32 -22 -4 -29 -2 -27 7 3 6 22 15 44 18 21 3
42 7 46 8 4 0 10 -4 14 -11z m-2334 -29 c2 -6 1 -32 -2 -58 -4 -39 -9 -47 -29
-49 -13 -2 -27 2 -32 9 -8 14 -5 82 6 99 8 13 52 13 57 -1z m655 -45 c3 -9 -3
-21 -15 -30 -26 -18 -72 -117 -72 -155 0 -15 -5 -31 -11 -35 -8 -5 -9 6 -5 37
4 24 9 64 13 89 9 72 73 139 90 94z m1786 -31 c9 -20 14 -39 12 -42 -3 -2 -22
0 -43 5 -31 8 -37 13 -34 34 2 24 17 40 37 40 6 0 18 -17 28 -37z m-3503 -15
c0 -16 -3 -19 -11 -11 -6 6 -8 16 -5 22 11 17 16 13 16 -11z m1090 12 c0 -5
-5 -10 -11 -10 -5 0 -7 5 -4 10 3 6 8 10 11 10 2 0 4 -4 4 -10z m-5013 -155
c1 -42 0 -45 -22 -39 -12 3 -26 1 -30 -6 -5 -8 -10 -8 -21 1 -18 15 -18 29 1
29 8 0 18 12 21 28 15 58 48 50 51 -13z m3051 -2 c2 -27 8 -43 16 -43 8 0 19
-6 25 -14 15 -18 -2 -56 -23 -56 -29 0 -25 -30 5 -46 34 -17 34 -37 1 -42 -15
-2 -25 4 -33 21 -12 28 -47 47 -84 47 -34 0 -57 35 -43 66 6 13 15 24 20 24 4
0 5 18 2 39 -6 39 -6 40 27 44 76 10 84 6 87 -40z m-2817 -14 c-23 -9 -41 -5
-41 10 0 4 14 5 32 3 31 -5 31 -5 9 -13z m3444 -9 c3 -5 -1 -10 -10 -10 -9 0
-13 5 -10 10 3 6 8 10 10 10 2 0 7 -4 10 -10z m-989 -47 c-10 -10 -19 5 -10
18 6 11 8 11 12 0 2 -7 1 -15 -2 -18z m-186 -12 c0 -5 -12 -16 -26 -26 -37
-24 -54 -4 -19 24 26 19 45 20 45 2z m386 -29 c1 -23 -2 -42 -6 -42 -12 0 -33
68 -25 80 14 22 29 3 31 -38z m2643 31 c0 -5 -4 -17 -9 -28 -8 -18 -9 -17 -9
8 -1 15 4 27 9 27 6 0 10 -3 9 -7z m497 -67 c8 -8 8 -26 0 -65 -12 -60 -27
-73 -44 -39 -9 19 -11 20 -11 5 -1 -10 -6 -15 -12 -12 -7 5 -5 15 5 31 16 23
22 43 9 31 -11 -11 -33 14 -33 38 0 13 6 25 13 28 17 7 60 -3 73 -17z m-540
-146 c-15 -61 -15 -62 -10 -15 2 28 8 70 12 95 6 38 7 40 10 15 1 -16 -4 -59
-12 -95z m342 93 c-3 -26 -6 -28 -59 -31 -44 -2 -58 1 -62 13 -13 33 3 45 65
45 59 0 59 0 56 -27z m-533 -83 c9 -14 -13 -86 -30 -100 -15 -13 -139 -43
-391 -95 -137 -28 -177 -33 -264 -29 -56 2 -106 6 -111 9 -15 10 -10 72 9 94
17 21 19 22 112 8 59 -9 104 -11 118 -6 13 5 36 9 52 9 16 0 84 16 152 36 104
30 128 34 154 25 49 -17 120 -3 152 30 29 31 37 35 47 19z m-1715 -289 c41 -6
102 -12 135 -14 56 -2 60 -4 63 -28 5 -46 -24 -66 -120 -81 -90 -14 -128 -9
-128 16 0 8 -9 17 -19 21 -10 3 -21 15 -24 25 -3 13 -11 18 -21 14 -12 -5 -16
0 -16 23 0 36 17 55 39 44 9 -5 50 -14 91 -20z m4194 19 c38 -14 22 -35 -38
-50 -101 -24 -184 20 -86 46 57 15 92 17 124 4z m634 -77 c-5 -26 -38 -29 -38
-4 0 15 6 21 21 21 14 0 19 -5 17 -17z m-3698 -82 c0 -10 -24 -21 -43 -21 -7
0 -3 7 7 15 22 17 36 19 36 6z m2199 -50 c31 -8 39 -29 14 -37 -10 -4 -36 -15
-58 -25 -22 -10 -66 -27 -98 -38 -56 -19 -62 -19 -130 -4 -91 20 -100 28 -52
49 112 46 263 72 324 55z m915 -177 c24 -9 19 -29 -8 -30 -22 -2 -25 6 -17 34
1 3 8 2 25 -4z"/>
<path d="M1780 4970 c-6 -21 -22 -52 -35 -68 -44 -52 -35 -62 60 -74 38 -5 42
7 32 84 -13 104 -38 129 -57 58z"/>
<path d="M4885 3390 c-3 -5 -5 -10 -3 -11 27 -6 46 -8 58 -3 13 4 13 6 0 14
-20 13 -47 12 -55 0z"/>
<path d="M4717 2488 c-8 -30 6 -81 15 -56 4 8 3 30 -1 49 -7 34 -7 34 -14 7z"/>
<path d="M4410 2291 c-7 -15 -7 -21 0 -21 12 0 25 28 17 36 -3 3 -10 -4 -17
-15z"/>
<path d="M4300 1319 c0 -24 23 -21 28 4 2 10 -3 17 -12 17 -10 0 -16 -9 -16
-21z"/>
<path d="M3692 2313 c2 -11 14 -19 31 -21 23 -3 28 0 25 15 -2 11 -14 19 -31
21 -23 3 -28 0 -25 -15z"/>
<path d="M3800 2310 c0 -5 5 -10 11 -10 5 0 7 5 4 10 -3 6 -8 10 -11 10 -2 0
-4 -4 -4 -10z"/>
<path d="M1655 2030 c-3 -5 1 -10 9 -10 9 0 16 5 16 10 0 6 -4 10 -9 10 -6 0
-13 -4 -16 -10z"/>
<path d="M5901 7126 c4 -41 10 -84 14 -96 8 -24 31 -21 29 3 -1 9 14 23 33 32
28 14 40 15 60 6 17 -8 29 -8 37 -1 9 7 24 4 51 -10 59 -30 75 -27 75 16 0 29
8 44 45 80 l46 44 -199 0 -198 0 7 -74z"/>
<path d="M7614 7165 c6 -28 3 -37 -11 -43 -10 -4 -33 -17 -50 -27 l-33 -20 6
-65 c8 -78 15 -89 43 -61 11 11 23 16 26 11 4 -6 13 -6 23 -1 9 5 30 15 45 22
16 7 24 15 18 17 -13 4 -15 32 -2 32 5 0 11 11 13 25 3 14 1 25 -3 25 -5 0 -9
-10 -10 -22 0 -13 -9 4 -20 37 l-20 60 21 17 c28 23 25 28 -16 28 -36 0 -36 0
-30 -35z"/>
<path d="M8010 7185 c12 -15 30 -12 30 6 0 5 -10 9 -21 9 -18 0 -19 -2 -9 -15z"/>
<path d="M8080 7185 c0 -18 46 -65 64 -65 8 0 17 -12 21 -27 11 -46 23 -53 91
-53 36 0 64 -4 64 -10 0 -13 37 -13 45 0 5 8 11 7 21 -1 12 -9 14 -6 14 20 0
28 3 31 30 31 40 0 40 -25 -1 -59 -43 -37 -32 -56 42 -70 65 -13 76 -32 40
-65 -31 -28 -53 -103 -38 -127 6 -10 17 -19 24 -19 7 0 22 -13 35 -30 12 -16
28 -30 35 -30 16 0 17 -12 1 -28 -8 -8 -8 -15 1 -26 11 -13 16 -13 43 7 22 16
45 22 91 24 77 2 219 23 232 35 5 4 16 8 26 8 9 0 27 8 40 19 24 18 73 32 119
32 13 1 29 7 35 15 5 8 32 16 58 18 38 3 55 10 81 35 17 17 35 31 39 31 10 0
47 38 47 49 0 5 7 14 15 21 12 10 34 11 101 3 82 -10 88 -10 127 13 23 13 54
24 69 24 15 0 45 7 67 16 34 13 41 21 50 59 6 25 11 48 10 52 -4 26 6 30 74
31 92 1 104 -3 123 -39 19 -38 33 -34 53 19 25 64 40 70 192 78 74 3 151 6
172 5 20 -1 37 3 37 9 0 7 -374 10 -1195 10 -1039 0 -1195 -2 -1195 -15z m640
-380 c0 -15 -38 -41 -47 -32 -3 3 -2 15 2 26 7 24 45 29 45 6z"/>
<path d="M10515 7190 c3 -5 12 -10 20 -10 8 0 35 -22 60 -49 l47 -50 66 4 c51
3 71 0 84 -12 21 -19 78 -20 89 -1 7 11 9 11 9 0 0 -9 5 -10 17 -3 15 8 22 0
45 -50 25 -53 31 -59 58 -59 20 0 30 -5 30 -16 0 -8 4 -13 9 -9 5 3 12 -4 16
-15 7 -23 26 -26 54 -8 26 16 47 5 66 -36 16 -32 21 -36 57 -36 34 0 46 -6 77
-40 37 -40 37 -40 111 -40 299 2 423 -1 438 -9 9 -6 12 -11 5 -11 -7 0 -13 -4
-13 -10 0 -11 33 -14 43 -3 4 3 40 7 81 8 74 2 75 2 87 -26 14 -34 14 -35 74
-9 l47 20 23 -24 23 -25 -24 -15 c-13 -9 -30 -16 -39 -16 -24 0 -18 -15 13
-29 53 -26 57 -29 54 -47 -2 -11 -12 -25 -23 -33 -30 -21 -24 -58 14 -81 34
-21 52 -26 42 -11 -3 6 6 7 22 2 57 -15 91 19 39 39 -31 11 -41 27 -27 44 7 8
10 20 9 27 -2 10 10 15 42 16 25 1 38 -1 30 -5 -8 -4 -15 -14 -15 -22 0 -9
-11 -16 -27 -18 -50 -6 -30 -22 26 -22 30 0 58 -4 61 -10 3 -5 15 -10 26 -10
10 0 19 -5 19 -11 0 -8 4 -8 14 0 11 9 20 6 41 -14 15 -16 32 -24 41 -21 22 9
64 -4 64 -19 0 -7 -7 -18 -15 -25 -21 -17 -19 -47 5 -67 13 -11 18 -24 14 -38
-5 -21 -1 -22 67 -28 40 -3 76 -4 81 -1 4 3 8 216 8 475 l0 469 -1146 0 c-761
0 -1143 -3 -1139 -10z"/>
<path d="M6292 7048 c-14 -14 -16 -74 -2 -83 5 -3 7 -12 3 -20 -6 -16 -53 -21
-53 -5 0 5 -13 7 -30 4 -19 -4 -30 -2 -30 5 0 6 -9 11 -20 11 -14 0 -20 -7
-20 -24 0 -38 41 -57 59 -27 12 19 40 7 38 -17 0 -11 5 -39 12 -63 7 -24 15
-50 17 -56 6 -23 76 -15 107 12 31 28 32 33 12 71 -13 25 -13 31 0 51 20 29
19 62 -2 85 -15 17 -15 19 3 32 18 14 18 15 -9 21 -15 4 -31 5 -34 2 -3 -4
-13 -2 -23 3 -11 6 -21 5 -28 -2z"/>
<path d="M6878 7029 c-3 -19 0 -25 9 -22 17 7 16 -5 -2 -23 -13 -14 -15 -14
-15 -1 0 9 -6 18 -12 20 -10 4 -9 6 1 6 11 1 11 4 1 16 -16 19 -64 19 -80 0
-13 -15 -5 -39 11 -30 5 4 9 0 9 -8 0 -18 -30 -31 -43 -18 -5 5 -34 7 -63 4
-37 -4 -54 -2 -54 6 0 6 -7 11 -16 11 -18 0 -77 31 -82 43 -5 10 -62 9 -62 -2
0 -6 5 -13 11 -17 7 -4 9 -25 5 -58 -5 -50 2 -78 20 -77 5 0 11 15 14 33 3 18
11 33 18 32 6 -1 32 -2 57 -2 38 -2 45 -5 45 -22 0 -14 -7 -20 -23 -20 -13 0
-27 -3 -31 -7 -4 -4 -19 -9 -33 -11 -32 -4 -66 -21 -44 -22 8 0 22 -7 31 -15
13 -11 24 -13 50 -5 26 7 39 6 57 -5 30 -20 122 -20 129 0 9 23 23 18 30 -10
10 -38 31 -30 39 15 8 45 12 48 30 23 12 -17 15 -17 47 0 18 9 42 23 53 29 11
7 22 14 24 15 2 2 -1 9 -8 17 -8 9 -8 21 -2 39 7 18 6 30 -4 44 -8 11 -12 22
-10 25 3 3 -19 9 -49 14 -54 10 -54 10 -58 -17z"/>
<path d="M10364 6966 c-28 -14 -78 -27 -116 -31 -37 -4 -70 -11 -73 -16 -11
-17 -47 -10 -52 11 -6 21 -12 24 -37 14 -11 -4 -13 -11 -6 -30 9 -21 6 -26
-17 -35 -15 -5 -37 -21 -49 -34 -13 -14 -32 -25 -43 -25 -29 0 -51 -11 -51
-25 0 -7 -15 -23 -34 -36 -19 -13 -33 -27 -30 -30 10 -18 -16 -17 -52 0 -26
13 -43 16 -51 10 -7 -7 -25 -7 -50 0 -21 6 -69 8 -108 5 -38 -3 -103 -5 -143
-4 -39 1 -77 -2 -82 -5 -15 -9 8 -29 49 -43 31 -11 37 -10 57 9 16 15 23 17
26 7 3 -9 24 -12 74 -10 38 1 93 -4 123 -12 30 -8 60 -12 67 -9 7 2 40 -7 73
-22 33 -15 64 -24 69 -21 13 8 92 -23 119 -47 12 -10 27 -17 34 -15 13 4 39
-14 90 -63 15 -14 42 -32 60 -39 41 -17 89 -58 89 -76 0 -8 7 -14 16 -14 20 0
84 -70 84 -93 0 -11 8 -21 18 -24 25 -6 73 -78 66 -98 -5 -11 0 -18 14 -22 22
-5 75 -77 65 -87 -3 -3 -28 -9 -55 -12 -38 -5 -53 -13 -69 -35 -25 -35 -37
-31 -73 26 -15 25 -46 67 -67 93 -32 37 -39 53 -35 75 5 24 4 26 -13 17 -27
-14 -30 -30 -14 -68 12 -28 11 -33 -1 -38 -8 -3 -29 5 -46 18 l-31 23 -41 -23
c-22 -13 -42 -21 -46 -17 -3 3 -1 24 5 46 11 43 5 57 -38 79 -32 18 -22 29 29
32 39 2 48 7 50 24 2 16 -9 26 -50 47 -53 27 -87 54 -112 91 -12 17 -14 17
-42 -7 -28 -24 -28 -27 -17 -68 13 -49 10 -59 -15 -41 -56 40 -69 42 -95 22
-32 -26 -62 -27 -52 -2 21 54 18 69 -19 97 -40 31 -39 45 5 45 34 0 37 10 9
28 -33 20 -263 73 -273 63 -22 -22 2 -41 45 -39 54 4 65 -23 20 -46 -37 -19
-43 -35 -30 -80 6 -20 9 -39 5 -42 -3 -3 -22 6 -43 20 l-38 26 -44 -26 -44
-26 7 55 c7 55 7 56 -24 71 -43 23 -42 50 2 43 42 -6 67 8 67 38 0 29 2 29
-120 10 -112 -18 -210 -44 -210 -56 0 -12 35 -29 59 -29 37 0 36 -23 -4 -57
-38 -33 -38 -33 -26 -73 16 -54 7 -65 -33 -40 -42 25 -60 25 -96 -1 -34 -26
-60 -19 -60 16 0 25 -1 25 -28 11 -16 -8 -55 -16 -88 -18 -46 -2 -59 -7 -62
-20 -3 -14 6 -17 45 -20 40 -3 48 -6 51 -25 2 -14 -3 -23 -16 -27 -11 -4 -28
-16 -38 -27 -15 -17 -16 -26 -7 -59 5 -22 8 -42 5 -45 -3 -3 -25 7 -50 21
l-44 26 -29 -21 c-49 -36 -64 -25 -47 33 11 34 10 40 -7 52 -22 16 -45 18 -45
4 0 -12 -111 -160 -133 -178 -10 -9 -22 -9 -43 -2 -17 6 -40 9 -53 8 -20 -3
-23 2 -26 37 -5 53 23 115 51 115 28 0 35 9 23 31 -14 26 46 108 79 109 18 0
23 5 20 21 -2 14 12 33 46 63 50 45 54 66 11 66 -16 0 -60 -36 -146 -120 -67
-66 -126 -120 -131 -120 -4 0 -8 -11 -8 -25 0 -14 -4 -25 -9 -25 -5 0 -12 -10
-15 -22 -16 -60 -150 -158 -178 -130 -15 15 -149 16 -200 2 -21 -6 -42 -20
-48 -31 -10 -18 -12 -18 -35 8 -23 28 -24 28 -157 29 -74 0 -140 4 -147 8 -12
8 -77 8 -275 2 -88 -3 -113 -7 -134 -23 -40 -30 -68 -130 -91 -324 -5 -42 -14
-95 -20 -118 -22 -83 -29 -117 -36 -161 -3 -25 -17 -79 -30 -120 -14 -41 -29
-104 -35 -140 -25 -150 -43 -288 -44 -333 -2 -83 36 -97 268 -97 166 0 201 6
234 40 l26 26 46 -28 c111 -69 337 -48 429 40 11 11 17 8 32 -17 26 -42 52
-53 144 -59 l81 -4 27 32 c15 17 27 39 27 49 0 38 15 29 42 -26 34 -72 34 -75
3 -111 -34 -41 -32 -51 3 -14 19 20 44 33 80 41 64 13 135 14 148 2 12 -13
184 1 298 24 81 16 92 16 120 2 55 -27 68 -28 287 -28 202 1 217 -1 234 -19
15 -16 17 -29 11 -72 -20 -150 -22 -135 14 -135 31 0 34 5 62 66 16 36 39 86
51 111 l22 45 230 2 c127 1 250 4 275 8 30 5 59 2 89 -8 40 -14 47 -14 74 -1
40 21 197 6 236 -23 42 -32 54 -82 36 -159 -21 -90 -20 -104 7 -101 14 1 26
-6 32 -19 6 -11 17 -19 24 -16 18 6 15 22 -9 41 -21 17 -21 20 -9 87 27 149
64 189 188 200 72 7 86 15 55 32 -15 9 -14 12 5 38 11 16 34 42 50 57 l30 28
20 -33 c34 -55 68 -80 129 -94 79 -19 218 -3 296 35 l55 27 31 -28 c28 -25 39
-28 99 -28 128 0 158 21 180 126 9 45 24 48 33 7 12 -50 38 -102 58 -113 23
-12 97 -12 126 0 24 10 8 18 -45 22 -30 3 -35 6 -32 25 2 12 -4 33 -13 47 -18
26 -45 177 -38 205 7 26 73 16 73 -11 0 -12 11 -31 24 -43 l24 -23 6 24 c7 26
26 33 26 9 0 -8 9 -34 20 -57 11 -24 27 -69 36 -100 15 -57 34 -78 34 -39 0
26 -46 292 -69 406 -11 50 -22 113 -26 140 l-6 50 104 160 c58 88 131 196 163
240 67 93 80 121 70 158 -11 44 -46 60 -136 59 -91 -1 -114 -11 -164 -70 -31
-37 -36 -41 -36 -22 0 12 -15 37 -34 56 -34 34 -35 34 -124 34 -96 0 -133 -15
-147 -61 -6 -19 -8 -19 -33 7 -44 44 -63 52 -148 64 -111 15 -209 -9 -277 -66
-29 -24 -47 -24 -47 1 0 7 -15 23 -34 34 -27 17 -50 21 -120 21 -92 0 -113
-10 -127 -63 -6 -22 -6 -22 -17 3 -5 14 -22 36 -36 50 -24 22 -46 61 -74 132
-9 22 -9 26 3 21 8 -3 15 0 15 5 0 6 15 12 33 14 27 3 32 7 31 28 -1 14 -4 32
-8 41 -4 10 -1 23 8 32 19 19 10 28 -20 21 -18 -5 -27 2 -47 33 -13 21 -31 43
-38 49 -23 19 -105 23 -135 8 -36 -19 -35 -19 -104 26 -42 29 -65 52 -77 78
-9 22 -31 47 -54 62 -24 15 -35 27 -27 31 6 4 8 14 5 22 -8 22 16 28 46 12 23
-12 28 -10 59 22 39 41 78 63 110 63 31 0 98 24 107 39 4 6 8 31 10 55 1 33
-4 50 -21 72 -13 16 -29 41 -36 57 -14 33 -25 34 -88 3z m-269 -321 c0 -28
-29 -25 -33 3 -3 19 0 23 15 20 10 -2 18 -12 18 -23z m-558 -365 c100 -13 206
-51 300 -106 85 -50 163 -110 163 -125 0 -30 -137 13 -195 61 -6 5 -20 11 -31
13 -10 2 -27 7 -37 12 -9 4 -23 2 -30 -3 -8 -7 -26 -8 -54 -1 -44 9 -98 11
-246 8 -67 -2 -91 1 -97 12 -7 10 -12 11 -21 2 -8 -8 -19 -9 -36 -2 -16 6 -38
6 -59 0 -24 -7 -33 -6 -31 2 1 6 -8 13 -20 15 -13 2 -23 0 -23 -5 0 -5 -9 -9
-19 -10 -21 -2 -148 -63 -185 -88 -26 -19 -89 -20 -84 -2 13 38 224 161 333
192 115 34 241 42 372 25z m-548 -298 c55 -27 76 -64 74 -130 -2 -52 -56 -314
-102 -487 -20 -79 -32 -132 -62 -290 -25 -134 -46 -184 -91 -219 -43 -32 -68
-34 -68 -3 0 34 -11 45 -55 52 -58 11 -78 24 -37 25 73 0 110 87 157 365 9 55
35 190 56 299 22 110 39 211 37 225 -4 30 -38 42 -85 29 -40 -11 -55 -38 -77
-143 -21 -97 -34 -157 -80 -346 -20 -81 -40 -179 -46 -218 -10 -73 -32 -131
-50 -131 -5 0 -14 9 -21 21 -11 21 -11 21 -41 -7 -25 -24 -29 -35 -24 -63 3
-21 17 -44 37 -62 40 -36 31 -49 -17 -23 -48 26 -57 38 -55 81 1 65 98 573
161 848 25 108 106 185 210 198 57 8 143 -3 179 -21z m-1581 12 c17 -3 33 -13
36 -21 7 -16 -12 -102 -25 -119 -6 -7 -44 -10 -101 -9 -124 3 -132 -1 -146
-67 -7 -29 -23 -101 -37 -160 -13 -59 -22 -114 -19 -123 5 -11 23 -15 76 -15
l71 0 -7 -61 c-3 -33 -8 -65 -12 -70 -3 -5 -40 -9 -83 -9 -51 0 -82 -4 -88
-12 -5 -7 -15 -54 -21 -104 -7 -49 -24 -127 -38 -173 -23 -70 -25 -84 -13 -96
16 -16 102 -21 171 -10 56 9 68 -6 48 -55 -16 -38 -35 -38 -70 0 -23 25 -32
28 -64 23 -20 -3 -36 -9 -36 -14 0 -5 -7 -6 -16 -2 -8 3 -25 1 -37 -5 -12 -5
-41 -16 -65 -23 -31 -9 -41 -17 -37 -27 7 -19 -12 -32 -47 -32 -36 0 -36 15 1
155 17 61 44 189 62 285 78 434 140 725 156 738 18 13 282 18 341 6z m240 0
c17 -3 33 -12 35 -19 5 -12 -70 -375 -116 -560 -14 -55 -30 -131 -37 -170 -7
-38 -21 -111 -32 -161 -26 -120 -23 -136 25 -147 46 -11 81 8 102 56 18 43 67
261 109 487 38 201 81 413 97 472 7 26 17 39 32 43 30 7 107 -1 119 -13 10
-10 -51 -316 -112 -562 -35 -144 -75 -324 -90 -412 -19 -104 -98 -212 -115
-158 -9 27 -66 50 -124 49 -39 -1 -52 3 -74 25 -43 43 -64 33 -58 -28 1 -15
-2 -16 -12 -7 -8 6 -16 8 -19 5 -9 -8 16 -54 30 -54 6 0 12 -4 12 -10 0 -23
-32 -7 -54 28 -35 51 -40 104 -22 187 22 93 42 195 67 335 44 250 117 591 129
605 13 16 56 19 108 9z m726 -4 c86 -13 123 -34 149 -84 19 -36 19 -45 8 -111
-22 -135 -60 -287 -85 -340 -17 -38 -36 -61 -65 -79 l-41 -26 -1 -198 c0 -189
-7 -250 -23 -224 -13 22 -54 13 -79 -18 -49 -57 -51 -48 -43 181 5 153 3 215
-5 225 -17 21 -66 17 -78 -5 -11 -19 -54 -227 -66 -316 -10 -76 -34 -117 -73
-127 -18 -5 -38 -17 -45 -28 -6 -11 -22 -20 -34 -20 -20 0 -23 5 -23 38 0 22
7 61 15 88 8 27 20 83 26 124 5 41 21 121 35 177 13 55 33 150 43 210 11 59
38 195 60 302 23 107 41 198 41 202 0 4 7 15 16 23 18 19 157 22 268 6z m1469
-7 c10 -6 5 -119 -7 -130 -4 -4 -40 -6 -80 -4 -44 1 -77 -2 -81 -8 -3 -6 -17
-66 -30 -133 -13 -68 -47 -215 -74 -328 -27 -113 -53 -230 -56 -260 -8 -64
-42 -206 -56 -232 -7 -14 -20 -18 -47 -17 -20 1 -47 -1 -59 -5 -21 -7 -23 -4
-23 32 0 43 24 168 63 327 14 55 30 132 37 170 20 120 31 177 52 266 11 47 20
108 21 135 l2 49 -64 3 -64 3 6 60 c8 95 -1 92 241 84 115 -3 214 -9 219 -12z
m1539 -10 c62 -36 69 -127 23 -303 l-22 -85 -54 0 -54 0 2 35 c2 19 12 77 25
129 26 112 21 122 -61 111 -63 -8 -88 -30 -96 -83 -4 -23 -10 -55 -15 -72 -4
-16 -20 -82 -35 -145 -14 -63 -36 -148 -47 -187 -21 -72 -37 -94 -39 -50 0 12
-3 16 -6 9 -2 -6 -9 -10 -14 -6 -5 3 -9 -3 -9 -13 -1 -17 -2 -17 -15 1 -14 19
-15 19 -15 -7 0 -15 -4 -27 -10 -27 -5 0 -10 -10 -10 -23 0 -15 -6 -24 -15
-24 -12 0 -14 7 -11 26 3 14 13 76 21 136 9 61 20 130 25 155 6 25 22 99 36
165 27 128 61 205 104 235 71 51 224 63 292 23z m-1105 -2 c82 -38 96 -95 63
-262 -45 -232 -67 -285 -137 -332 l-43 -28 3 -259 c2 -276 -2 -302 -40 -261
-15 16 -28 20 -61 17 -50 -5 -45 -32 -43 260 3 219 0 229 -55 222 -32 -4 -36
-14 -54 -138 -11 -72 -36 -160 -65 -233 -5 -13 -14 -17 -30 -13 -24 6 -65 -18
-65 -38 0 -8 -7 -19 -15 -26 -8 -7 -15 -23 -15 -36 0 -13 -4 -24 -10 -24 -15
0 -12 37 10 147 11 54 27 136 36 183 8 47 21 112 29 145 7 33 16 78 20 100 24
164 106 557 122 588 2 4 73 7 156 7 128 0 159 -3 194 -19z m350 4 c6 -17 -47
-279 -103 -515 -19 -80 -41 -189 -49 -243 -8 -54 -22 -130 -32 -168 -21 -84
-14 -103 43 -107 67 -4 88 23 124 163 17 66 46 206 65 311 39 216 102 518 115
552 8 19 17 22 70 22 43 0 62 -4 66 -14 7 -19 -44 -277 -106 -536 -16 -69 -35
-161 -41 -205 -6 -44 -22 -115 -35 -158 -13 -43 -24 -92 -24 -108 0 -80 -87
-159 -174 -159 -25 0 -35 5 -39 19 -11 44 -140 68 -176 33 -11 -11 -15 -11
-22 0 -5 7 -9 22 -9 32 0 11 -5 34 -12 53 -10 28 -7 53 25 190 20 87 48 223
62 303 13 80 31 174 39 210 8 36 26 121 41 190 14 69 28 131 30 138 7 19 134
16 142 -3z m983 -5 c0 -5 -4 -10 -10 -10 -5 0 -10 5 -10 10 0 6 5 10 10 10 6
0 10 -4 10 -10z m-919 -143 c-8 -8 -11 -3 -9 18 2 43 12 55 16 21 2 -16 -1
-33 -7 -39z m886 6 c-3 -10 -5 -2 -5 17 0 19 2 27 5 18 2 -10 2 -26 0 -35z
m56 -56 l39 0 -7 -34 c-9 -49 -23 -83 -33 -83 -5 0 -8 12 -6 28 2 15 1 19 -2
9 -3 -10 -11 -17 -17 -16 -29 3 -57 -14 -57 -35 0 -12 -6 -30 -14 -41 -7 -11
-16 -29 -19 -40 -8 -25 -1 37 12 126 14 91 19 101 44 93 12 -4 39 -7 60 -7z
m-4234 -6 c11 -7 10 -28 -9 -129 -12 -67 -27 -128 -34 -137 -11 -15 -15 -13
-46 14 -19 16 -49 32 -66 36 -35 6 -49 27 -35 53 4 9 11 37 15 60 4 24 13 59
20 76 13 32 16 33 77 35 35 0 70 -3 78 -8z m4396 -45 c-10 -14 -22 -26 -27
-26 -5 0 0 14 12 31 26 36 39 32 15 -5z m-595 -150 c0 -7 12 -24 28 -39 23
-22 37 -26 95 -28 37 -1 70 -5 73 -10 4 -7 -4 -63 -23 -151 l-5 -27 -88 6
c-53 4 -100 1 -119 -5 -37 -13 -37 -13 -17 93 28 141 39 184 47 179 5 -3 9
-11 9 -18z m116 -330 c3 -8 -4 -50 -15 -93 -11 -43 -23 -102 -26 -132 -7 -58
-24 -100 -56 -132 -19 -19 -20 -19 -44 -2 -13 10 -25 23 -27 29 -6 23 -48 -4
-48 -30 0 -21 -7 -27 -42 -36 -24 -6 -53 -15 -66 -20 -62 -27 -123 0 -147 65
-22 57 -17 115 21 233 22 71 32 90 46 89 12 -1 14 -5 8 -11 -13 -13 -13 -39 0
-31 6 4 19 -4 30 -17 19 -23 19 -23 20 -2 0 12 9 32 21 45 l20 24 -5 -35 c-3
-19 -8 -77 -12 -127 -8 -110 -1 -123 60 -123 57 0 80 27 95 110 17 91 40 157
56 164 8 3 12 12 9 20 -4 10 3 16 23 19 56 8 74 7 79 -7z m-4038 -19 c13 0 17
-17 5 -17 -5 0 -15 -5 -23 -10 -13 -8 -12 -11 4 -23 22 -16 15 -53 -9 -43 -8
3 -17 1 -20 -5 -4 -5 -12 -6 -18 -2 -7 4 -20 9 -30 10 -47 8 -71 83 -27 83 11
0 20 5 20 11 0 7 14 8 43 3 23 -4 48 -7 55 -7z m4240 -93 c12 -8 22 -24 22
-35 0 -30 -29 -138 -46 -171 -13 -25 -17 -27 -29 -14 -8 8 -15 28 -15 45 0 16
-11 47 -25 67 -27 40 -31 68 -15 109 9 25 14 27 48 20 20 -3 47 -13 60 -21z
m-106 -284 c2 -21 8 -25 31 -22 15 1 27 -2 27 -8 0 -11 -78 -14 -104 -4 -18 7
-21 41 -5 81 l10 28 19 -25 c11 -14 20 -36 22 -50z m-2902 -20 c0 -5 -2 -10
-4 -10 -3 0 -8 5 -11 10 -3 6 -1 10 4 10 6 0 11 -4 11 -10z"/>
<path d="M8232 5837 c-16 -19 -85 -344 -78 -364 9 -24 110 -13 138 15 22 22
63 176 74 283 7 64 9 62 -77 74 -33 4 -49 2 -57 -8z"/>
<path d="M10054 5839 c-6 -8 -17 -43 -24 -79 -7 -36 -23 -111 -36 -167 -13
-56 -21 -109 -18 -117 8 -22 87 -21 125 1 34 21 43 40 69 168 32 155 34 169
18 183 -23 19 -122 27 -134 11z"/>
<path d="M4957 6823 c10 -28 35 -64 40 -59 5 5 -35 76 -43 76 -2 0 0 -8 3 -17z"/>
<path d="M5012 6725 c6 -14 15 -25 20 -25 11 0 10 7 -2 31 -16 28 -32 23 -18
-6z"/>
<path d="M5902 6667 c-6 -40 -14 -103 -16 -142 -5 -69 -5 -70 10 -36 18 39 51
70 77 71 10 0 17 8 17 19 0 27 -15 34 -30 16 -24 -29 -35 -16 -35 43 0 31 3
62 7 68 4 7 2 17 -5 22 -10 9 -16 -4 -25 -61z"/>
<path d="M9195 6730 c-4 -6 5 -10 20 -10 15 0 24 4 20 10 -3 6 -12 10 -20 10
-8 0 -17 -4 -20 -10z"/>
<path d="M12064 6649 c-8 -14 14 -29 44 -29 27 0 29 16 3 30 -25 13 -38 13
-47 -1z"/>
<path d="M10720 6586 c-28 -12 -48 -81 -32 -107 7 -11 10 -30 6 -43 -8 -32 48
-81 76 -66 10 6 30 10 43 10 29 0 43 14 52 53 4 15 14 27 22 27 23 0 38 22 41
62 5 56 -20 72 -113 73 -41 0 -84 -4 -95 -9z"/>
<path d="M8546 6531 c-12 -13 -14 -21 -6 -26 12 -8 60 20 60 35 0 17 -36 11
-54 -9z"/>
<path d="M0 5111 c0 -11 6 -24 13 -28 7 -4 20 -20 30 -35 33 -53 134 -27 113
28 -7 18 -57 39 -113 49 -39 6 -43 5 -43 -14z"/>
<path d="M864 5104 c-9 -16 -28 -46 -41 -68 -14 -21 -21 -42 -16 -47 4 -4 28
-9 53 -11 l45 -3 -3 70 c-4 83 -14 97 -38 59z"/>
<path d="M11754 4882 c4 -7 2 -12 -3 -12 -6 0 -11 -7 -11 -15 0 -8 7 -15 15
-15 18 0 20 36 3 46 -7 4 -8 3 -4 -4z"/>
<path d="M5990 4827 c0 -8 67 -148 80 -167 5 -8 19 -35 31 -60 21 -45 27 -58
109 -205 25 -44 51 -92 60 -107 8 -15 33 -60 54 -100 21 -40 47 -84 57 -97 11
-13 19 -31 19 -40 0 -10 4 -21 9 -26 9 -11 91 -163 91 -170 0 -3 -9 -5 -20 -5
-18 0 -18 -2 -6 -32 17 -40 35 -48 28 -13 -3 20 -1 24 11 19 22 -8 40 -59 33
-91 -6 -23 -5 -25 8 -14 13 11 17 10 22 -5 4 -11 9 -22 11 -26 2 -4 -3 -5 -12
-1 -13 4 -16 1 -13 -13 2 -10 10 -19 18 -19 8 0 21 -4 29 -9 10 -7 10 -10 1
-16 -8 -5 -10 -15 -5 -26 7 -18 8 -18 15 1 7 18 8 19 15 3 4 -10 13 -18 21
-18 21 0 17 44 -5 64 -11 10 -23 36 -26 58 -11 62 -17 74 -184 355 -35 60 -71
119 -80 133 -8 14 -21 34 -26 45 -69 127 -102 186 -122 217 -12 21 -23 40 -23
44 0 3 -19 36 -43 72 -24 37 -58 95 -77 130 -18 34 -37 62 -41 62 -5 0 -9 6
-9 13 -1 12 -30 56 -30 44z"/>
<path d="M8214 4669 c-42 -12 -63 -38 -80 -100 -27 -103 -19 -136 49 -206 l40
-42 -12 -58 c-19 -89 -21 -93 -42 -93 -22 0 -25 36 -10 102 11 47 -6 66 -47
52 -30 -11 -50 -61 -51 -131 -1 -57 31 -83 105 -83 79 0 106 27 133 135 25 98
23 103 -46 178 -44 47 -45 50 -38 95 9 60 21 82 45 82 22 0 24 -8 10 -65 -11
-47 0 -65 40 -65 23 0 30 6 39 33 15 50 23 114 17 135 -12 37 -82 52 -152 31z"/>
<path d="M9930 4666 c-19 -7 -42 -16 -51 -20 -10 -5 -19 -1 -22 8 -5 13 -26
16 -116 16 -102 0 -110 -1 -116 -20 -8 -25 10 -50 36 -50 23 0 24 -14 5 -100
-61 -276 -77 -362 -72 -375 7 -18 60 -20 73 -2 6 6 25 84 43 172 18 88 40 192
49 230 l16 70 38 3 c20 2 37 0 37 -5 -1 -10 -8 -43 -49 -232 -17 -79 -31 -158
-31 -176 0 -84 133 -111 199 -41 26 27 33 50 66 220 15 72 33 157 40 189 17
72 8 100 -36 116 -41 14 -65 13 -109 -3z m42 -178 c-42 -205 -63 -302 -68
-310 -8 -13 -34 -9 -40 7 -3 8 11 99 32 202 27 133 44 193 57 206 37 37 42 6
19 -105z"/>
<path d="M10560 4662 c-43 -21 -71 -75 -73 -140 l-2 -47 35 0 c34 0 35 1 53
63 16 54 22 63 41 60 17 -2 20 -9 18 -33 -6 -68 -32 -112 -103 -175 -75 -67
-95 -97 -115 -175 -29 -106 -22 -115 98 -115 86 0 118 12 118 44 0 21 -6 26
-35 32 -19 3 -42 3 -51 0 -28 -11 -43 11 -34 50 10 42 17 52 100 134 36 36 74
82 83 102 23 49 41 141 33 171 -11 46 -100 62 -166 29z"/>
<path d="M8415 4648 c-2 -13 -16 -70 -29 -128 -44 -187 -79 -378 -73 -394 8
-19 60 -21 74 -3 6 6 18 50 27 97 10 47 31 148 47 225 17 77 33 159 36 183 l6
42 -42 0 c-34 0 -41 -4 -46 -22z"/>
<path d="M8546 4662 c-4 -7 -102 -465 -108 -507 -4 -30 10 -45 42 -45 19 0 30
6 33 18 23 86 32 112 39 112 4 0 8 -28 10 -62 3 -63 3 -63 34 -66 27 -3 34 2
48 29 9 18 16 37 16 43 0 6 8 20 16 31 15 19 15 16 12 -40 -3 -59 -3 -60 25
-63 39 -5 54 11 62 66 3 26 11 63 16 82 26 99 80 383 75 396 -4 9 -20 14 -51
14 -45 0 -46 -1 -66 -47 -27 -63 -60 -152 -66 -180 -6 -25 -29 -48 -36 -36 -2
4 -1 60 2 123 4 63 5 121 3 128 -5 13 -97 17 -106 4z"/>
<path d="M8913 4658 c-4 -7 -15 -49 -24 -93 -10 -44 -32 -150 -50 -236 -32
-151 -32 -157 -16 -183 24 -36 60 -48 116 -40 83 13 103 51 144 274 3 14 17
81 32 149 17 78 23 127 17 133 -5 5 -25 8 -43 6 -33 -3 -34 -3 -52 -88 -65
-298 -88 -395 -97 -404 -7 -7 -15 -5 -25 4 -12 13 -8 44 34 245 27 127 47 233
44 238 -7 12 -71 8 -80 -5z"/>
<path d="M9181 4652 c-8 -15 -18 -58 -41 -177 -4 -22 -19 -92 -34 -157 -15
-64 -28 -136 -29 -160 l-2 -43 137 -3 137 -3 20 46 c16 36 25 45 45 45 24 0
52 -31 40 -43 -3 -3 -3 -15 1 -27 5 -17 13 -21 43 -18 34 3 37 6 43 44 11 61
31 493 24 504 -9 14 -81 12 -92 -2 -6 -7 -25 -53 -42 -103 -18 -49 -36 -99
-41 -110 -5 -11 -29 -75 -55 -142 -26 -67 -53 -124 -62 -127 -22 -9 -76 -7
-91 3 -15 9 -18 -12 47 301 40 188 40 190 -4 190 -22 0 -38 -6 -44 -18z m282
-324 c-6 -57 -15 -74 -32 -64 -15 10 -14 29 5 76 22 55 34 50 27 -12z"/>
<path d="M10137 4662 c-4 -5 -20 -76 -37 -158 -17 -82 -41 -198 -54 -259 -13
-60 -22 -115 -19 -122 3 -7 20 -13 38 -13 38 0 40 2 65 122 19 93 25 108 42
108 6 0 9 -37 7 -105 -4 -117 1 -128 52 -123 l34 3 3 125 c2 115 4 127 26 150
26 28 38 62 57 163 12 65 12 68 -9 90 -19 19 -36 23 -111 25 -49 2 -91 0 -94
-6z m123 -93 c0 -38 -20 -120 -33 -136 -5 -7 -19 -13 -30 -13 -18 0 -19 5 -14
53 11 93 25 127 52 127 21 0 25 -5 25 -31z"/>
<path d="M5806 4552 c-15 -18 -14 -21 17 -63 19 -24 77 -105 129 -179 52 -74
143 -202 203 -285 59 -82 119 -172 134 -199 14 -27 38 -63 52 -80 14 -17 50
-69 79 -116 29 -47 63 -96 75 -110 12 -14 34 -47 49 -75 37 -67 88 -134 104
-135 20 0 14 30 -14 64 -22 26 -123 184 -357 556 -26 41 -86 136 -134 210 -47
74 -91 144 -97 155 -48 87 -193 275 -210 275 -7 0 -20 -8 -30 -18z"/>
<path d="M6151 4384 c0 -11 3 -14 6 -6 3 7 2 16 -1 19 -3 4 -6 -2 -5 -13z"/>
<path d="M10348 4370 c-26 -26 -26 -31 -26 -144 0 -89 3 -116 13 -116 14 0 25
30 25 73 0 15 4 35 9 45 12 24 31 86 31 101 0 7 -6 11 -15 8 -20 -8 -30 11
-15 28 23 28 5 32 -22 5z"/>
<path d="M9263 4358 c-14 -18 -35 -107 -28 -119 4 -5 10 -9 14 -9 9 0 51 104
51 126 0 17 -24 18 -37 2z"/>
<path d="M10581 4256 c-8 -9 -11 -19 -7 -23 9 -9 29 13 24 27 -2 8 -8 7 -17
-4z"/>
<path d="M5082 4169 c2 -7 10 -15 17 -17 8 -3 12 1 9 9 -2 7 -10 15 -17 17 -8
3 -12 -1 -9 -9z"/>
<path d="M9720 4095 c0 -8 5 -15 10 -15 6 0 10 7 10 15 0 8 -4 15 -10 15 -5 0
-10 -7 -10 -15z"/>
<path d="M9395 4089 c-10 -15 3 -25 16 -12 7 7 7 13 1 17 -6 3 -14 1 -17 -5z"/>
<path d="M6388 3984 c-7 -7 24 -64 35 -64 4 0 0 15 -9 33 -20 39 -19 38 -26
31z"/>
<path d="M6436 3887 c3 -10 9 -15 12 -12 3 3 0 11 -7 18 -10 9 -11 8 -5 -6z"/>
<path d="M6880 3470 c0 -5 5 -10 11 -10 5 0 7 5 4 10 -3 6 -8 10 -11 10 -2 0
-4 -4 -4 -10z"/>
<path d="M5520 3226 c0 -15 37 -32 47 -22 9 8 -17 36 -33 36 -8 0 -14 -6 -14
-14z"/>
<path d="M6803 3175 c18 -34 19 -58 2 -51 -25 9 -30 -23 -8 -52 27 -38 60
-111 93 -209 15 -47 33 -90 38 -95 7 -7 25 -2 56 16 24 14 48 26 53 26 5 0 15
-16 22 -36 12 -32 11 -38 -2 -46 -14 -7 -14 -12 -1 -36 7 -15 14 -34 14 -43 0
-21 36 -53 50 -44 6 4 19 0 28 -9 18 -15 62 -12 62 5 0 5 7 9 15 9 22 0 18
-18 -10 -52 -14 -17 -25 -42 -25 -59 0 -16 -10 -43 -22 -60 -19 -25 -20 -33
-10 -49 24 -39 8 -80 -30 -80 -20 0 -58 -19 -71 -35 -4 -5 -5 -35 -2 -66 5
-48 3 -58 -15 -74 -12 -11 -20 -28 -18 -41 3 -20 -26 -64 -42 -64 -3 0 -6 22
-6 49 1 40 5 51 19 55 14 3 18 12 15 38 -3 38 -31 46 -36 11 -2 -16 -10 -23
-25 -23 -16 0 -18 3 -9 12 7 7 12 22 12 34 0 12 7 24 15 28 8 3 15 10 15 16 0
13 -47 13 -55 0 -4 -6 -27 -20 -51 -32 -53 -25 -63 -40 -62 -99 0 -58 4 -62
39 -44 22 12 29 23 29 44 0 20 6 30 20 34 26 7 27 -26 2 -51 -40 -40 -35 -69
13 -78 40 -7 45 -12 45 -39 0 -31 -16 -41 -23 -14 -4 15 -12 20 -29 17 -31 -4
-30 -39 1 -54 13 -7 30 -26 37 -42 11 -26 18 -30 59 -34 26 -2 49 0 51 4 3 5
20 8 39 8 18 0 35 5 37 11 2 7 31 13 63 15 33 2 86 6 117 8 64 5 83 -7 76 -48
-7 -34 8 -55 81 -120 36 -31 75 -71 87 -89 13 -18 27 -36 31 -42 4 -5 13 -23
18 -40 6 -16 20 -34 33 -40 12 -5 22 -17 22 -26 0 -25 12 -30 32 -12 21 19 24
35 5 27 -8 -3 -13 4 -14 18 -1 12 -13 32 -28 45 -14 13 -25 32 -25 43 0 12
-15 27 -41 41 -31 18 -40 29 -38 49 0 14 1 30 0 36 -1 13 -73 54 -95 54 -30 0
-16 30 21 47 43 21 52 43 27 68 -15 14 -15 20 -5 37 11 17 9 23 -8 42 -23 24
-31 60 -9 38 7 -7 22 -12 35 -12 13 0 26 -6 29 -14 9 -22 9 -79 1 -112 -8 -32
-3 -41 87 -136 29 -29 48 -41 67 -40 42 1 66 18 72 52 5 20 15 34 32 40 14 5
25 12 25 14 0 3 -13 20 -30 38 -37 40 -41 74 -7 64 42 -13 52 -11 55 12 3 17
-2 25 -17 29 -18 5 -20 11 -15 38 4 23 2 36 -8 41 -8 5 -17 17 -21 27 -3 9
-15 17 -26 17 -11 0 -24 6 -28 14 -4 7 -19 19 -31 25 -18 10 -22 18 -17 34 6
20 10 51 19 141 3 35 16 42 46 26 20 -11 20 -12 3 -40 -13 -22 -14 -34 -6 -52
6 -14 7 -32 1 -47 -13 -35 -6 -45 32 -47 37 -2 51 10 75 64 10 24 20 32 40 32
23 0 25 -4 23 -34 -3 -48 16 -66 66 -64 55 1 81 15 66 34 -13 15 -7 44 9 44 5
0 16 -7 25 -15 12 -12 15 -34 12 -98 -1 -45 -4 -86 -6 -92 -2 -5 2 -28 8 -50
18 -60 15 -69 -27 -86 -31 -13 -40 -23 -43 -45 -2 -21 -10 -30 -28 -34 -36 -8
-39 -46 -6 -62 14 -6 26 -15 26 -19 0 -11 94 -59 114 -59 8 0 28 -14 45 -31
60 -59 101 -16 51 53 -18 25 -19 30 -5 69 23 65 20 121 -10 149 -30 28 -32 50
-6 50 29 0 62 -47 59 -86 -1 -18 3 -38 9 -46 12 -15 12 -177 0 -196 -17 -26 4
-50 61 -71 74 -27 210 -63 222 -59 8 3 -29 44 -94 105 -10 10 -33 25 -50 33
-41 20 -40 44 1 48 22 2 38 -3 52 -17 11 -11 37 -23 58 -27 44 -8 48 -13 68
-78 10 -33 12 -54 5 -66 -13 -25 -6 -40 37 -72 30 -24 42 -27 76 -21 30 4 38
3 32 -6 -8 -13 12 -35 57 -65 24 -16 29 -16 57 -1 17 8 31 19 31 24 0 11 -34
41 -48 41 -6 0 -23 5 -38 10 l-27 11 21 15 c12 8 37 14 55 12 26 -2 33 -8 35
-30 2 -16 11 -30 23 -33 10 -4 19 -14 19 -23 0 -20 36 -46 51 -37 5 4 7 26 3
54 -5 36 -2 50 10 60 32 27 49 -16 21 -53 -8 -11 -15 -25 -15 -30 0 -18 67
-58 92 -55 13 2 28 1 33 -3 6 -3 24 -9 41 -12 25 -6 38 -2 60 17 16 13 37 27
47 30 24 9 11 30 -14 22 -14 -5 -19 -1 -19 14 0 23 34 45 56 37 14 -5 31 35
21 51 -3 4 11 24 30 43 27 27 33 41 29 61 -5 25 8 49 26 49 4 0 8 -15 8 -34 0
-27 7 -39 30 -56 28 -20 31 -20 60 -5 16 8 30 17 30 20 0 19 -46 75 -61 75
-10 0 -19 7 -19 15 0 8 -4 15 -10 15 -5 0 -10 13 -10 30 0 18 -10 39 -26 55
-26 27 -42 27 -92 3 -20 -10 -26 -7 -59 30 -20 23 -43 42 -51 42 -7 0 -11 6
-8 13 3 6 9 20 12 29 3 10 15 20 25 23 18 6 18 8 3 37 -9 17 -14 41 -11 55 4
19 1 23 -16 21 -11 -2 -22 3 -25 11 -3 10 2 12 21 7 22 -5 29 -1 43 25 15 30
15 34 -6 80 -20 42 -31 52 -87 78 -35 17 -66 38 -70 46 -7 19 -74 55 -101 55
-10 0 -27 9 -37 20 -23 25 -32 25 -40 0 -5 -15 -12 -18 -33 -14 -21 4 -29 1
-37 -17 -5 -13 -15 -24 -21 -26 -15 -5 -54 58 -54 86 0 18 6 21 44 21 48 0 64
11 42 29 -15 12 -61 6 -83 -11 -8 -7 -17 0 -28 22 -13 26 -21 31 -41 27 -15
-2 -30 3 -40 14 -22 24 -36 24 -59 -1 -24 -26 -59 -27 -50 -2 7 23 -31 74 -54
71 -30 -3 -41 1 -41 15 0 18 -25 28 -54 20 -17 -4 -27 1 -39 19 -9 14 -31 28
-49 32 -18 4 -41 15 -51 23 -13 11 -39 17 -80 17 -71 1 -107 17 -107 47 0 17
-4 19 -27 13 -55 -16 -128 -11 -158 10 -47 31 -95 45 -157 45 -58 0 -66 4
-103 53 -11 15 -27 27 -37 27 -9 0 -21 8 -27 17 -8 15 -27 18 -113 19 -57 2
-108 -2 -115 -8 -8 -6 -10 -22 -6 -41 l6 -31 -31 24 c-17 14 -31 31 -31 38 -1
7 -21 34 -45 59 -45 46 -45 46 -100 40 -37 -4 -56 -2 -59 6 -3 7 -21 21 -41
31 -35 19 -39 19 -66 3 -36 -22 -36 -22 -35 10 0 22 -8 32 -38 48 -42 22 -62
48 -53 70 3 8 1 28 -4 44 -5 18 -5 33 1 36 18 12 9 25 -15 23 -21 -2 -23 -5
-13 -23z m390 -292 c-15 -6 -17 -47 -3 -73 7 -13 6 -21 -5 -30 -18 -15 -35 -5
-35 21 0 12 -10 23 -25 29 -14 5 -25 11 -25 14 0 2 -3 11 -6 20 -4 12 4 16 43
19 26 2 53 4 58 4 6 1 4 -1 -2 -4z m154 -158 c35 -22 51 -49 65 -110 15 -67
14 -70 -9 -73 -13 -2 -23 -9 -24 -15 -3 -31 4 -64 17 -85 17 -26 11 -42 -16
-42 -31 0 -57 58 -55 125 3 65 -7 95 -30 95 -18 0 -19 4 -2 31 10 18 9 23 -10
36 -13 9 -23 22 -23 30 0 7 10 18 23 23 25 10 22 11 64 -15z m-157 -74 c0 -5
-7 -17 -16 -26 -14 -13 -19 -14 -25 -3 -13 19 -11 26 9 31 28 8 32 7 32 -2z
m338 -22 c-2 -6 -8 -10 -13 -10 -5 0 -11 4 -13 10 -2 6 4 11 13 11 9 0 15 -5
13 -11z m588 -74 c-5 -14 -9 -15 -21 -5 -12 10 -13 16 -4 27 15 18 34 1 25
-22z m-516 -13 c0 -26 7 -45 20 -57 15 -14 17 -21 9 -32 -6 -7 -15 -13 -19
-13 -9 0 -23 44 -25 80 -1 14 -5 33 -9 43 -6 12 -4 17 8 17 12 0 16 -10 16
-38z m-75 -15 c0 -26 -20 -25 -23 2 -3 16 1 22 10 19 7 -3 13 -12 13 -21z m3
-87 c6 -22 12 -49 12 -59 0 -11 7 -24 15 -29 13 -7 14 -16 4 -60 -7 -33 -16
-52 -25 -52 -23 0 -17 -44 8 -55 30 -13 35 -41 9 -50 -24 -7 -27 -26 -9 -55
10 -16 10 -22 -1 -32 -11 -11 -14 -11 -18 0 -3 7 -16 26 -29 41 -21 25 -22 30
-9 41 21 18 19 35 -7 52 -18 12 -20 18 -11 29 7 8 11 50 10 106 -1 61 3 96 12
107 7 8 10 20 6 26 -7 11 2 30 13 30 4 0 13 -18 20 -40z m-280 -37 c2 -11 -4
-26 -13 -33 -14 -11 -19 -10 -37 7 -29 30 -17 64 20 54 16 -4 28 -15 30 -28z
m390 -43 c2 -14 8 -31 14 -37 13 -16 3 -43 -15 -43 -8 0 -19 10 -25 23 -7 12
-17 29 -24 39 -9 13 -9 20 2 33 19 22 44 15 48 -15z m-328 -30 c0 -5 -7 -10
-16 -10 -8 0 -12 5 -9 10 3 6 10 10 16 10 5 0 9 -4 9 -10z m-90 -34 c0 -26
-24 -51 -39 -42 -11 7 -5 32 12 54 15 19 27 14 27 -12z m110 -55 c0 -6 -4 -13
-10 -16 -5 -3 -10 1 -10 9 0 9 5 16 10 16 6 0 10 -4 10 -9z m-130 -66 c7 -8
23 -15 36 -15 17 0 28 -8 35 -26 13 -35 6 -40 -19 -14 -10 11 -32 23 -48 26
-34 6 -49 18 -40 33 10 15 21 14 36 -4z m155 -9 c16 -12 17 -16 6 -30 -28 -34
-69 -12 -49 27 11 21 18 21 43 3z m-140 -92 c9 -9 13 -24 10 -35 -5 -14 -1
-19 14 -19 18 0 21 -6 21 -38 0 -34 -4 -40 -35 -55 -40 -19 -50 -10 -34 30 8
21 7 38 -2 65 -10 32 -8 68 5 68 3 0 12 -7 21 -16z m1940 -74 c3 -5 1 -10 -4
-10 -6 0 -11 5 -11 10 0 6 2 10 4 10 3 0 8 -4 11 -10z m-65 -100 c29 -29 36
-67 15 -90 -10 -11 -14 -26 -11 -38 4 -11 2 -31 -3 -44 -7 -18 -5 -33 4 -52
10 -19 11 -34 5 -52 -16 -41 -12 -54 19 -65 32 -11 61 -60 61 -102 0 -54 -52
-43 -75 16 -9 23 -28 54 -42 69 l-26 28 19 35 c16 30 17 40 7 66 -7 18 -10 35
-8 39 2 4 6 41 9 82 4 66 2 78 -15 94 -10 9 -19 21 -19 26 0 16 40 8 60 -12z
m-230 -5 c0 -8 -7 -15 -15 -15 -8 0 -15 7 -15 15 0 8 7 15 15 15 8 0 15 -7 15
-15z m123 -14 c-3 -12 2 -20 16 -24 25 -6 28 -25 5 -34 -20 -8 -32 6 -40 45
-5 25 -3 32 9 32 10 0 13 -6 10 -19z m-395 -201 c26 -35 27 -40 6 -40 -21 0
-66 48 -59 61 11 17 31 9 53 -21z m752 1 c0 -6 -4 -13 -10 -16 -5 -3 -10 1
-10 9 0 9 5 16 10 16 6 0 10 -4 10 -9z m-180 -327 c0 -8 -4 -12 -10 -9 -5 3
-10 13 -10 21 0 8 5 12 10 9 6 -3 10 -13 10 -21z"/>
<path d="M6764 3159 c-3 -6 -1 -16 5 -22 8 -8 11 -5 11 11 0 24 -5 28 -16 11z"/>
<path d="M6314 2785 c-10 -42 -30 -50 -69 -29 -19 10 -38 15 -42 10 -8 -7 34
-45 51 -46 6 0 19 -9 31 -20 30 -29 51 -8 60 58 6 44 4 52 -9 52 -9 0 -18 -11
-22 -25z"/>
<path d="M6936 2702 c-11 -10 -6 -57 9 -86 12 -22 12 -32 4 -42 -9 -12 -4 -14
30 -14 45 0 48 5 26 37 -10 14 -12 24 -5 28 5 3 10 23 10 45 0 37 -1 38 -34
38 -19 0 -37 -3 -40 -6z"/>
<path d="M6471 2646 c-8 -9 -10 -23 -6 -33 6 -16 8 -15 16 6 13 32 7 47 -10
27z"/>
<path d="M6233 2602 c-13 -8 -36 -62 -29 -69 2 -2 14 12 26 32 23 37 24 50 3
37z"/>
<path d="M7060 2569 c-10 -18 -9 -20 7 -17 10 2 19 11 21 21 5 24 -15 21 -28
-4z"/>
<path d="M6404 2525 c-7 -17 2 -45 13 -45 19 1 45 30 40 45 -8 19 -46 20 -53
0z"/>
<path d="M7020 2521 c0 -26 10 -51 21 -51 5 0 9 16 9 35 0 24 -5 35 -15 35 -8
0 -15 -9 -15 -19z"/>
<path d="M7103 2509 c-26 -10 -30 -31 -9 -48 11 -9 20 -10 35 -1 40 21 16 65
-26 49z"/>
<path d="M6037 2465 c3 -9 14 -15 26 -13 32 5 30 23 -3 26 -23 2 -28 -1 -23
-13z"/>
<path d="M7032 2448 c-18 -18 -15 -33 13 -59 14 -14 25 -35 25 -51 0 -31 3
-33 31 -18 29 16 24 47 -11 65 -18 9 -32 27 -37 46 -7 24 -11 27 -21 17z"/>
<path d="M6352 2428 c-19 -19 -14 -30 11 -26 12 2 22 9 22 17 0 19 -18 24 -33
9z"/>
<path d="M6950 2410 c0 -5 5 -10 10 -10 6 0 10 5 10 10 0 6 -4 10 -10 10 -5 0
-10 -4 -10 -10z"/>
<path d="M6530 2361 c12 -23 95 -81 116 -81 8 0 14 10 14 24 0 20 -11 30 -54
50 -68 32 -91 34 -76 7z"/>
<path d="M6881 2337 c-13 -16 -5 -27 21 -27 11 0 18 7 18 20 0 23 -22 27 -39
7z"/>
<path d="M6316 2256 c7 -19 38 -22 32 -3 -3 6 -12 13 -21 15 -12 2 -15 -1 -11
-12z"/>
<path d="M6702 2248 c7 -19 38 -22 38 -4 0 10 -9 16 -21 16 -12 0 -19 -5 -17
-12z"/>
<path d="M7884 2136 c-8 -21 3 -36 27 -36 15 0 20 6 17 22 -4 27 -35 37 -44
14z"/>
<path d="M8025 2099 c-4 -6 -5 -12 -2 -15 2 -3 7 2 10 11 7 17 1 20 -8 4z"/>
<path d="M7918 2063 c-13 -3 -18 -15 -19 -41 0 -20 -2 -61 -4 -90 -3 -49 -2
-54 22 -63 36 -14 53 -4 53 28 -1 16 2 61 6 101 7 71 6 72 -17 71 -13 -1 -32
-3 -41 -6z"/>
<path d="M9276 1933 c-3 -3 -3 -10 0 -14 7 -12 34 -11 34 0 0 11 -26 22 -34
14z"/>
<path d="M9310 1805 c0 -18 24 -30 40 -20 8 5 8 11 -1 21 -15 19 -39 18 -39
-1z"/>
<path d="M7857 1773 c-20 -20 -4 -33 39 -33 38 0 45 3 40 16 -3 9 -6 18 -6 20
0 7 -66 5 -73 -3z"/>
<path d="M9486 1773 c-10 -11 -7 -20 20 -46 14 -14 24 -31 23 -39 -3 -18 19
-68 30 -68 5 0 23 -24 40 -54 l30 -54 76 -7 c41 -4 89 -5 105 -2 20 4 42 -1
72 -17 36 -20 55 -24 118 -22 94 3 110 -4 110 -49 0 -29 -4 -35 -22 -35 -12 0
-32 9 -44 21 -17 16 -37 21 -95 23 -41 2 -81 6 -89 9 -99 34 -138 34 -150 2
-7 -19 -15 -24 -32 -21 -73 15 -88 15 -88 2 0 -14 82 -32 99 -22 5 3 25 -1 44
-9 55 -23 150 -24 174 -2 26 22 53 22 53 -1 0 -22 30 -52 51 -52 8 0 24 -7 36
-15 12 -8 28 -13 36 -10 7 3 32 2 55 -3 29 -7 46 -6 59 3 17 11 41 18 121 32
34 5 55 23 27 23 -23 0 -36 41 -19 61 19 22 3 34 -56 44 -58 9 -73 21 -59 46
8 16 3 22 -38 41 -58 28 -63 34 -63 77 0 28 -3 33 -20 28 -10 -3 -24 1 -31 9
-6 8 -19 14 -28 14 -9 0 -27 7 -39 16 -24 16 -73 16 -79 -1 -2 -6 10 -19 27
-28 44 -26 38 -43 -16 -50 -56 -6 -87 1 -80 19 3 7 1 16 -4 19 -6 4 -10 0 -10
-8 0 -8 -7 -18 -16 -21 -23 -9 -24 -8 -24 14 0 11 -4 20 -9 20 -23 0 -41 -14
-41 -31 0 -10 -4 -19 -10 -19 -5 0 -10 6 -10 13 0 7 -16 28 -35 47 -19 19 -35
42 -35 52 0 10 -10 24 -23 32 -23 15 -130 29 -141 19z m328 -209 c9 -3 16 -10
16 -15 0 -14 -24 -11 -46 6 -16 12 -17 14 -2 15 9 0 23 -3 32 -6z"/>
<path d="M7760 1711 c0 -6 4 -12 9 -15 13 -8 42 4 35 15 -7 12 -44 12 -44 0z"/>
<path d="M7930 1658 c0 -21 14 -36 43 -47 24 -9 27 -8 27 9 0 19 -35 50 -57
50 -7 0 -13 -6 -13 -12z"/>
<path d="M6896 1611 c-3 -5 1 -16 10 -25 12 -12 20 -14 35 -5 11 6 18 16 16
22 -5 15 -53 22 -61 8z"/>
<path d="M7745 1579 c-4 -6 2 -20 13 -32 11 -12 25 -32 31 -44 12 -24 36 -22
46 4 3 11 -6 29 -27 50 -33 34 -52 41 -63 22z"/>
<path d="M8080 1570 c-12 -8 -9 -10 13 -10 16 0 26 4 22 10 -8 12 -16 12 -35
0z"/>
<path d="M7872 1543 c2 -10 10 -18 18 -18 22 0 18 29 -3 33 -14 3 -18 -1 -15
-15z"/>
<path d="M6885 1540 c3 -5 10 -10 16 -10 5 0 9 5 9 10 0 6 -7 10 -16 10 -8 0
-12 -4 -9 -10z"/>
<path d="M7040 1528 c0 -16 19 -38 33 -38 4 0 7 10 5 22 -3 25 -38 39 -38 16z"/>
<path d="M8005 1530 c3 -5 10 -10 16 -10 5 0 9 5 9 10 0 6 -7 10 -16 10 -8 0
-12 -4 -9 -10z"/>
<path d="M8108 1515 c-5 -25 4 -37 54 -68 21 -13 33 -15 53 -7 25 9 35 30 15
30 -6 0 -21 10 -34 23 -26 25 -61 47 -75 47 -5 0 -11 -11 -13 -25z"/>
<path d="M11128 1462 c-20 -15 -43 -39 -52 -54 -20 -32 -77 -51 -125 -42 -33
7 -99 -15 -134 -45 -17 -14 -18 -14 -12 10 4 17 1 30 -9 38 -9 8 -16 20 -16
27 0 24 -25 15 -48 -16 -12 -16 -22 -34 -22 -39 0 -13 -35 -32 -44 -24 -3 3
-6 17 -6 30 0 21 -28 35 -31 16 -7 -55 -3 -68 20 -65 13 1 29 -2 35 -7 6 -5
26 -12 44 -16 39 -8 51 -29 29 -53 -8 -9 -23 -43 -32 -74 -9 -32 -19 -59 -23
-62 -12 -7 -46 11 -74 39 -27 27 -27 27 -57 9 -27 -16 -35 -17 -68 -4 -54 19
-103 29 -103 21 0 -10 44 -51 55 -51 4 0 22 -10 39 -23 17 -13 53 -34 79 -46
26 -13 74 -42 105 -66 31 -23 69 -45 85 -49 15 -3 27 -11 27 -17 0 -6 5 -7 10
-4 20 12 281 -82 301 -107 3 -5 36 -19 75 -32 90 -30 162 -63 199 -91 32 -24
117 -65 135 -65 6 0 9 -4 5 -9 -6 -11 2 -18 61 -60 28 -20 43 -39 47 -60 6
-26 17 -35 92 -71 93 -45 118 -67 67 -57 -24 5 -32 3 -32 -8 0 -8 4 -15 9 -15
5 0 11 -7 15 -15 3 -8 2 -15 -2 -15 -17 0 -135 84 -170 120 -20 21 -77 60
-125 87 -157 86 -242 133 -265 145 -18 9 -24 8 -35 -6 -10 -14 -22 -15 -87 -9
-41 5 -104 5 -140 1 -36 -5 -84 -6 -107 -3 -24 3 -105 10 -180 15 -286 20
-403 29 -435 34 -18 3 -141 8 -273 11 -132 2 -255 7 -272 11 -32 6 -48 -9 -20
-19 22 -8 2 -16 -51 -19 -36 -3 -52 0 -52 8 0 7 6 15 13 17 25 11 -51 7 -82
-4 -26 -9 -31 -16 -31 -44 0 -19 6 -38 14 -42 8 -4 15 -17 18 -28 4 -22 36
-32 110 -34 59 -1 78 -9 78 -31 0 -31 -43 -51 -94 -44 -30 4 -46 3 -46 -4 0
-6 6 -13 13 -16 20 -8 -21 -35 -45 -28 -14 3 -19 1 -14 -6 4 -6 21 -11 39 -11
40 1 69 -6 98 -22 13 -6 46 -11 74 -10 27 1 84 -3 125 -9 41 -6 131 -13 200
-15 124 -5 125 -6 148 -35 21 -27 25 -29 45 -15 30 19 193 23 226 6 12 -7 33
-10 44 -7 33 8 67 -4 67 -24 0 -10 6 -20 13 -23 6 -2 -9 -3 -35 -2 -28 1 -53
9 -63 19 -10 9 -25 15 -34 12 -108 -31 -193 -43 -336 -47 -22 -1 -47 -5 -55
-9 -9 -5 -37 -4 -63 2 -38 8 -51 7 -69 -6 -25 -18 -64 -21 -73 -6 -9 14 -74
12 -128 -4 -26 -8 -47 -12 -47 -10 0 3 -10 -2 -22 -10 -24 -16 -88 -19 -88 -5
0 5 -26 8 -57 7 -32 -1 -50 -4 -40 -6 20 -4 22 -13 5 -30 -17 -17 -28 -15 -28
4 0 8 -4 12 -10 9 -5 -3 -7 -25 -4 -48 3 -23 6 -55 7 -72 l2 -30 1683 -3 1682
-2 0 104 c0 74 -4 106 -12 109 -10 4 -10 6 0 6 8 1 12 20 12 60 0 58 -1 60
-31 66 -36 8 -48 31 -27 52 12 12 20 13 37 4 19 -11 21 -9 21 14 0 15 -6 25
-14 25 -25 0 -27 16 -6 43 18 23 20 41 20 212 l0 188 -91 -8 c-57 -4 -89 -3
-85 3 3 5 16 7 30 5 17 -4 26 0 30 14 9 31 9 104 0 176 -4 32 -2 47 6 47 6 0
9 4 6 9 -3 4 -18 6 -32 3 -26 -5 -27 -4 -19 34 4 21 11 44 17 51 12 15 -17 32
-62 35 -29 3 -33 0 -36 -27 -2 -16 2 -35 8 -42 8 -10 5 -13 -11 -13 -14 0 -21
6 -21 20 0 11 -9 28 -20 37 -13 12 -20 30 -20 54 0 20 -6 42 -14 48 -10 9 -19
3 -41 -29 -15 -22 -35 -40 -44 -40 -22 0 -41 -19 -41 -42 0 -12 -8 -18 -24
-18 -16 0 -34 -12 -49 -31 -17 -21 -37 -34 -63 -39 -39 -8 -39 -8 -6 -9 17 0
32 -5 32 -11 0 -5 0 -13 0 -17 0 -4 -10 -8 -23 -8 -18 0 -22 -5 -20 -31 2 -21
-4 -37 -17 -49 -11 -10 -20 -27 -20 -38 0 -18 -2 -17 -20 6 -11 14 -20 33 -20
42 0 9 -10 19 -21 22 -21 6 -21 6 2 24 20 15 22 21 12 36 -6 10 -17 17 -24 15
-6 -2 -18 -1 -26 2 -12 5 -11 11 6 32 28 35 27 62 -3 73 -13 5 -26 17 -29 25
-9 24 -32 19 -51 -9 -21 -32 -68 -34 -88 -3 -9 14 -20 19 -31 15 -23 -9 -21
-28 3 -34 16 -4 20 -14 20 -44 0 -22 -5 -39 -11 -39 -5 0 -7 4 -4 10 10 16
-13 47 -40 54 -21 5 -25 12 -25 46 0 46 -5 49 -31 18 -24 -26 -24 -29 2 -62
23 -30 18 -46 -16 -46 -28 0 -43 -19 -24 -31 19 -11 4 -23 -18 -14 -10 5 -27
7 -38 6 -17 -2 -18 0 -5 9 11 9 12 13 3 17 -22 8 -14 19 15 18 37 0 35 25 -3
39 -38 14 -38 56 0 56 13 0 27 -4 30 -10 13 -21 25 -9 25 24 0 21 6 36 15 40
16 6 21 46 7 46 -5 0 -17 -9 -27 -20 -10 -11 -26 -20 -37 -20 -10 0 -18 -5
-18 -11 0 -14 -69 -42 -86 -35 -8 3 -14 9 -13 13 6 36 -2 43 -43 41 -24 -2
-48 -10 -54 -18 -10 -12 -17 -12 -53 4 -33 16 -45 17 -69 7 -23 -10 -41 -8
-97 7 -75 20 -82 28 -84 102 -1 30 -20 72 -32 69 -2 0 -20 -13 -41 -27z m110
-268 c22 -14 26 -39 6 -39 -40 0 -174 31 -171 39 2 6 18 19 37 28 30 15 36 16
69 2 20 -8 46 -22 59 -30z m126 10 c9 -3 16 -12 16 -20 0 -16 -38 -18 -60 -4
-13 9 -13 11 0 20 18 11 23 12 44 4z m-323 -69 c-42 -19 -51 -19 -51 0 0 11
11 15 43 15 l42 -1 -34 -14z m342 -58 c16 -18 35 -43 44 -57 19 -32 109 -68
127 -50 6 6 11 17 11 25 0 25 20 17 23 -9 5 -37 26 -51 59 -38 16 6 51 12 80
15 l52 4 -3 -36 c-1 -20 4 -42 11 -49 14 -14 18 -42 6 -42 -5 0 -39 9 -78 20
-38 11 -83 20 -98 20 -15 0 -68 11 -117 25 -49 14 -97 25 -106 25 -33 0 -93
35 -96 55 -2 11 -13 24 -26 30 -12 5 -21 17 -19 25 4 20 65 14 90 -8 14 -13
20 -13 30 -3 9 11 9 14 -1 18 -7 3 -26 16 -41 29 -16 13 -34 24 -39 24 -6 0
-14 5 -18 11 -5 8 6 9 37 4 32 -4 52 -15 72 -38z m152 13 c16 -16 25 -33 22
-37 -11 -10 -97 36 -97 53 0 25 45 15 75 -16z m192 -26 c-9 -9 -28 6 -21 18 4
6 10 6 17 -1 6 -6 8 -13 4 -17z m888 6 c-3 -5 -13 -10 -21 -10 -8 0 -14 5 -14
10 0 6 9 10 21 10 11 0 17 -4 14 -10z m-99 -57 c-11 -11 -19 6 -11 24 8 17 8
17 12 0 3 -10 2 -21 -1 -24z m-1306 -2 c0 -5 -12 -11 -27 -14 -16 -3 -40 -9
-56 -13 -22 -5 -26 -3 -22 8 4 9 15 13 29 11 13 -3 27 0 30 6 8 13 46 15 46 2z
m1400 0 c0 -5 -7 -14 -15 -21 -12 -10 -15 -10 -15 2 0 8 3 18 7 21 9 10 23 9
23 -2z m-490 -36 c0 -14 0 -28 1 -32 0 -5 -8 -10 -18 -12 -10 -1 -26 -10 -36
-19 -13 -12 -22 -13 -40 -5 -18 9 -32 5 -72 -18 -28 -16 -56 -29 -62 -29 -22
0 -14 40 13 67 19 19 32 24 53 20 17 -4 37 0 50 10 17 11 29 13 44 6 29 -13
47 -6 47 18 0 10 5 19 10 19 6 0 10 -11 10 -25z m-271 -71 c-6 -13 -16 -21
-21 -18 -10 6 -1 42 16 63 17 21 21 -15 5 -45z m565 4 c-7 -11 -32 -10 -39 2
-11 18 5 30 25 18 10 -7 16 -16 14 -20z m-114 -38 c0 -17 -37 -30 -84 -30 -25
0 -46 4 -46 10 0 12 21 17 118 29 6 0 12 -3 12 -9z m-260 -155 c0 -8 -7 -15
-15 -15 -16 0 -20 12 -8 23 11 12 23 8 23 -8z m-224 -106 c-9 -26 -16 -55 -16
-63 0 -16 -18 -31 -26 -23 -6 6 21 118 39 162 l12 30 3 -29 c2 -15 -4 -50 -12
-77z m114 81 c0 -5 -5 -10 -11 -10 -5 0 -7 5 -4 10 3 6 8 10 11 10 2 0 4 -4 4
-10z m207 -40 c0 -22 -4 -43 -8 -46 -5 -3 -9 -22 -10 -42 0 -44 -29 -124 -46
-130 -9 -2 -13 7 -13 26 0 41 38 186 50 190 6 2 8 8 4 13 -3 5 -2 14 1 19 13
21 22 8 22 -30z m-103 14 c3 -8 1 -24 -4 -34 -6 -10 -10 -29 -10 -43 0 -24
-41 -152 -53 -164 -19 -19 0 151 22 202 5 11 12 28 15 38 7 21 22 22 30 1z
m-2327 0 c-3 -3 -12 -4 -19 -1 -8 3 -5 6 6 6 11 1 17 -2 13 -5z m1850 -16 c-3
-8 -6 -5 -6 6 -1 11 2 17 5 13 3 -3 4 -12 1 -19z m358 -80 c-21 -84 -32 -108
-49 -108 -37 0 -21 107 25 170 33 44 44 17 24 -62z m345 78 c0 -11 -19 -15
-25 -6 -3 5 1 10 9 10 9 0 16 -2 16 -4z m-19 -46 c21 -12 25 -40 10 -68 -6 -9
-13 -34 -16 -54 -7 -43 -37 -84 -53 -74 -23 14 -5 136 19 136 5 0 7 11 3 24
-5 23 1 46 12 46 3 0 14 -5 25 -10z m-1070 -11 c38 -7 74 -18 80 -25 9 -12 0
-13 -52 -8 -123 10 -143 16 -122 37 8 9 12 9 94 -4z m1219 -57 c25 -20 18 -52
-11 -52 -16 0 -17 -3 -8 -24 15 -32 4 -73 -22 -81 -44 -14 -66 47 -33 93 8 12
12 27 9 32 -11 17 5 50 25 50 10 0 28 -8 40 -18z m170 -2 c0 -5 -4 -10 -10
-10 -5 0 -10 5 -10 10 0 6 5 10 10 10 6 0 10 -4 10 -10z m20 -64 c52 -15 62
-38 27 -61 -23 -15 -27 -14 -60 7 -19 13 -43 28 -53 34 -22 13 -11 34 19 34
12 0 42 -6 67 -14z m-510 -86 c0 -11 -7 -20 -15 -20 -17 0 -18 2 -9 24 9 23
24 20 24 -4z m466 6 c19 -20 18 -26 -5 -26 -32 0 -50 11 -44 26 7 18 30 18 49
0z m-354 -61 c-6 -14 -16 -25 -22 -25 -14 0 -12 57 3 63 21 8 31 -11 19 -38z
m-1562 -75 c0 -5 -4 -10 -10 -10 -5 0 -10 5 -10 10 0 6 5 10 10 10 6 0 10 -4
10 -10z m2080 -4 c0 -8 -4 -18 -10 -21 -5 -3 -10 3 -10 14 0 12 5 21 10 21 6
0 10 -6 10 -14z m-816 -21 c11 -8 38 -15 60 -16 44 0 128 -30 133 -46 6 -17
-23 -23 -58 -13 -20 6 -38 6 -50 -1 -21 -11 -43 -2 -96 38 -33 24 -44 53 -20
53 6 0 21 -7 31 -15z m624 -80 c14 -5 16 -34 3 -54 -8 -12 -15 -9 -41 12 -17
15 -36 27 -41 27 -5 0 -9 7 -9 15 0 13 8 15 38 10 20 -4 43 -8 50 -10z m-3028
-120 c0 -1 -9 -5 -20 -8 -12 -3 -20 0 -20 8 0 8 8 11 20 8 11 -3 20 -7 20 -8z"/>
<path d="M9387 1473 c-14 -4 -17 -11 -13 -26 3 -12 6 -28 6 -34 0 -7 11 -20
25 -29 34 -22 53 -6 50 42 -3 47 -21 59 -68 47z"/>
<path d="M7760 1456 c0 -11 9 -16 26 -16 31 0 28 23 -4 28 -15 2 -22 -2 -22
-12z"/>
<path d="M6932 1428 c-7 -7 -24 -12 -40 -13 -20 0 -28 -6 -30 -22 -4 -30 30
-31 50 -2 12 18 17 20 35 10 29 -15 63 -14 63 2 0 33 -53 50 -78 25z"/>
<path d="M10462 1433 c-29 -6 -24 -24 11 -41 22 -10 25 -18 21 -40 -9 -44 59
-107 80 -74 3 4 0 26 -5 48 -5 21 -12 48 -14 59 -5 21 -43 55 -60 53 -5 0 -20
-3 -33 -5z"/>
<path d="M10642 1431 c2 -7 7 -12 11 -12 12 1 9 15 -3 20 -7 2 -11 -2 -8 -8z"/>
<path d="M11572 1397 c-6 -7 -7 -18 -3 -26 7 -10 10 -8 16 8 8 27 2 36 -13 18z"/>
<path d="M7755 1381 c-8 -26 1 -41 26 -41 24 0 25 22 0 44 -18 17 -20 16 -26
-3z"/>
<path d="M8386 1391 c-38 -6 -64 -31 -32 -31 8 0 25 -13 38 -30 21 -29 24 -30
105 -30 65 0 83 3 83 14 0 8 -10 18 -22 22 -12 3 -43 20 -69 35 -25 16 -50 28
-55 28 -5 -1 -27 -5 -48 -8z"/>
<path d="M8310 1380 c0 -5 5 -10 11 -10 5 0 7 5 4 10 -3 6 -8 10 -11 10 -2 0
-4 -4 -4 -10z"/>
<path d="M11672 1375 c-7 -8 -24 -15 -37 -15 -16 0 -25 -6 -25 -15 0 -26 42
-13 84 26 14 14 16 19 5 19 -8 -1 -20 -7 -27 -15z"/>
<path d="M8595 1290 c3 -5 10 -10 16 -10 5 0 9 5 9 10 0 6 -7 10 -16 10 -8 0
-12 -4 -9 -10z"/>
<path d="M9005 1290 c-3 -5 -1 -10 4 -10 6 0 11 5 11 10 0 6 -2 10 -4 10 -3 0
-8 -4 -11 -10z"/>
<path d="M8795 1260 c3 -5 8 -10 11 -10 2 0 4 5 4 10 0 6 -5 10 -11 10 -5 0
-7 -4 -4 -10z"/>
<path d="M9798 1221 c-50 -23 -53 -27 -29 -40 16 -9 29 -7 61 9 41 21 54 51
23 49 -10 0 -35 -8 -55 -18z"/>
<path d="M8520 1220 c0 -5 9 -10 19 -10 11 0 23 5 26 10 4 6 -5 10 -19 10 -14
0 -26 -4 -26 -10z"/>
<path d="M8720 1210 c0 -5 11 -10 25 -10 14 0 25 5 25 10 0 6 -11 10 -25 10
-14 0 -25 -4 -25 -10z"/>
<path d="M7095 1190 c-33 -4 -46 -7 -29 -8 16 -1 34 -6 40 -11 28 -27 128 -30
193 -6 50 19 -98 37 -204 25z"/>
<path d="M7324 1171 c5 -8 56 -3 56 5 0 2 -14 4 -31 4 -16 0 -28 -4 -25 -9z"/>
<path d="M7590 1170 c0 -5 10 -10 23 -10 18 0 19 2 7 10 -19 13 -30 13 -30 0z"/>
<path d="M12730 1162 c0 -5 3 -12 8 -16 4 -4 7 -25 7 -47 0 -50 17 -54 29 -7
8 31 6 41 -9 58 -19 21 -35 26 -35 12z"/>
<path d="M8313 1143 c9 -2 23 -2 30 0 6 3 -1 5 -18 5 -16 0 -22 -2 -12 -5z"/>
<path d="M8358 1123 c7 -3 16 -2 19 1 4 3 -2 6 -13 5 -11 0 -14 -3 -6 -6z"/>
<path d="M8395 1121 c-8 -13 70 -29 195 -40 156 -13 250 -14 250 -2 0 16 -13
20 -81 26 -35 3 -75 7 -89 10 -47 9 -270 14 -275 6z"/>
<path d="M9173 1052 c-21 -2 -33 -9 -33 -18 0 -16 56 -20 78 -5 7 4 47 2 90
-6 42 -8 138 -18 212 -23 74 -6 167 -15 205 -21 72 -11 183 -21 438 -39 82 -6
236 -21 342 -35 106 -14 203 -25 214 -25 35 0 24 17 -15 25 -21 3 -46 13 -58
20 -23 15 -19 15 -266 43 -155 18 -327 32 -570 46 -41 2 -115 10 -165 16 -49
7 -123 10 -164 8 -41 -3 -92 -1 -115 5 -42 10 -135 15 -193 9z"/>
<path d="M10778 873 c7 -3 16 -2 19 1 4 3 -2 6 -13 5 -11 0 -14 -3 -6 -6z"/>
<path d="M10905 790 c3 -5 8 -10 11 -10 2 0 4 5 4 10 0 6 -5 10 -11 10 -5 0
-7 -4 -4 -10z"/>
<path d="M10950 767 c0 -8 24 -27 53 -41 l52 -27 -30 26 c-62 53 -75 60 -75
42z"/>
<path d="M9377 663 c-14 -13 -6 -24 15 -21 27 4 36 28 11 28 -11 0 -23 -3 -26
-7z"/>
<path d="M9382 578 c5 -15 48 -18 48 -3 0 6 -11 11 -26 13 -18 3 -25 0 -22
-10z"/>
<path d="M8350 130 c0 -5 5 -10 10 -10 6 0 10 5 10 10 0 6 -4 10 -10 10 -5 0
-10 -4 -10 -10z"/>
<path d="M9357 133 c-13 -12 -7 -23 13 -23 11 0 20 7 20 15 0 15 -21 21 -33 8z"/>
<path d="M9373 33 c-23 -8 -14 -33 12 -33 14 0 25 4 25 9 0 14 -24 29 -37 24z"/>
</g>
</svg>
