<?xml version="1.0" standalone="no"?>
<!DOCTYPE svg PUBLIC "-//W3C//DTD SVG 20010904//EN"
 "http://www.w3.org/TR/2001/REC-SVG-20010904/DTD/svg10.dtd">
<svg version="1.0" xmlns="http://www.w3.org/2000/svg"
 width="960.000000pt" height="720.000000pt" viewBox="0 0 960.000000 720.000000"
 preserveAspectRatio="xMidYMid meet">

<g transform="translate(0.000000,720.000000) scale(0.100000,-0.100000)"
fill="#000000" stroke="none">
<path d="M0 6750 l0 -450 848 -2 c466 -1 1131 -3 1477 -4 347 0 1145 -2 1775
-4 630 -1 1132 -6 1115 -10 -16 -4 -25 -8 -18 -9 19 -2 3 -31 -17 -31 -11 0
-21 -4 -24 -9 -5 -8 -108 -26 -191 -35 -17 -1 -40 -8 -53 -15 -12 -6 -22 -9
-22 -6 0 3 -10 -3 -22 -15 -12 -11 -30 -20 -39 -20 -10 0 -21 -5 -24 -11 -4
-5 -18 -14 -31 -19 -14 -6 -24 -18 -24 -30 0 -11 -7 -20 -15 -20 -9 0 -15 -9
-15 -25 0 -27 -31 -48 -38 -27 -2 7 -26 12 -63 12 -52 0 -59 2 -59 20 0 13 -7
20 -20 20 -11 0 -20 -4 -20 -8 0 -5 -24 -14 -53 -21 -48 -10 -95 -9 -163 5
-15 3 -23 -2 -27 -16 -4 -15 -14 -20 -41 -20 -22 0 -36 5 -37 13 -2 25 3 62
11 78 6 11 3 21 -12 33 -11 10 -22 15 -25 12 -3 -3 -19 6 -35 19 -36 30 -49
31 -74 4 -18 -20 -18 -21 0 -34 19 -14 15 -52 -4 -40 -5 3 -10 -1 -10 -10 0
-17 -54 34 -83 79 -10 14 -24 26 -32 26 -8 0 -32 9 -52 20 -20 11 -41 16 -47
11 -6 -4 -33 -6 -59 -3 -37 3 -51 9 -58 26 -16 34 -75 46 -226 46 -132 0 -139
-1 -167 -25 -19 -17 -27 -31 -23 -44 3 -11 -1 -25 -9 -32 -8 -6 -14 -20 -14
-30 0 -12 -13 -24 -34 -33 -19 -8 -44 -24 -55 -35 -36 -36 -131 -21 -131 20 0
8 -14 22 -31 31 -26 15 -33 16 -52 4 -12 -8 -36 -17 -54 -21 -19 -4 -35 -14
-38 -26 -4 -10 -12 -19 -20 -19 -15 0 -30 -35 -21 -49 4 -5 0 -12 -6 -14 -13
-6 33 -11 65 -8 9 1 17 -4 17 -13 0 -10 -9 -15 -22 -15 -68 2 -279 -26 -307
-41 -10 -5 -31 -11 -47 -13 -16 -3 -28 -10 -26 -16 1 -7 -3 -11 -10 -10 -7 1
-24 -2 -38 -8 -14 -6 -48 -8 -76 -6 -41 4 -52 2 -57 -11 -4 -9 -2 -16 3 -16 6
0 10 -5 10 -11 0 -6 -8 -8 -18 -5 -17 6 -30 -2 -90 -51 -24 -20 -36 -25 -58
-22 -4 0 -10 -3 -13 -8 -3 -4 -21 -21 -39 -36 -19 -15 -28 -27 -21 -27 7 0 20
6 28 14 26 22 111 66 165 86 202 72 361 89 557 60 140 -20 170 -48 66 -60
l-53 -6 4 31 3 30 -19 -24 c-11 -13 -24 -21 -31 -17 -6 4 -11 2 -11 -4 0 -6
-5 -8 -12 -3 -7 4 -21 6 -30 5 -13 -3 -18 4 -18 23 0 15 -4 24 -10 20 -5 -3
-10 -15 -10 -26 0 -10 -7 -19 -15 -19 -8 0 -15 -4 -15 -10 0 -5 -7 -10 -15
-10 -8 0 -15 -4 -15 -9 0 -14 48 -10 54 5 3 8 11 14 18 14 9 0 9 -3 -2 -10 -8
-5 -11 -12 -7 -16 3 -4 12 -3 19 2 14 10 63 10 103 0 13 -3 27 -1 31 5 5 8 9
8 14 -1 4 -6 31 -13 60 -14 28 -2 55 -8 59 -15 4 -6 15 -9 24 -5 12 4 17 1 17
-10 0 -18 15 -22 25 -6 6 10 43 -6 56 -24 4 -5 12 -5 19 -1 7 4 14 -1 17 -15
3 -13 11 -19 20 -16 18 7 81 -33 89 -57 3 -10 11 -16 17 -15 7 2 29 -8 50 -21
27 -16 37 -29 34 -41 -3 -12 0 -16 12 -13 19 5 71 -48 71 -72 0 -8 6 -15 14
-15 8 0 20 -13 27 -29 7 -16 17 -27 22 -24 5 3 6 -9 2 -28 -7 -29 -6 -32 8
-21 12 11 18 7 36 -23 21 -36 20 -57 -2 -53 -29 5 -75 -14 -80 -33 -8 -31 -38
-10 -78 56 -18 30 -37 55 -41 55 -4 0 -12 9 -18 20 -8 15 -6 24 10 40 25 25
10 27 -19 3 -19 -16 -20 -23 -11 -52 13 -45 6 -50 -31 -22 l-30 22 -35 -22
c-19 -12 -37 -19 -39 -17 -3 2 0 20 5 39 10 31 8 36 -21 61 l-32 27 44 3 c57
4 62 27 12 53 -47 24 -94 65 -87 77 8 13 -10 9 -34 -8 -20 -14 -22 -22 -17
-55 7 -41 -3 -50 -25 -24 -7 8 -23 15 -35 15 -12 0 -28 -7 -35 -15 -18 -22
-44 -20 -35 3 19 45 17 60 -14 83 -34 25 -33 40 4 33 25 -4 34 9 15 21 -16 10
-224 55 -229 50 -12 -13 23 -29 54 -26 45 3 47 -18 4 -43 -21 -13 -28 -23 -24
-34 4 -10 9 -30 12 -46 l6 -29 -36 27 -37 28 -36 -27 -37 -28 5 29 c3 16 8 36
12 46 5 11 -1 21 -23 34 -42 25 -40 41 4 36 26 -3 36 0 41 13 11 28 -9 37 -57
26 -24 -5 -61 -12 -82 -15 -21 -4 -47 -10 -56 -16 -10 -5 -21 -6 -25 -3 -3 3
-6 1 -6 -5 0 -6 -8 -12 -17 -14 -10 -3 1 -8 25 -12 23 -4 42 -12 42 -16 0 -5
-14 -18 -31 -31 -23 -16 -29 -27 -25 -43 3 -11 9 -32 12 -45 l7 -24 -41 23
-40 23 -32 -23 c-30 -21 -34 -22 -45 -7 -7 9 -14 15 -16 12 -3 -2 -27 -5 -54
-6 -57 -3 -75 -7 -75 -20 0 -5 18 -9 40 -9 43 0 57 -23 21 -35 -35 -11 -43
-30 -32 -71 6 -21 9 -39 8 -41 -2 -1 -20 9 -40 23 l-37 25 -30 -22 c-35 -27
-44 -22 -30 16 13 34 8 50 -21 65 -12 7 -19 7 -15 2 3 -6 -9 -28 -26 -49 -18
-22 -44 -56 -58 -76 -25 -37 -43 -44 -70 -27 -9 5 -19 5 -26 -1 -13 -11 -28
16 -18 32 3 5 -1 12 -9 15 -25 9 20 84 50 84 24 0 32 15 11 22 -8 3 -2 19 18
46 24 35 33 41 53 36 22 -5 23 -3 11 11 -12 14 -9 20 21 46 19 16 41 29 49 29
12 1 12 3 -2 14 -10 7 -18 18 -18 25 0 20 -13 12 -63 -41 -65 -70 -147 -180
-183 -246 -25 -46 -35 -54 -71 -64 -24 -6 -43 -14 -43 -19 0 -4 -16 -1 -35 7
-41 17 -100 18 -142 3 -32 -10 -39 -32 -84 -254 -4 -22 -26 -128 -49 -235 -22
-107 -43 -210 -47 -228 -6 -34 -23 -54 -23 -27 0 15 41 213 60 285 4 19 14 67
20 105 7 39 23 115 36 170 31 129 31 148 -3 175 -24 19 -36 21 -93 16 -36 -3
-72 -5 -80 -5 -8 0 -86 3 -173 5 -198 7 -197 7 -220 -103 -19 -90 -70 -327
-92 -426 -13 -60 -55 -141 -55 -107 0 10 -3 10 -15 0 -8 -7 -15 -18 -15 -24 0
-16 -54 -38 -75 -30 -15 6 -15 8 6 20 22 12 22 13 4 14 -17 1 -17 3 5 12 35
15 7 23 -32 9 -17 -6 -48 -11 -70 -11 -21 0 -55 -7 -74 -15 -30 -12 -70 -14
-220 -9 l-184 6 0 -36 c0 -24 5 -36 14 -36 19 0 49 -47 35 -55 -5 -4 -17 -1
-25 6 -19 16 -31 3 -18 -19 6 -10 27 -18 48 -20 20 -2 36 -7 36 -13 0 -5 -4
-9 -10 -9 -5 0 -10 -7 -10 -15 0 -10 -11 -15 -37 -16 -31 -2 -33 -3 -11 -6 16
-2 28 -7 28 -9 0 -10 -28 -34 -39 -34 -6 0 -11 -4 -11 -10 0 -5 16 -10 36 -10
19 0 33 4 30 8 -3 5 1 9 9 9 8 0 15 -3 15 -7 0 -11 -24 -37 -40 -44 -8 -3 4
-4 28 -1 23 3 42 1 42 -3 0 -5 95 -8 211 -7 187 1 212 3 220 18 14 25 42 22
34 -3 -8 -25 20 -28 34 -3 13 25 41 -1 41 -39 0 -24 3 -27 18 -20 9 5 70 7
134 5 69 -2 126 1 137 7 14 7 21 6 24 -3 4 -9 8 -9 14 -1 4 7 25 15 47 18 21
4 41 8 45 11 4 2 25 -2 47 -10 43 -15 192 -17 200 -3 3 4 13 8 23 8 11 0 29 9
42 19 26 21 63 12 53 -13 -9 -23 20 -38 51 -26 15 6 39 9 53 8 15 -1 42 2 61
6 25 6 32 5 26 -4 -9 -15 37 -3 46 12 4 6 9 6 13 -1 4 -6 -1 -14 -10 -18 -16
-6 -16 -7 0 -13 17 -6 17 -7 2 -23 -21 -20 -48 -174 -35 -199 5 -9 6 -24 3
-32 -5 -12 -2 -15 10 -10 19 7 20 16 5 31 -11 11 -9 53 8 128 19 80 47 104
137 115 45 5 64 3 74 -7 10 -9 19 -10 32 -3 10 5 45 9 77 9 32 -1 70 3 84 9
14 5 51 13 82 17 50 6 57 5 51 -9 -7 -18 -6 -18 237 -17 133 0 148 -2 164 -19
16 -17 16 -26 6 -77 -6 -31 -11 -65 -11 -76 0 -17 2 -18 17 -6 13 11 17 11 20
2 6 -17 23 -17 23 0 0 17 53 141 68 160 11 12 51 15 240 15 133 0 234 -4 245
-10 13 -7 23 -6 30 1 6 6 40 11 75 11 71 0 126 -20 144 -53 10 -20 6 -96 -8
-146 -6 -20 -4 -23 9 -18 26 10 21 0 -23 -45 l-40 -42 0 -98 c0 -115 -8 -125
-96 -114 -29 3 -55 2 -59 -3 -6 -11 -74 -3 -90 10 -6 4 -29 2 -51 -6 -50 -17
-105 -7 -140 26 l-25 23 -6 -22 c-7 -27 -26 -32 -123 -28 -100 4 -98 3 -105
25 -6 18 -7 18 -29 -4 -22 -22 -29 -23 -125 -19 -78 3 -102 1 -98 -9 5 -16
160 -22 210 -7 25 7 43 8 55 1 15 -9 15 -11 -5 -12 -13 -1 -27 -3 -33 -4 -5
-1 -17 -3 -25 -4 -8 0 -15 -5 -15 -10 0 -10 44 -7 130 8 30 5 78 10 107 10 39
1 55 6 62 19 7 13 13 14 21 6 7 -7 8 -14 3 -17 -19 -11 -119 -37 -145 -37 -15
0 -28 -5 -28 -11 0 -8 12 -9 38 -4 20 4 57 10 82 14 25 4 52 11 60 16 20 12
58 15 246 18 137 2 165 5 181 19 18 17 20 17 36 0 22 -21 152 -30 207 -13 36
11 60 42 60 78 0 25 -18 3 -22 -27 -4 -30 -28 -38 -130 -39 -67 -1 -80 2 -102
22 -16 15 -22 28 -16 37 4 8 11 36 14 62 9 57 27 96 61 128 l25 23 -20 20
c-18 16 -20 26 -14 65 17 115 60 162 151 162 91 0 123 -47 103 -149 -15 -73
-47 -126 -109 -181 -28 -24 -51 -48 -51 -52 0 -4 18 -8 40 -8 27 0 43 -5 46
-15 4 -8 11 -15 17 -15 6 0 0 11 -13 25 -13 14 -33 25 -44 25 -19 0 -19 1 4
17 14 9 31 23 38 30 7 7 16 13 20 13 4 0 23 23 42 50 32 47 37 50 68 45 38 -7
40 0 10 27 -13 11 -17 16 -9 12 8 -4 33 -11 55 -16 23 -5 48 -10 56 -12 16 -3
40 35 40 65 0 11 5 19 10 19 6 0 10 -17 10 -38 0 -21 3 -41 6 -45 11 -11 34 5
34 24 0 10 5 19 10 19 6 0 10 -11 10 -24 0 -34 21 -49 46 -31 16 11 50 13 160
9 76 -3 185 -6 242 -8 l102 -2 0 35 c0 20 3 53 6 74 6 34 9 37 40 37 l33 0 3
-66 3 -66 90 -5 c50 -3 133 -8 185 -11 l95 -7 15 30 c13 25 22 30 55 32 22 1
41 7 43 13 7 20 37 9 57 -20 24 -35 32 -39 65 -29 l25 7 -25 1 c-14 1 -34 8
-44 16 -16 12 -17 15 -4 20 9 4 18 19 21 34 6 28 29 41 72 40 17 0 16 -2 -7
-15 -24 -12 -26 -18 -18 -39 8 -21 7 -25 -10 -25 -10 0 -22 -5 -25 -10 -17
-28 81 17 100 46 8 13 22 24 30 24 8 0 15 4 15 9 0 5 10 11 22 13 14 2 24 11
26 23 2 11 11 25 19 32 20 16 10 29 -35 43 -20 7 -43 20 -50 29 -7 9 -17 16
-22 16 -19 0 -11 20 9 23 13 2 17 9 14 22 -4 15 6 22 61 38 83 25 130 69 113
105 -13 28 -97 50 -159 42 -20 -3 -77 -9 -127 -14 -87 -9 -131 -23 -131 -40 0
-5 9 -11 19 -14 14 -3 18 -11 14 -26 -3 -12 -9 -21 -14 -21 -5 0 -9 -4 -9 -10
0 -5 7 -10 15 -10 8 0 15 -6 15 -14 0 -19 -72 -34 -212 -45 -72 -5 -114 -13
-125 -23 -22 -18 -63 -30 -63 -17 0 5 -9 9 -20 9 -10 0 -24 9 -30 19 -6 12
-23 21 -42 23 -33 3 -33 3 -55 103 -13 55 -27 116 -32 135 -35 131 -34 123
-15 137 17 12 17 14 -2 27 -18 14 -18 16 -2 32 9 9 27 18 40 19 12 2 32 7 42
11 11 4 17 4 14 -2 -4 -5 17 -10 45 -12 29 -2 54 -7 55 -13 5 -12 45 -12 58 1
8 8 180 16 232 11 23 -2 2 -21 -24 -21 -13 0 -24 -6 -24 -14 0 -9 23 -15 83
-20 45 -4 129 -12 187 -17 216 -19 287 -15 373 17 43 16 77 34 77 42 0 7 4 11
9 7 5 -3 13 0 17 6 5 8 9 8 14 -2 5 -6 21 -14 37 -15 15 -2 52 -7 81 -10 l52
-6 6 31 c7 32 29 51 59 51 14 0 16 -6 11 -35 -7 -34 -6 -35 25 -35 26 0 30 3
24 18 -15 36 -17 52 -6 52 6 0 11 11 11 25 0 24 3 25 58 25 31 0 174 4 317 9
143 6 534 13 869 16 589 7 608 7 602 -11 -3 -11 -8 -55 -11 -99 -3 -44 -8 -81
-10 -83 -2 -3 -11 -2 -20 1 -11 5 -15 21 -15 65 0 71 -18 104 -45 82 -13 -11
-48 -15 -129 -17 -141 -2 -146 -2 -121 -13 19 -8 19 -9 -2 -9 -12 -1 -25 4
-28 9 -9 14 -21 12 -40 -7 -14 -13 -18 -14 -25 -3 -7 11 -11 10 -25 -3 -9 -10
-28 -17 -43 -17 -22 0 -24 2 -12 11 11 7 3 9 -32 7 -27 -1 -53 4 -62 11 -12
10 -22 11 -43 2 -16 -6 -70 -12 -122 -14 -93 -2 -95 -2 -102 23 -6 23 -7 23
-8 3 l-1 -22 -282 -1 c-367 0 -449 -9 -390 -38 9 -5 154 -6 332 -3 173 3 317
5 319 4 2 -1 -6 -24 -17 -50 -19 -44 -20 -49 -5 -60 9 -7 29 -13 43 -13 51 0
65 42 30 87 -11 14 -17 30 -14 35 6 10 62 5 144 -11 111 -21 128 -23 134 -12
4 6 28 10 54 10 26 -1 38 -3 27 -6 -11 -2 -27 -7 -35 -10 -8 -3 -19 -5 -24 -4
-10 2 -26 -18 -26 -34 0 -5 5 -3 10 5 8 10 10 -17 8 -90 -2 -58 1 -122 6 -142
l8 -38 -458 0 c-673 0 -1047 -10 -1033 -27 8 -9 8 -17 0 -26 -14 -18 -4 -27
29 -27 47 0 88 -20 94 -46 4 -13 11 -24 16 -24 6 0 10 -5 10 -11 0 -7 7 -17
17 -24 19 -14 9 -35 -17 -35 -13 0 -17 -5 -14 -15 4 -8 17 -15 30 -15 13 0 24
-5 24 -11 0 -7 10 -9 26 -5 17 5 23 3 19 -4 -3 -5 -17 -10 -31 -10 -15 0 -24
-6 -24 -15 0 -13 4 -14 20 -5 11 6 20 8 20 5 0 -15 -22 -45 -32 -45 -18 0
-118 -53 -118 -63 0 -13 75 0 110 18 30 15 40 11 40 -16 0 -18 -26 -33 -42
-23 -5 3 -9 -2 -7 -12 2 -21 -7 -64 -23 -106 -11 -30 -4 -78 13 -78 5 0 22 -9
37 -19 15 -11 45 -23 67 -27 35 -7 37 -8 13 -12 -14 -2 -32 -10 -38 -18 -7 -8
-16 -14 -20 -14 -17 0 -121 -111 -131 -139 l-10 -29 -122 -8 c-113 -7 -118 -9
-67 -15 30 -5 123 -12 206 -17 92 -6 161 -15 175 -23 21 -12 -5 -15 -205 -21
-126 -4 -234 -9 -240 -12 -6 -2 48 -5 121 -5 113 -1 132 -3 127 -16 -5 -12 3
-15 40 -15 43 0 61 12 34 23 -7 3 19 6 57 6 64 0 68 -1 51 -14 -19 -14 -19
-15 6 -15 15 0 29 -4 33 -9 7 -13 -64 -22 -150 -18 -72 2 -105 -12 -105 -47 0
-11 -14 -16 -47 -19 -27 -2 -3 -4 52 -5 55 -1 172 -5 260 -9 88 -5 412 -7 721
-6 l560 2 -4 -30 c-2 -16 -8 -29 -13 -29 -5 0 -9 -8 -9 -19 0 -10 -7 -24 -15
-31 -8 -7 -15 -17 -15 -23 0 -6 -7 -19 -17 -29 -14 -16 -15 -24 -3 -76 16 -70
15 -113 -4 -176 -10 -33 -12 -55 -6 -66 11 -20 0 -23 -130 -42 -72 -10 -156
-3 -339 29 -22 3 -31 2 -27 -5 3 -5 37 -13 75 -17 39 -4 76 -12 84 -18 13 -11
53 -194 45 -202 -4 -4 -77 11 -83 17 -2 1 -8 36 -13 76 -6 41 -12 76 -14 78
-3 2 -38 10 -79 18 -52 10 -176 16 -413 20 -325 4 -437 -1 -460 -24 -6 -6 -12
-42 -14 -80 l-4 -70 -37 -5 c-20 -3 -50 -10 -67 -15 -17 -6 -54 -10 -82 -10
-29 0 -52 -4 -52 -9 0 -5 -8 -12 -17 -14 -14 -4 -12 -5 5 -6 12 0 22 -5 22
-10 0 -5 18 -17 40 -27 22 -10 40 -21 40 -26 0 -15 66 -8 181 21 88 22 132 28
189 25 41 -2 203 -6 359 -9 156 -3 289 -9 295 -14 13 -11 110 -39 184 -53 42
-8 70 -7 135 7 45 9 115 19 155 21 40 2 92 8 115 14 56 13 67 12 61 -3 -3 -10
5 -12 31 -9 27 3 35 1 35 -11 0 -19 -27 -47 -44 -47 -8 0 -19 -7 -26 -15 -8
-9 -8 -15 -2 -15 6 0 13 -9 17 -19 4 -12 12 -18 21 -14 8 3 14 -1 14 -10 0
-22 33 -77 46 -77 6 0 17 -6 23 -14 10 -12 7 -17 -16 -28 -15 -7 -28 -18 -29
-23 -1 -17 -16 -49 -36 -77 -13 -19 -15 -27 -6 -31 10 -3 9 -9 -4 -23 -9 -10
-19 -40 -23 -66 -5 -31 -12 -48 -21 -48 -8 0 -14 -6 -14 -13 0 -14 -46 -28
-172 -51 -118 -22 -116 -22 -123 22 -4 20 -11 46 -16 57 -9 20 -5 -129 8 -228
l6 -47 -100 0 -100 0 -10 57 c-6 32 -9 61 -6 65 2 5 22 11 43 14 22 4 46 14
55 24 15 17 15 24 -1 91 -9 41 -18 94 -21 119 -3 25 -10 51 -15 57 -6 7 -7 24
-4 38 8 30 -2 54 -14 35 -5 -8 -18 -5 -45 10 -23 13 -50 20 -67 18 -29 -5 -34
4 -22 36 6 15 8 15 20 -1 13 -17 14 -17 20 4 6 20 54 40 54 22 0 -5 -10 -9
-22 -9 -22 -1 -22 -1 -4 -12 16 -9 22 -7 33 8 11 15 16 16 22 6 6 -10 10 -9
14 7 7 28 1 31 -58 31 -46 0 -54 4 -87 38 l-37 39 -122 6 c-67 4 -228 7 -357
7 l-235 0 -33 -35 c-29 -31 -38 -35 -85 -35 -59 0 -58 -10 4 -27 25 -6 33 -11
20 -12 -25 -1 -41 -19 -21 -25 7 -2 22 -7 33 -11 11 -5 29 -8 39 -9 27 -1 31
-22 6 -29 -11 -3 -20 -1 -20 4 0 18 -17 9 -28 -15 -6 -14 -18 -23 -29 -23 -12
2 -19 -6 -21 -23 -2 -14 -10 -29 -18 -33 -8 -5 -12 -14 -8 -20 3 -7 -1 -3 -10
7 -18 23 -18 23 -41 -85 -9 -42 -15 -95 -13 -119 3 -37 6 -43 28 -46 14 -1 37
-7 53 -13 21 -8 26 -16 23 -33 -3 -13 -8 -40 -11 -61 -6 -38 -7 -38 -43 -33
-20 4 -63 7 -95 8 l-59 2 6 116 c4 83 3 108 -4 91 -10 -22 -14 -23 -63 -17
-60 7 -47 -9 16 -20 31 -5 37 -9 31 -22 -4 -10 -11 -45 -17 -80 -5 -35 -15
-66 -23 -69 -7 -2 -49 0 -94 5 -83 10 -120 30 -120 66 0 8 -5 18 -11 22 -17
10 -5 -80 14 -109 13 -20 27 -25 89 -31 50 -4 77 -12 85 -23 16 -20 6 -38 -13
-22 -8 6 -14 7 -14 2 0 -5 11 -16 25 -23 14 -7 25 -22 25 -32 0 -13 8 -18 33
-20 56 -3 61 -4 92 -20 28 -15 84 -27 128 -28 10 0 16 -4 12 -9 -3 -5 0 -13 6
-17 8 -4 7 -9 -2 -15 -11 -7 -10 -9 4 -9 9 0 17 7 17 16 0 12 7 15 30 12 16
-2 31 0 33 6 2 5 14 3 27 -7 14 -9 20 -17 15 -17 -6 0 -1 -7 9 -15 14 -11 16
-15 5 -15 -23 -1 34 -29 61 -30 23 -2 21 -3 -19 -16 -11 -4 -10 -8 5 -19 18
-13 18 -14 -8 -24 -39 -15 -35 -23 6 -15 19 3 43 1 53 -5 15 -9 13 -11 -17
-11 -19 -1 -44 -5 -55 -10 l-20 -9 20 -1 c11 -1 40 -2 65 -3 38 -2 45 -5 45
-22 0 -11 8 -26 18 -33 22 -17 12 -35 -14 -27 -11 4 -19 2 -19 -4 0 -6 1 -11
3 -11 53 -8 115 -9 126 -2 19 13 3 35 -20 29 -14 -4 -19 0 -19 14 0 10 7 19
15 19 8 0 19 9 25 20 10 18 8 20 -19 20 -16 0 -43 6 -62 14 l-32 14 48 21 c59
26 130 28 145 4 8 -13 13 -14 16 -5 3 6 13 12 21 12 12 0 13 -3 4 -13 -6 -8
-8 -16 -5 -20 3 -3 -4 -8 -16 -12 -20 -6 -21 -8 -4 -26 19 -22 64 -25 82 -7
10 10 15 10 21 0 6 -10 22 -12 65 -7 53 7 88 25 49 25 -15 0 -16 2 -3 10 8 5
30 10 49 10 25 0 32 -3 27 -15 -6 -17 19 -21 29 -5 3 6 11 10 16 10 6 0 8 -3
6 -7 -3 -5 20 -7 51 -5 42 2 53 0 42 -7 -8 -6 -31 -11 -50 -11 -28 0 -37 -5
-47 -27 -14 -30 -9 -43 9 -25 14 14 48 16 48 3 0 -5 9 -11 20 -14 15 -4 22 1
26 19 3 13 10 24 15 24 5 0 9 6 9 14 0 8 14 29 32 47 27 30 31 31 25 11 -4
-19 -2 -22 14 -17 13 4 19 2 19 -9 0 -11 8 -13 36 -9 29 5 36 3 32 -8 -3 -8
-15 -13 -27 -12 -18 2 -21 -2 -21 -32 0 -19 5 -35 11 -35 5 0 9 10 7 23 -2 18
2 23 25 25 16 2 27 9 27 18 0 9 6 14 13 11 6 -2 11 -14 10 -26 -2 -11 2 -21 7
-21 6 0 10 9 10 20 0 13 12 25 35 34 24 11 35 21 35 36 0 12 5 18 10 15 6 -4
8 -10 6 -14 -3 -4 9 -15 26 -25 38 -23 159 -30 151 -9 -3 7 2 13 11 13 9 0 25
5 36 12 10 7 23 8 27 4 4 -5 2 -11 -4 -13 -7 -3 -13 -9 -13 -14 0 -4 6 -6 14
-3 8 3 17 1 21 -5 3 -6 22 -11 41 -11 23 0 33 4 28 11 -5 8 6 9 35 4 34 -6 41
-4 41 9 0 12 11 16 44 16 25 0 47 -4 50 -8 8 -13 66 -12 66 0 0 47 128 50 162
3 4 -6 8 -2 8 8 0 18 15 23 25 7 3 -5 13 -6 22 -3 11 4 14 3 9 -5 -11 -18 42
-20 104 -3 33 8 34 9 7 10 -31 1 -28 21 3 21 10 0 21 8 24 18 5 14 15 16 52
13 31 -2 44 0 40 7 -4 6 -12 9 -19 6 -17 -6 -48 28 -39 43 4 6 56 13 127 16
518 23 618 29 675 38 85 14 385 8 352 -6 -23 -11 -23 -11 -3 -32 19 -20 21
-38 6 -75 -5 -12 -2 -18 8 -18 18 0 30 -27 17 -35 -6 -4 -10 1 -10 9 0 18 -25
22 -35 6 -3 -5 0 -10 8 -10 10 0 13 -10 11 -35 -2 -26 2 -36 17 -40 10 -4 19
-13 19 -21 0 -8 12 -26 27 -40 15 -14 20 -22 10 -18 -10 3 -24 0 -33 -7 -14
-12 -14 -14 6 -21 26 -10 60 10 60 35 0 15 3 16 22 6 l22 -12 -22 -8 c-29 -11
-31 -47 -2 -40 11 2 10 -2 -4 -18 -12 -13 -14 -21 -7 -21 7 0 9 -5 5 -12 -5
-7 0 -9 14 -6 12 4 28 -1 40 -13 17 -15 21 -16 26 -4 3 8 5 394 6 858 l0 844
-47 -3 c-249 -19 -349 -24 -474 -25 -79 -1 -186 -4 -238 -8 -91 -6 -95 -7
-111 -35 -21 -40 -45 -48 -36 -13 3 14 2 29 -4 32 -13 8 -13 60 -1 103 8 25 7
32 -5 32 -8 0 -14 10 -14 26 0 14 -4 23 -9 19 -5 -3 -12 -1 -16 4 -3 6 17 11
47 13 l53 3 3 43 c3 33 7 42 22 42 10 0 21 4 24 8 8 13 -11 35 -25 30 -23 -8
-83 13 -97 33 -7 11 -20 19 -28 19 -8 0 -14 5 -14 10 0 14 43 13 75 -2 16 -7
29 -8 35 -2 6 6 10 68 10 139 1 72 3 149 6 171 6 40 8 42 47 48 23 3 56 8 72
11 90 14 354 47 445 55 58 6 144 15 193 21 l87 12 0 68 0 69 -29 0 c-17 0 -33
5 -36 10 -4 7 -11 8 -18 1 -14 -11 -67 -3 -67 10 0 5 5 9 12 9 6 0 20 7 30 16
14 14 20 14 33 4 19 -15 34 -5 17 12 -18 18 -15 28 8 28 25 0 25 18 0 50 l-19
25 -23 -23 c-31 -28 -38 -28 -38 2 0 29 35 41 74 26 17 -6 26 -6 26 0 0 6 7
10 15 10 12 0 15 17 15 90 0 72 -3 88 -14 84 -8 -3 -17 -1 -20 4 -3 5 3 12 14
15 16 4 20 14 20 51 0 36 -3 44 -15 40 -21 -8 -21 52 0 72 8 9 15 31 15 49 0
28 -3 33 -17 28 -12 -5 -15 -2 -10 10 5 13 1 17 -14 17 -11 0 -39 9 -61 20
-53 25 -63 25 -75 -2 -9 -21 -10 -21 -21 9 -9 28 -9 31 6 26 14 -6 15 -4 4 9
-10 13 -18 14 -42 5 l-30 -11 28 -12 27 -12 -26 -10 c-14 -5 -37 -8 -51 -5
-14 3 -29 0 -33 -7 -8 -13 -35 5 -35 24 0 7 -11 23 -24 35 l-24 23 9 -39 c5
-21 9 -41 9 -44 0 -15 -67 -25 -97 -15 -45 16 -51 26 -15 26 17 0 34 4 37 10
9 15 -43 24 -61 9 -12 -10 -18 -9 -32 4 -15 16 -13 17 28 17 38 1 42 3 29 13
-9 7 -15 18 -13 25 1 7 0 8 -3 2 -7 -14 -30 -13 -36 3 -6 17 -87 -68 -87 -92
0 -15 -18 -31 -35 -31 -2 0 -2 32 0 70 2 55 0 70 -11 70 -8 0 -14 -7 -14 -15
0 -9 -9 -15 -24 -15 -14 0 -39 -12 -56 -26 -36 -31 -34 -39 15 -43 25 -2 17
-17 -17 -32 -18 -8 -33 -21 -34 -29 -2 -34 -4 -40 -15 -40 -6 0 -9 23 -8 61 2
48 7 64 25 82 26 24 35 58 10 38 -10 -8 -16 -9 -21 -1 -8 13 19 24 46 17 13
-4 24 1 32 14 6 10 18 19 25 19 8 0 12 6 10 12 -5 14 15 38 31 38 6 0 11 -4
11 -10 0 -5 9 -10 20 -10 13 0 20 -7 20 -20 0 -25 -9 -25 -26 -2 -10 13 -13
14 -14 3 0 -11 -4 -10 -15 5 -15 18 -16 18 -13 -4 2 -18 13 -27 41 -37 20 -7
40 -9 42 -4 10 15 97 23 105 9 5 -8 22 -11 46 -8 22 3 59 -1 84 -7 25 -6 73
-10 108 -7 42 3 62 1 62 -7 0 -21 19 -11 22 12 2 18 10 23 46 25 24 2 49 -1
56 -7 19 -16 41 26 24 47 -11 14 -10 15 5 9 11 -4 22 -5 27 -2 11 7 -12 55
-27 55 -16 0 -16 2 2 36 8 16 15 25 15 20 0 -5 7 -3 15 4 12 10 15 37 15 126
0 121 -4 129 -49 105 -23 -13 -114 -21 -128 -13 -6 4 -9 19 -6 35 6 30 33 37
53 12 8 -10 31 -15 71 -15 56 0 59 1 59 24 0 33 -40 46 -172 53 -106 6 -108 6
-108 -16 0 -16 8 -23 30 -27 17 -4 30 -12 30 -20 0 -22 -20 -27 -39 -10 -14
12 -29 15 -58 10 -32 -5 -41 -3 -46 10 -11 28 -9 31 25 36 28 4 33 9 36 36 4
44 -42 78 -92 69 -23 -5 -44 -1 -66 10 -27 14 -50 16 -124 11 -50 -3 -94 -6
-98 -6 -5 0 -8 -7 -8 -15 0 -16 -4 -17 -70 -20 -25 -1 -56 -5 -70 -8 -14 -3
-43 -9 -64 -12 -25 -4 -35 -10 -27 -14 8 -6 2 -12 -19 -21 -27 -11 -35 -10
-65 6 -19 10 -35 22 -35 27 0 5 -9 22 -21 38 -15 22 -28 29 -53 29 -19 0 -39
-7 -46 -15 -10 -12 -8 -16 13 -24 33 -13 43 -40 13 -37 -13 2 -28 6 -35 10
-20 12 -80 -22 -87 -49 -4 -16 -13 -25 -26 -25 -37 0 -153 33 -180 52 l-26 18
19 40 c11 22 24 40 29 40 6 0 19 9 30 20 11 11 29 20 39 20 21 0 84 -30 89
-42 2 -5 11 -8 20 -8 10 0 23 -9 30 -20 14 -23 32 -26 32 -6 0 8 -19 26 -42
40 -41 24 -42 25 -15 26 33 0 34 8 4 35 -35 33 -99 50 -128 35 -28 -16 -89
-23 -89 -11 0 5 7 14 15 21 26 21 17 39 -23 45 -83 13 -146 25 -150 30 -3 2 1
12 8 20 11 13 24 15 69 9 51 -6 55 -6 42 10 -7 9 -22 16 -33 16 -15 0 -19 6
-16 28 2 21 9 28 29 30 15 2 35 12 45 23 22 25 44 24 44 -1 0 -24 28 -40 70
-40 17 0 39 -4 48 -9 10 -5 49 -4 92 1 86 10 369 -5 401 -23 14 -7 19 -18 17
-37 -2 -19 2 -28 15 -30 16 -3 18 1 12 27 -6 30 -5 31 25 31 29 0 32 -2 26
-25 -9 -37 0 -45 34 -32 37 14 39 27 5 27 -15 0 -25 6 -25 15 0 11 6 12 23 6
25 -9 163 -7 196 4 14 4 21 15 21 31 0 20 5 24 30 24 23 0 33 6 39 23 18 45
-60 66 -99 27 -12 -12 -26 -18 -33 -13 -7 4 -38 10 -71 14 -32 4 -63 12 -69
18 -14 14 6 59 30 67 10 4 33 13 52 21 25 11 53 14 100 10 86 -7 135 9 139 46
2 15 -1 27 -7 27 -6 0 -19 9 -30 21 -10 11 -27 22 -37 23 -10 2 -20 9 -22 16
-3 8 1 11 9 8 8 -3 40 -2 72 3 42 5 72 3 105 -7 53 -16 73 -18 53 -5 -11 7 -9
10 8 16 11 3 25 4 30 1 5 -4 17 -3 26 0 13 5 14 8 3 15 -10 7 -11 9 0 9 7 0
11 4 8 9 -9 13 22 22 51 15 18 -5 21 -9 11 -15 -9 -6 -2 -9 20 -9 17 0 32 -4
32 -9 0 -5 7 -11 15 -15 13 -5 15 80 15 729 l0 735 -4800 0 -4800 0 0 -450z
m7005 -470 c-110 -3 -191 -8 -180 -11 11 -4 -20 -7 -69 -8 -49 0 -87 -3 -84
-6 3 -3 44 -7 92 -9 48 -2 93 -9 101 -16 10 -9 15 -9 15 -1 0 16 28 14 37 -3
9 -17 79 -66 93 -66 6 0 10 -18 10 -40 0 -36 3 -40 25 -40 14 0 25 -4 25 -9 0
-5 16 -15 35 -21 19 -6 35 -16 35 -21 0 -5 9 -9 20 -9 13 0 20 -7 20 -20 0
-14 -7 -20 -21 -20 -31 0 -17 -25 14 -26 22 -1 27 3 27 23 0 19 4 23 23 19 42
-8 79 -29 65 -38 -10 -6 -9 -8 3 -8 9 0 19 -7 23 -15 7 -19 39 -19 91 0 35 12
41 12 51 -1 6 -8 16 -14 23 -14 6 0 11 -4 11 -10 0 -5 -4 -10 -8 -10 -5 0 -9
-6 -9 -13 0 -9 10 -12 28 -9 21 3 31 -2 44 -22 16 -24 21 -25 73 -19 32 3 71
12 87 21 18 9 68 17 127 20 87 4 99 3 127 -17 17 -12 38 -21 48 -19 11 2 22
-7 31 -24 12 -25 19 -28 70 -30 121 -4 144 -8 112 -18 -14 -4 -59 -8 -102 -9
-44 -1 -78 -5 -80 -12 -2 -5 -10 -11 -18 -13 -8 -2 -28 -9 -45 -15 -16 -7 -54
-15 -82 -18 -35 -4 -53 -10 -53 -19 0 -8 -7 -14 -16 -14 -8 0 -13 -4 -10 -9 4
-5 -7 -12 -24 -16 -16 -4 -30 -10 -30 -15 0 -21 -130 -65 -185 -61 -105 7
-109 6 -115 -19 -5 -22 -14 -26 -60 -33 -30 -4 -70 -8 -87 -9 -18 -1 -33 -8
-33 -15 0 -17 -40 -43 -68 -43 -13 0 -20 -4 -17 -10 4 -6 -10 -10 -34 -10 -22
0 -43 5 -47 12 -5 7 -2 8 7 3 8 -5 11 -4 6 0 -10 12 -47 14 -47 2 0 -5 -6 -7
-14 -4 -8 3 -20 -1 -26 -9 -7 -8 -19 -14 -28 -14 -13 0 -13 -3 2 -19 17 -18
16 -20 -6 -27 -13 -4 -29 -7 -35 -6 -7 2 -13 -4 -13 -11 0 -26 -200 -43 -301
-27 -71 11 -172 41 -181 54 -3 5 -39 13 -79 17 -40 5 -75 13 -79 19 -4 6 -11
10 -16 9 -31 -5 -64 3 -64 16 0 8 -9 15 -19 15 -11 0 -22 4 -26 10 -3 5 -13 6
-23 3 -9 -3 -14 -3 -10 1 3 4 -1 16 -10 26 -12 15 -19 17 -29 8 -10 -8 -17 -8
-25 0 -7 7 -31 12 -55 12 -25 0 -43 5 -43 11 0 7 -10 9 -25 5 -42 -11 -64 8
-56 46 6 29 11 34 46 38 43 6 115 38 115 52 0 4 7 8 16 8 20 0 13 20 -12 34
-10 6 -21 14 -24 18 -10 14 -77 37 -85 30 -5 -4 -5 -1 -1 6 5 8 1 12 -12 12
-10 0 -24 11 -31 24 -9 16 -19 22 -32 19 -22 -6 -26 -43 -7 -72 9 -14 8 -22
-3 -33 -17 -19 -49 -11 -49 12 0 10 -7 23 -15 30 -8 7 -15 22 -14 34 0 20 1
21 9 1 l9 -20 0 20 c1 11 8 33 16 49 9 16 20 47 24 68 8 33 6 40 -11 53 -23
15 -26 13 60 31 12 2 22 10 22 17 0 27 -26 67 -43 67 -10 0 -15 5 -12 10 3 6
-1 10 -9 10 -9 0 -16 5 -16 10 0 6 -21 10 -46 10 -46 0 -114 31 -114 51 0 5
12 14 26 19 33 13 34 13 34 -4 0 -11 15 -13 80 -9 84 6 87 5 81 -44 -1 -9 12
-13 36 -13 22 0 56 -9 78 -20 22 -11 47 -17 57 -14 10 3 46 -2 80 -11 41 -10
64 -12 66 -5 2 5 12 10 21 10 10 0 28 11 41 25 13 14 29 25 37 25 7 0 13 7 13
15 0 8 -7 15 -15 15 -8 0 -15 7 -15 16 0 22 -41 64 -62 64 -15 0 -18 -9 -18
-56 0 -40 -3 -54 -12 -51 -9 2 -12 20 -10 55 l4 52 -51 0 c-28 0 -51 5 -51 10
0 6 -15 10 -34 10 -19 0 -38 -4 -41 -10 -3 -5 -44 -10 -91 -10 -80 0 -84 1
-74 19 7 14 6 21 -3 24 -6 3 290 5 658 4 369 -1 580 -4 470 -7z m418 3 c-13
-2 -33 -2 -45 0 -13 2 -3 4 22 4 25 0 35 -2 23 -4z m-1488 -73 c3 -5 1 -10 -4
-10 -6 0 -11 5 -11 10 0 6 2 10 4 10 3 0 8 -4 11 -10z m3331 -57 c-7 -17 -8
-17 -17 0 -12 21 -2 44 13 29 6 -6 8 -19 4 -29z m-5638 -110 c-5 -25 -28 -28
-28 -4 0 12 6 21 16 21 9 0 14 -7 12 -17z m440 -5 c16 -16 15 -48 0 -48 -24 0
-58 12 -58 20 0 11 29 40 39 40 4 0 12 -5 19 -12z m3927 -19 c7 -7 4 -8 -9 -3
-11 4 -21 2 -26 -6 -7 -11 -11 -11 -24 -1 -9 8 -16 18 -16 23 0 13 60 2 75
-13z m-715 -9 c0 -5 -9 -10 -20 -10 -11 0 -20 5 -20 10 0 6 9 10 20 10 11 0
20 -4 20 -10z m635 0 c3 -5 1 -10 -4 -10 -6 0 -11 5 -11 10 0 6 2 10 4 10 3 0
8 -4 11 -10z m119 -6 c9 -3 13 -10 10 -15 -10 -17 7 -51 23 -45 10 4 13 2 10
-8 -3 -8 -1 -17 6 -19 7 -2 2 -2 -10 0 -13 2 -23 -1 -23 -7 0 -9 14 -14 33
-11 4 0 7 -4 7 -10 0 -11 -85 -8 -97 5 -15 14 -13 85 3 101 18 17 17 17 38 9z
m566 -24 c15 -12 19 -20 11 -20 -8 0 -11 -3 -8 -6 4 -4 14 -1 23 7 14 11 15
10 12 -6 -2 -15 7 -21 52 -31 30 -7 56 -13 58 -14 2 0 0 5 -3 10 -3 6 -1 10 5
10 6 0 8 5 4 13 -5 7 0 6 11 -3 11 -9 16 -10 11 -2 -14 23 14 12 30 -13 9 -14
20 -22 25 -19 5 3 9 0 9 -6 0 -7 -7 -9 -16 -6 -11 4 -18 -1 -21 -14 -6 -24
-13 -25 -39 -5 -27 20 -124 20 -124 0 0 -12 -14 -15 -62 -17 -97 -3 -178 -2
-235 2 -47 4 -54 7 -63 33 -5 16 -14 26 -19 22 -6 -3 -30 0 -55 6 -34 8 -46
16 -46 30 0 15 8 18 60 18 45 -1 60 -4 60 -15 0 -16 10 -17 90 -15 42 2 52 -1
40 -9 -12 -9 -10 -10 10 -4 14 4 28 11 31 16 3 5 19 10 35 12 21 2 30 9 32 25
4 27 47 28 82 1z m-1200 -30 c0 -5 -9 -10 -20 -10 -11 0 -20 5 -20 10 0 6 9
10 20 10 11 0 20 -4 20 -10z m-2192 -46 c34 -10 26 -24 -13 -24 -33 0 -43 8
-28 23 8 8 12 8 41 1z m3685 -11 c-7 -2 -21 -2 -30 0 -10 3 -4 5 12 5 17 0 24
-2 18 -5z m-5693 -23 c0 -5 -2 -10 -4 -10 -3 0 -8 5 -11 10 -3 6 -1 10 4 10 6
0 11 -4 11 -10z m19 -56 c6 4 18 3 25 -3 8 -7 18 -11 22 -9 14 3 124 -31 174
-55 l45 -21 -60 -9 c-41 -6 -61 -5 -63 2 -2 6 -17 11 -33 11 -17 0 -39 5 -49
10 -17 9 -19 8 -13 -7 6 -17 5 -17 -14 0 -11 9 -25 17 -32 17 -7 0 -9 5 -6 10
4 6 3 10 -2 9 -17 -4 -56 18 -45 25 7 4 12 17 12 29 0 20 1 20 13 2 8 -10 19
-15 26 -11z m5498 20 c-3 -3 -12 -4 -19 -1 -8 3 -5 6 6 6 11 1 17 -2 13 -5z
m298 -39 c11 -7 38 -13 59 -14 43 -1 51 -5 42 -20 -8 -12 -90 -5 -122 11 -14
6 -40 6 -79 -1 -70 -13 -91 1 -47 31 30 19 110 16 147 -7z m-5955 3 c0 -4 9
-8 20 -8 21 0 27 -15 10 -25 -5 -3 -29 0 -52 6 -52 15 -52 15 -43 28 7 13 65
11 65 -1z m2700 -34 c0 -25 -7 -28 -34 -18 -22 8 -20 42 2 47 25 5 32 -1 32
-29z m-64 -1 c-10 -10 -19 5 -10 18 6 11 8 11 12 0 2 -7 1 -15 -2 -18z m-2491
-33 c8 -13 1 -13 -49 2 -51 14 -48 12 -41 30 5 14 11 13 45 -3 21 -10 42 -23
45 -29z m5952 34 c-3 -3 -12 -4 -19 -1 -8 3 -5 6 6 6 11 1 17 -2 13 -5z
m-5483 -13 c17 -6 46 -14 65 -18 19 -5 36 -13 38 -19 6 -18 -72 -23 -130 -10
-29 7 -75 10 -102 6 l-50 -6 58 -22 c32 -12 61 -22 65 -22 5 0 17 -7 28 -15
19 -14 19 -14 -3 -15 -12 0 -29 7 -38 16 -12 13 -31 15 -87 13 -51 -3 -72 0
-75 9 -3 6 2 12 11 12 8 0 22 10 30 21 36 52 115 73 190 50z m294 -58 c37 -6
40 -13 12 -38 -26 -23 -98 -36 -122 -22 -37 23 6 82 52 71 14 -3 40 -8 58 -11z
m182 7 c11 -7 9 -11 -13 -19 -16 -6 -35 -11 -43 -11 -8 0 -14 -5 -14 -11 0 -8
-5 -7 -15 1 -34 28 45 66 85 40z m4090 -110 c16 0 35 -7 44 -15 8 -9 19 -15
23 -14 29 7 82 -38 66 -55 -10 -10 -81 -7 -88 4 -3 6 -24 10 -46 10 -21 0 -39
5 -39 11 0 6 -7 17 -15 25 -17 18 -8 47 12 40 8 -3 27 -6 43 -6z m-4508 -37
c18 -16 24 -33 11 -33 -10 1 -46 50 -37 50 4 0 16 -7 26 -17z m-56 -57 c3 -14
14 -32 25 -42 10 -9 19 -25 19 -36 0 -18 9 -22 45 -18 16 2 17 0 6 -14 -11
-13 -9 -16 14 -22 22 -5 25 -11 21 -30 -5 -20 -2 -24 15 -24 34 0 16 -24 -28
-36 -22 -7 -51 -17 -62 -24 -17 -9 -26 -9 -38 1 -13 12 -13 14 4 21 13 6 9 7
-14 5 -30 -3 -32 -2 -18 13 20 22 19 27 -5 33 -11 3 -19 11 -18 19 2 7 -3 12
-10 10 -8 -1 -11 2 -7 8 3 5 13 10 21 10 8 0 14 9 14 20 0 11 -4 20 -9 20 -5
0 -11 12 -14 28 -3 15 -9 39 -13 55 -6 24 -4 27 20 27 19 0 27 -6 32 -24z
m-882 -57 c50 -6 117 -23 155 -38 96 -39 221 -125 221 -152 0 -12 -42 -5 -77
15 -74 40 -96 48 -104 35 -6 -11 -12 -11 -31 0 -13 7 -31 11 -39 9 -7 -2 -13
3 -11 10 2 10 -2 10 -17 3 -11 -6 -40 -8 -65 -5 -43 6 -46 5 -47 -17 -1 -15
-3 -18 -6 -8 -5 20 -44 27 -207 35 -97 5 -117 3 -110 -8 6 -11 5 -11 -8 0 -18
14 -34 9 -98 -29 -51 -30 -100 -45 -100 -29 0 18 101 90 177 126 44 21 106 41
151 49 100 17 110 17 216 4z m4294 -16 c-10 -2 -26 -2 -35 0 -10 3 -2 5 17 5
19 0 27 -2 18 -5z m-4736 -203 c50 -14 88 -61 88 -108 0 -20 -18 -116 -40
-212 -22 -96 -52 -233 -66 -305 -46 -229 -57 -255 -130 -294 -39 -21 -139 -29
-191 -15 -26 7 -31 24 -8 24 8 0 15 -4 15 -10 0 -16 124 -12 156 5 21 11 24
15 11 15 -11 0 -21 9 -24 20 -3 13 -17 22 -38 26 -19 3 -36 12 -39 19 -3 8 2
11 12 9 9 -3 31 4 48 15 34 21 33 18 78 246 41 204 56 277 66 315 5 19 12 56
15 83 l7 47 -40 0 c-44 0 -69 -17 -77 -53 -24 -105 -99 -446 -110 -502 -19
-99 -33 -145 -34 -119 -1 25 -28 39 -46 24 -27 -22 -24 -51 8 -81 41 -40 20
-58 -30 -26 -42 28 -49 55 -34 131 7 34 19 93 27 131 7 39 27 135 44 215 17
80 35 172 42 205 6 33 19 77 29 97 43 86 154 127 261 98z m1850 4 c21 -4 49
-18 63 -32 32 -31 33 -92 5 -210 -11 -46 -18 -88 -14 -93 3 -5 -19 -9 -50 -9
l-55 0 5 53 c2 29 10 77 18 107 8 30 13 57 10 61 -6 10 -107 -10 -116 -23 -4
-7 -8 -20 -8 -28 0 -17 -37 -184 -73 -330 -13 -52 -26 -88 -29 -80 -4 12 -8
12 -18 3 -14 -13 -5 -48 10 -38 13 8 13 -1 -2 -103 -13 -90 -9 -102 38 -102
40 0 55 24 82 135 l27 110 54 3 53 3 -5 -28 c-39 -221 -75 -313 -109 -280 -22
21 -63 15 -66 -9 -2 -17 -10 -22 -30 -21 -111 4 -142 -20 -34 -26 66 -4 66 -4
-10 -3 -79 1 -103 10 -78 27 12 8 10 9 -7 4 -17 -5 -25 0 -37 24 -22 41 -20
107 4 194 19 67 30 118 65 302 43 231 58 286 92 325 45 55 126 78 215 64z
m-3027 -14 c4 -6 1 -35 -5 -66 l-12 -55 -91 2 -92 2 -27 -124 c-15 -68 -26
-129 -23 -136 2 -7 27 -13 57 -15 l53 -3 -2 -35 c-6 -81 -7 -82 -79 -78 -72 3
-68 7 -79 -77 -7 -50 -42 -191 -51 -207 -3 -4 35 -8 83 -8 101 0 116 -8 100
-50 -16 -42 -67 -49 -67 -9 0 10 -5 19 -11 19 -5 0 -7 5 -4 10 3 6 -3 10 -15
10 -12 0 -18 -5 -15 -10 3 -6 -1 -13 -9 -16 -9 -3 -16 -16 -17 -28 0 -21 0
-21 -11 2 -11 21 -48 32 -48 13 0 -5 -13 -11 -30 -14 -16 -4 -30 -11 -30 -17
0 -6 46 -10 125 -10 77 0 125 -4 125 -10 0 -6 -58 -10 -155 -10 l-155 0 0 28
c0 15 4 42 10 61 10 37 63 293 80 386 5 33 17 92 25 130 8 39 21 102 29 140 8
39 20 96 26 128 l13 57 148 0 c89 0 150 -4 154 -10z m188 3 c6 -9 -19 -137
-68 -353 -9 -41 -23 -104 -31 -140 -9 -36 -19 -94 -25 -130 -5 -35 -14 -81
-20 -100 -17 -57 -9 -84 26 -88 51 -5 63 14 95 144 16 66 34 147 40 180 12 71
32 172 54 274 9 41 21 100 27 130 18 96 14 91 77 88 l57 -3 -2 -44 c-1 -24 -9
-71 -16 -105 -8 -34 -22 -97 -31 -141 -10 -44 -23 -105 -31 -135 -13 -52 -22
-96 -65 -302 -18 -90 -60 -178 -85 -178 -8 0 -19 8 -24 19 -14 25 -87 44 -115
29 -12 -6 -25 -16 -29 -22 -4 -6 -7 0 -5 14 4 33 -24 34 -32 1 -3 -14 -12 -27
-19 -29 -8 -3 -11 0 -7 7 4 6 3 11 -3 11 -23 0 -20 -20 4 -26 26 -6 35 -24 12
-24 -18 0 -41 27 -57 68 -13 34 -11 64 15 177 8 39 22 106 30 150 39 211 101
511 109 524 8 12 112 15 119 4z m588 -7 c81 -34 90 -73 54 -242 -33 -156 -55
-209 -95 -232 l-30 -17 -2 -165 -3 -165 -25 3 c-16 2 -37 -7 -55 -23 -17 -14
-34 -25 -39 -25 -4 0 -7 80 -5 177 l4 177 -30 0 -29 0 -23 -119 c-44 -230 -42
-225 -93 -246 -38 -15 -41 -18 -20 -20 14 -1 30 -3 37 -3 6 -1 15 -5 19 -9 4
-4 -21 -7 -55 -7 l-63 0 5 43 c4 40 21 125 51 267 8 36 35 169 61 295 26 127
52 251 58 278 l10 47 117 0 c79 0 129 -5 151 -14z m1096 2 c8 -13 7 -25 -3
-87 l-5 -33 -64 4 -63 4 -12 -61 c-7 -33 -28 -130 -47 -215 -40 -182 -57 -262
-73 -349 -6 -35 -17 -79 -23 -99 -11 -33 -14 -35 -57 -35 -25 0 -51 -4 -57
-10 -18 -13 -17 -5 13 136 15 67 33 151 40 187 8 36 19 90 24 121 5 30 21 106
35 169 35 157 35 156 -18 152 -60 -5 -70 10 -55 76 l13 52 172 0 c127 0 174
-3 180 -12z m318 -2 c51 -18 85 -58 85 -99 0 -32 -28 -177 -49 -254 -19 -71
-46 -112 -83 -126 -16 -6 -18 -26 -20 -204 0 -109 -1 -206 0 -215 2 -16 -7
-18 -63 -18 -81 0 -87 19 -7 22 l57 2 -59 3 -58 4 3 181 4 181 -28 8 c-30 8
-29 12 -47 -101 -6 -36 -15 -76 -20 -90 -5 -14 -14 -45 -20 -69 -10 -38 -14
-43 -35 -39 -17 4 -29 -3 -46 -25 -13 -16 -29 -34 -36 -41 -8 -8 3 -14 45 -22
l57 -12 -62 -1 c-72 -1 -69 -7 -47 99 8 41 21 107 28 145 8 39 23 115 34 170
12 55 25 125 31 155 20 107 71 342 77 351 9 14 214 10 259 -5z m289 -26 c-1
-31 -37 -208 -79 -390 -8 -36 -20 -90 -25 -120 -5 -30 -17 -96 -27 -146 -20
-113 -16 -129 34 -121 20 4 41 14 47 24 14 25 39 127 65 263 12 63 26 131 30
150 5 19 12 55 16 80 3 25 10 59 15 75 7 25 26 111 46 203 4 21 9 23 62 20 50
-3 57 -5 55 -23 -2 -29 -28 -158 -63 -315 -17 -74 -35 -162 -41 -195 -15 -90
-60 -276 -75 -312 -22 -52 -74 -85 -148 -90 -70 -6 -136 3 -136 17 0 6 7 10
15 10 8 0 15 -4 15 -10 0 -5 25 -10 55 -10 30 0 55 3 55 7 0 4 -12 18 -27 30
-18 16 -33 21 -47 16 -12 -4 -34 -7 -51 -7 -21 -1 -29 -5 -27 -16 7 -31 -15 6
-28 48 -15 46 -11 83 25 232 8 36 22 101 30 145 18 95 37 191 60 300 9 44 21
98 26 120 4 22 8 44 9 48 0 4 26 7 58 5 l57 -3 -1 -35z m853 25 c2 -6 -18 -9
-52 -7 -30 2 -55 8 -55 13 0 13 102 7 107 -6z m277 7 c2 -4 -22 -8 -54 -8 -32
0 -56 4 -54 8 7 10 101 10 108 0z m-381 -62 c3 -11 1 -23 -4 -26 -5 -3 -9 6
-9 20 0 31 6 34 13 6z m3436 6 c14 -17 -11 -41 -34 -32 -29 11 -45 -5 -45 -45
0 -32 -4 -39 -19 -39 -41 0 -39 106 2 115 12 2 31 6 42 8 36 8 42 7 54 -7z
m115 -5 c6 -9 -12 -71 -20 -71 -3 0 -18 7 -35 15 -29 16 -29 16 -12 40 18 24
57 33 67 16z m-4241 -21 c7 -27 -2 -57 -19 -64 -15 -6 -20 9 -5 18 5 3 7 19 5
36 -4 33 11 41 19 10z m677 -45 c9 -23 24 -30 56 -26 7 1 15 -6 18 -15 8 -21
-3 -84 -15 -84 -5 0 -6 -7 -3 -15 4 -8 1 -15 -5 -15 -6 0 -11 6 -11 13 0 7 -3
8 -8 2 -9 -12 -45 -13 -54 -1 -3 5 -5 -9 -4 -31 2 -31 -3 -44 -17 -53 -18 -11
-19 -9 -12 42 3 29 13 79 21 111 8 32 14 67 14 78 0 26 9 24 20 -6z m195 -25
c-5 -17 -2 -20 22 -22 15 0 36 -1 45 0 11 1 15 -3 12 -12 -3 -9 -15 -13 -29
-10 -13 2 -26 0 -30 -5 -3 -6 -13 -7 -21 -4 -10 4 -17 -2 -21 -17 -4 -17 -8
-19 -15 -8 -8 10 -11 10 -15 0 -2 -7 -11 -18 -18 -25 -7 -7 -20 -28 -29 -45
-9 -18 -21 -30 -27 -27 -5 4 -4 12 4 19 7 8 38 50 67 95 30 44 56 81 58 81 2
0 0 -9 -3 -20z m-3423 -5 c4 -4 -7 -61 -46 -245 -8 -36 -22 -104 -32 -153 -14
-72 -22 -90 -43 -104 -14 -9 -36 -16 -48 -15 -13 1 -23 -3 -23 -8 0 -6 7 -10
16 -10 8 0 13 -4 9 -9 -3 -6 -13 -9 -23 -8 -13 1 -18 9 -18 34 0 32 1 33 36
28 l35 -5 -30 15 c-16 8 -35 14 -41 15 -20 0 -36 28 -29 50 5 16 15 20 54 20
62 0 79 14 96 79 21 81 2 117 -62 113 -29 -2 -33 0 -33 22 0 28 27 164 36 177
5 9 137 13 146 4z m7722 -11 c24 -9 0 -28 -56 -44 -27 -8 -48 -18 -48 -22 0
-14 45 -38 72 -38 16 0 28 -4 28 -9 0 -14 -60 -22 -82 -10 -11 6 -29 9 -39 6
-21 -6 -69 27 -69 47 0 7 8 20 18 29 14 13 21 14 30 5 9 -9 15 -9 24 0 7 7 25
12 40 12 16 0 31 7 34 15 6 16 22 19 48 9z m-5184 -8 c0 -3 -4 -8 -10 -11 -5
-3 -10 -1 -10 4 0 6 5 11 10 11 6 0 10 -2 10 -4z m4835 -6 c8 -13 -5 -13 -25
0 -13 8 -13 10 2 10 9 0 20 -4 23 -10z m445 -55 c-7 -8 -14 -15 -15 -15 -2 0
-5 7 -9 15 -4 10 1 15 16 15 17 0 18 -2 8 -15z m194 -4 c3 -5 -1 -14 -8 -20
-16 -13 -32 2 -21 19 8 12 22 13 29 1z m-167 -17 c-3 -3 -12 -4 -19 -1 -8 3
-5 6 6 6 11 1 17 -2 13 -5z m-4907 -44 c0 -5 -5 -10 -11 -10 -5 0 -7 5 -4 10
3 6 8 10 11 10 2 0 4 -4 4 -10z m3965 -20 c3 -6 -1 -7 -9 -4 -18 7 -21 14 -7
14 6 0 13 -4 16 -10z m-3960 -32 c-19 -11 -30 -5 -21 11 4 6 14 7 22 4 15 -5
14 -7 -1 -15z m155 -37 c0 -14 -21 -19 -107 -26 -79 -7 -104 0 -88 25 8 12
195 13 195 1z m57 -33 c-3 -8 -6 -5 -6 6 -1 11 2 17 5 13 3 -3 4 -12 1 -19z
m-70 -23 c3 -9 3 -18 0 -21 -3 -3 -46 -8 -96 -11 -80 -5 -91 -4 -97 12 -11 27
13 35 104 35 65 0 84 -3 89 -15z m-44 -54 c15 0 27 -4 27 -8 0 -5 -43 -8 -95
-8 -88 0 -104 3 -90 17 5 5 65 4 158 -1z m5275 -53 c-6 -18 -25 -21 -31 -5 -3
8 3 13 15 14 10 1 18 -3 16 -9z m67 2 c3 -5 -1 -10 -10 -10 -9 0 -13 5 -10 10
3 6 8 10 10 10 2 0 7 -4 10 -10z m-191 -46 c5 -14 4 -15 -9 -4 -17 14 -19 20
-6 20 5 0 12 -7 15 -16z m-5320 -9 c-4 -8 -8 -15 -10 -15 -2 0 -4 7 -4 15 0 8
4 15 10 15 5 0 7 -7 4 -15z m-3567 -11 c-3 -3 -12 -4 -19 -1 -8 3 -5 6 6 6 11
1 17 -2 13 -5z m3824 -24 c5 0 11 0 14 0 3 0 19 -7 36 -15 29 -15 30 -18 23
-63 -8 -54 -29 -119 -46 -139 -6 -7 -19 -11 -29 -8 -13 4 -19 1 -19 -8 0 -9
-6 -18 -12 -20 -7 -3 4 -6 24 -6 65 -2 54 -21 -11 -21 -60 0 -61 0 -60 28 1
15 4 40 8 57 l6 30 23 -23 c28 -28 36 -23 39 27 2 28 -3 43 -17 56 -23 21 -27
83 -6 91 8 3 13 13 11 22 -1 9 0 11 2 5 3 -7 9 -13 14 -13z m4612 23 c-7 -2
-19 -2 -25 0 -7 3 -2 5 12 5 14 0 19 -2 13 -5z m610 -14 c18 -17 18 -18 -3
-29 -25 -14 -33 -8 -34 23 -2 28 12 30 37 6z m-707 -4 c13 -10 14 -14 5 -15
-10 0 -11 -3 -2 -14 9 -11 9 -15 -1 -18 -24 -8 -56 4 -61 24 -5 16 -12 19 -31
16 -25 -5 -33 2 -19 15 12 13 89 7 109 -8z m-1391 -73 c-3 -8 0 -21 6 -28 9
-11 8 -14 -3 -14 -17 0 -44 93 -32 112 10 16 37 -49 29 -70z m-7222 61 c-7 -2
-19 -2 -25 0 -7 3 -2 5 12 5 14 0 19 -2 13 -5z m314 1 c-3 -3 -12 -4 -19 -1
-8 3 -5 6 6 6 11 1 17 -2 13 -5z m3510 -16 c-3 -8 -6 -5 -6 6 -1 11 2 17 5 13
3 -3 4 -12 1 -19z m5268 -8 c-10 -11 -20 -18 -23 -15 -7 6 18 35 31 35 5 0 2
-9 -8 -20z m-9165 -30 c0 -5 -5 -10 -11 -10 -5 0 -7 5 -4 10 3 6 8 10 11 10 2
0 4 -4 4 -10z m915 0 c3 -5 -1 -10 -9 -10 -9 0 -16 5 -16 10 0 6 4 10 9 10 6
0 13 -4 16 -10z m3483 -2 c7 -7 12 -20 12 -29 0 -9 7 -19 15 -23 8 -3 15 -12
15 -21 0 -8 5 -15 10 -15 6 0 10 8 10 17 0 47 39 -56 43 -112 l2 -30 -67 -3
c-43 -2 -68 1 -68 8 0 5 20 10 45 10 l45 0 -22 25 -22 25 -21 -20 -21 -20 -12
34 c-16 44 -27 130 -19 150 7 19 38 21 55 4z m-103 -127 c3 -5 1 -12 -5 -16
-5 -3 -10 1 -10 9 0 18 6 21 15 7z m4869 -39 c81 -1 122 -30 124 -89 1 -28 -2
-34 -14 -29 -9 3 -24 6 -34 6 -10 0 -20 9 -23 20 -7 28 -34 36 -56 16 -18 -16
-20 -16 -35 6 l-16 22 0 -22 c0 -12 -4 -22 -10 -22 -5 0 -10 7 -10 16 0 14 -2
14 -15 1 -18 -19 -52 -11 -60 14 -4 10 -13 19 -21 19 -8 0 -14 5 -14 10 0 6
-8 10 -19 10 -10 0 -24 7 -31 15 -13 16 -8 17 113 17 29 0 47 4 47 11 1 7 6 5
13 -4 8 -10 29 -16 61 -17z m-282 -8 c-1 -10 -3 -30 -5 -44 -2 -20 -8 -24 -27
-22 -32 3 -35 8 -19 28 8 10 13 19 12 21 -8 10 -1 23 13 23 9 0 12 5 8 11 -4
7 -1 10 7 7 8 -3 13 -14 11 -24z m468 7 c0 -12 -29 -23 -41 -15 -5 3 -7 10 -4
15 8 12 45 12 45 0z m-8937 -28 c-7 -2 -19 -2 -25 0 -7 3 -2 5 12 5 14 0 19
-2 13 -5z m8311 -24 c-9 -10 -21 -16 -26 -13 -11 7 24 43 35 37 5 -3 1 -13 -9
-24z m-7504 11 c0 -13 -57 -22 -120 -17 -51 3 -50 3 17 5 39 1 75 7 78 12 8
13 25 13 25 0z m529 -6 c2 -2 -25 -3 -60 -3 -49 1 -57 3 -34 9 27 6 84 3 94
-6z m871 6 c0 -5 -25 -10 -55 -10 -30 0 -55 5 -55 10 0 6 25 10 55 10 30 0 55
-4 55 -10z m1330 0 c0 -5 -7 -10 -15 -10 -8 0 -15 5 -15 10 0 6 7 10 15 10 8
0 15 -4 15 -10z m-271 -21 c28 -12 51 -25 51 -29 0 -9 -82 19 -116 38 -34 20
9 14 65 -9z m1529 9 c-3 -7 -22 -14 -44 -15 l-39 -2 30 14 c38 18 58 19 53 3z
m-1617 -36 c-7 -2 -18 1 -23 6 -8 8 -4 9 13 5 13 -4 18 -8 10 -11z m5795 1
c17 -17 17 -18 -5 -21 -27 -4 -47 11 -37 27 10 16 22 14 42 -6z m-8025 -6 c-1
-12 -15 -9 -19 4 -3 6 1 10 8 8 6 -3 11 -8 11 -12z m2274 -7 c4 -6 10 -8 14
-6 4 3 13 1 21 -5 12 -7 11 -9 -6 -9 -21 0 -68 29 -47 30 6 0 15 -5 18 -10z
m5140 0 c-3 -5 -11 -10 -16 -10 -6 0 -7 5 -4 10 3 6 11 10 16 10 6 0 7 -4 4
-10z m292 -22 c-3 -8 -6 -5 -6 6 -1 11 2 17 5 13 3 -3 4 -12 1 -19z m-17 -8
c0 -11 -6 -20 -14 -20 -9 0 -12 7 -9 20 3 11 9 20 14 20 5 0 9 -9 9 -20z m224
-35 c-4 -8 -10 -15 -15 -15 -5 0 -9 7 -9 15 0 8 7 15 15 15 9 0 12 -6 9 -15z
m-5356 -38 c6 -5 11 -21 11 -36 -2 -23 -2 -24 -6 -3 -4 21 -18 27 -55 24 -17
-2 -25 18 -12 30 7 7 45 -2 62 -15z m1332 -7 c0 -5 -8 -10 -17 -10 -15 0 -16
2 -3 10 19 12 20 12 20 0z m3845 -17 c4 -18 2 -29 -8 -35 -9 -5 -13 -16 -10
-28 4 -17 0 -20 -25 -20 -17 0 -34 5 -37 10 -3 6 -2 10 3 10 5 0 12 8 15 19 3
14 0 17 -14 14 -35 -9 -20 22 19 39 49 22 49 22 57 -9z m115 -28 c0 -16 -6
-25 -15 -25 -18 0 -19 4 -3 30 16 26 18 25 18 -5z m-550 -5 c0 -5 -5 -10 -11
-10 -5 0 -7 5 -4 10 3 6 8 10 11 10 2 0 4 -4 4 -10z m110 0 c0 -5 -5 -10 -11
-10 -5 0 -7 5 -4 10 3 6 8 10 11 10 2 0 4 -4 4 -10z m513 -17 c8 -7 -11 -33
-24 -33 -5 0 -9 9 -9 20 0 19 20 27 33 13z m-120 -29 c3 -20 -1 -27 -20 -35
-38 -14 -44 -2 -15 30 15 16 28 29 28 30 1 0 4 -11 7 -25z m-458 -34 c4 -6 -6
-10 -22 -9 -25 0 -26 1 -8 9 11 5 21 9 22 9 1 1 5 -3 8 -9z m45 -40 c0 -5 -8
-10 -17 -10 -15 0 -16 2 -3 10 19 12 20 12 20 0z m397 -3 c7 0 15 -7 17 -14 3
-8 2 -12 -3 -9 -15 10 -76 -14 -89 -34 -14 -22 -7 -44 10 -34 6 4 8 1 6 -7 -3
-8 -12 -13 -19 -11 -8 2 -4 -6 8 -17 28 -26 43 -27 43 -1 0 16 5 19 23 15 18
-5 29 2 54 33 26 32 37 38 57 35 14 -3 23 -10 20 -15 -3 -5 -12 -7 -20 -4 -8
3 -11 0 -8 -9 8 -19 -14 -55 -32 -55 -10 0 -14 -6 -11 -14 3 -8 -5 -18 -20
-25 -27 -12 -26 -38 2 -33 10 2 14 -1 10 -7 -4 -7 9 -11 37 -11 24 0 38 -4 31
-8 -13 -9 -111 -7 -120 2 -3 3 -13 1 -20 -6 -10 -8 -17 -8 -21 -1 -4 6 -16 13
-27 16 -15 3 -13 5 8 6 18 1 27 6 24 14 -4 14 -45 11 -64 -5 -10 -8 -13 -5
-13 10 0 17 -5 19 -45 14 -43 -4 -45 -4 -45 21 0 21 -9 31 -42 49 -35 18 -39
23 -23 26 11 2 24 8 29 13 5 4 17 4 28 -2 22 -12 41 -2 34 17 -3 8 1 17 9 21
13 5 13 7 -2 19 -17 12 -17 13 5 14 12 0 22 -5 22 -11 0 -5 5 -7 10 -4 6 3 10
2 10 -3 0 -6 9 -8 20 -5 11 3 20 9 20 13 0 12 31 18 55 12 11 -3 25 -5 32 -5z
m-5787 -2 c0 -3 -7 -16 -16 -30 -8 -13 -16 -37 -16 -54 -1 -17 -6 -31 -13 -31
-15 0 -5 65 16 98 13 20 29 30 29 17z m5825 -35 c-10 -11 -15 -20 -12 -20 4 0
-1 -8 -10 -18 -22 -23 -53 -16 -53 10 0 18 2 19 16 7 14 -12 19 -10 38 13 11
15 25 27 30 27 5 1 1 -8 -9 -19z m-517 -2 c-2 -6 -10 -14 -16 -16 -7 -2 -10 2
-6 12 7 18 28 22 22 4z m101 -15 c-10 -11 -11 -17 -3 -20 7 -2 10 -13 7 -23
-6 -22 -18 -26 -28 -10 -4 6 -11 8 -16 4 -6 -3 -2 -12 10 -20 18 -13 24 -13
50 0 25 14 30 14 41 1 7 -8 19 -15 26 -15 8 0 14 -9 14 -20 0 -12 7 -20 18
-20 15 -1 15 -2 -2 -15 -19 -14 -18 -15 10 -15 22 0 26 -3 14 -10 -9 -6 -10
-10 -3 -10 6 0 15 5 18 10 9 14 45 12 43 -2 -2 -7 13 -16 32 -20 20 -4 -8 -5
-63 -3 -57 3 -96 1 -92 -5 7 -12 -12 -23 -26 -14 -8 4 -7 9 2 15 9 6 -2 9 -31
10 -25 0 -54 2 -64 4 -11 2 -27 0 -35 -5 -11 -7 2 -9 42 -10 31 0 57 -4 57
-10 0 -18 -117 -12 -135 7 -16 16 -16 17 1 30 16 12 16 13 1 13 -21 0 -21 13
0 57 13 29 14 36 3 43 -12 7 -12 13 0 35 13 24 19 26 52 22 21 -3 41 -1 44 4
3 5 10 9 16 9 6 0 5 -7 -3 -17z m58 -13 c1 -11 -4 -20 -13 -20 -16 0 -16 2 -8
24 8 22 19 20 21 -4z m441 -92 c19 -19 14 -30 -8 -18 -11 6 -20 15 -20 20 0
14 14 12 28 -2z m46 -20 c-4 -34 -5 -35 -13 -13 -9 21 -5 35 8 35 4 0 7 -10 5
-22z m-3010 -238 c5 -5 6 -16 3 -24 -5 -13 -25 -16 -104 -16 -89 0 -102 2
-136 25 -20 14 -37 28 -37 31 0 9 264 -7 274 -16z m502 -27 c-11 -12 -284 -14
-291 -3 -4 6 50 10 146 10 84 0 149 -3 145 -7z m-729 -39 c-3 -3 -12 -4 -19
-1 -8 3 -5 6 6 6 11 1 17 -2 13 -5z m353 -11 c57 -5 61 -7 35 -14 -16 -5 -58
-10 -92 -11 -39 -1 -62 -6 -60 -13 2 -5 11 -9 20 -7 8 1 18 -2 22 -8 3 -6 -3
-10 -15 -10 -12 0 -30 -4 -40 -10 -13 -7 -21 -6 -30 5 -7 8 -16 15 -21 15 -7
0 -99 59 -99 63 0 4 215 -3 280 -10z m-232 -73 c5 0 12 -7 16 -15 7 -20 -42
-20 -68 0 -11 8 -24 15 -30 15 -5 0 -1 -6 9 -14 17 -12 6 -14 -88 -14 -98 0
-107 2 -107 19 0 16 8 19 58 19 33 0 64 -5 71 -12 11 -10 14 -10 18 0 3 6 12
12 20 12 11 0 14 8 11 30 l-4 30 42 -35 c23 -19 47 -35 52 -35z m342 66 c0 -3
-4 -8 -10 -11 -5 -3 -10 -1 -10 4 0 6 5 11 10 11 6 0 10 -2 10 -4z m-660 -82
c0 -8 -4 -14 -10 -14 -5 0 -10 9 -10 21 0 11 5 17 10 14 6 -3 10 -13 10 -21z
m2670 -486 c0 -5 -4 -8 -10 -8 -5 0 -10 10 -10 23 0 18 2 19 10 7 5 -8 10 -18
10 -22z m-1415 -93 l130 0 1 -50 c0 -27 8 -63 17 -80 9 -16 15 -30 14 -31 -12
-11 -117 -37 -178 -45 -109 -13 -125 -6 -133 68 -4 32 -12 75 -17 96 -11 43
-4 62 20 50 9 -4 75 -8 146 -8z m-1340 -265 c-3 -5 -10 -10 -16 -10 -5 0 -9 5
-9 10 0 6 7 10 16 10 8 0 12 -4 9 -10z m254 -191 c-19 -12 -79 -11 -79 1 0 5
21 9 46 8 30 0 41 -4 33 -9z m431 -5 c0 -8 -5 -12 -10 -9 -6 4 -8 11 -5 16 9
14 15 11 15 -7z m-60 -21 c29 -33 31 -48 11 -86 -19 -35 -35 -30 -37 12 -2 37
-8 46 -24 36 -7 -4 -10 -18 -7 -31 5 -26 -11 -32 -31 -12 -17 17 -15 36 9 74
25 41 48 43 79 7z m100 17 c0 -5 -4 -10 -10 -10 -5 0 -10 5 -10 10 0 6 5 10
10 10 6 0 10 -4 10 -10z m387 -142 c-3 -7 -5 -2 -5 12 0 14 2 19 5 13 2 -7 2
-19 0 -25z m-507 1 c0 -5 -7 -9 -15 -9 -15 0 -20 12 -9 23 8 8 24 -1 24 -14z
m1204 -40 c-7 -13 -24 7 -24 29 0 10 4 10 16 -2 8 -9 12 -21 8 -27z m-229
-209 c3 -5 -9 -17 -28 -26 -24 -12 -42 -32 -60 -70 -15 -30 -27 -61 -27 -68 0
-14 -69 -36 -113 -36 -30 0 -33 7 -42 91 l-7 65 39 12 c21 6 73 14 116 18 43
4 80 11 83 15 7 12 31 11 39 -1z m-928 -526 c-3 -3 -12 -4 -19 -1 -8 3 -5 6 6
6 11 1 17 -2 13 -5z m2953 -116 c0 -4 -12 -8 -26 -8 -14 0 -23 4 -19 9 6 11
45 10 45 -1z m-3170 -19 c0 -5 -4 -9 -10 -9 -5 0 -10 7 -10 16 0 8 5 12 10 9
6 -3 10 -10 10 -16z"/>
<path d="M6058 6273 c12 -2 32 -2 45 0 12 2 2 4 -23 4 -25 0 -35 -2 -22 -4z"/>
<path d="M6258 6273 c12 -2 32 -2 45 0 12 2 2 4 -23 4 -25 0 -35 -2 -22 -4z"/>
<path d="M6733 6273 c15 -2 37 -2 50 0 12 2 0 4 -28 4 -27 0 -38 -2 -22 -4z"/>
<path d="M6488 6253 c7 -3 16 -2 19 1 4 3 -2 6 -13 5 -11 0 -14 -3 -6 -6z"/>
<path d="M7056 5485 c4 -8 10 -12 15 -9 11 6 2 24 -11 24 -5 0 -7 -7 -4 -15z"/>
<path d="M7020 5475 c7 -9 15 -13 17 -11 7 7 -7 26 -19 26 -6 0 -6 -6 2 -15z"/>
<path d="M6935 5461 c-6 -11 9 -23 19 -14 9 9 7 23 -3 23 -6 0 -12 -4 -16 -9z"/>
<path d="M7940 6019 c0 -5 5 -7 10 -4 6 3 10 8 10 11 0 2 -4 4 -10 4 -5 0 -10
-5 -10 -11z"/>
<path d="M4115 4620 c-3 -5 1 -10 10 -10 9 0 13 5 10 10 -3 6 -8 10 -10 10 -2
0 -7 -4 -10 -10z"/>
<path d="M1784 5086 c-2 -6 -15 -65 -29 -130 -14 -66 -28 -123 -31 -127 -15
-24 87 -29 111 -5 18 17 69 247 57 257 -14 13 -103 17 -108 5z m32 -77 c-8
-19 -15 -26 -15 -17 -1 23 20 75 26 62 2 -7 -3 -27 -11 -45z m-19 -91 c-3 -7
-5 -2 -5 12 0 14 2 19 5 13 2 -7 2 -19 0 -25z m-16 -71 c-13 -13 -15 1 -4 30
7 17 8 17 11 -1 2 -10 -1 -23 -7 -29z"/>
<path d="M3207 5093 c-3 -4 -10 -35 -17 -68 -7 -33 -18 -87 -26 -121 -8 -33
-14 -67 -14 -76 0 -20 29 -28 72 -19 48 10 52 21 95 254 5 26 4 27 -35 27 -22
0 -47 3 -55 6 -8 3 -17 2 -20 -3z"/>
<path d="M9363 4265 c0 -8 4 -15 9 -15 4 0 8 4 8 9 0 6 -4 12 -8 15 -5 3 -9
-1 -9 -9z"/>
<path d="M9127 3911 c8 -20 24 -41 32 -41 4 0 8 11 9 24 1 18 -4 25 -22 28
-19 4 -23 1 -19 -11z"/>
<path d="M9098 3833 c7 -3 16 -2 19 1 4 3 -2 6 -13 5 -11 0 -14 -3 -6 -6z"/>
<path d="M8810 3825 c-8 -9 -8 -15 -2 -15 12 0 26 19 19 26 -2 2 -10 -2 -17
-11z"/>
<path d="M8892 3801 c-10 -6 -10 -10 3 -21 13 -11 15 -9 15 9 0 24 0 24 -18
12z"/>
<path d="M8860 3750 c-12 -8 -11 -10 8 -10 12 0 22 5 22 10 0 13 -11 13 -30 0z"/>
<path d="M4820 6268 c0 -5 12 -5 28 -2 39 10 41 15 4 12 -18 -1 -32 -6 -32
-10z"/>
<path d="M2625 5837 c-10 -24 20 -57 45 -50 11 3 17 9 14 15 -3 5 -12 4 -20
-3 -15 -12 -18 -7 -27 36 -4 19 -4 19 -12 2z"/>
<path d="M2521 5813 c-1 -25 14 -37 46 -36 13 1 33 1 45 2 12 1 18 4 14 8 -3
4 -24 6 -46 5 -34 -2 -42 1 -50 20 -9 23 -9 23 -9 1z"/>
<path d="M2416 5801 c-5 -8 -1 -20 12 -33 16 -16 24 -18 38 -9 17 10 17 11 -5
8 -19 -1 -26 4 -31 23 -4 18 -8 21 -14 11z"/>
<path d="M2310 5763 c0 -12 7 -23 15 -27 13 -5 14 -2 4 17 -17 32 -19 33 -19
10z"/>
<path d="M2490 5770 c0 -5 7 -10 16 -10 8 0 12 5 9 10 -3 6 -10 10 -16 10 -5
0 -9 -4 -9 -10z"/>
<path d="M2388 5733 c7 -3 16 -2 19 1 4 3 -2 6 -13 5 -11 0 -14 -3 -6 -6z"/>
<path d="M2053 5657 c-33 -22 -41 -41 -24 -51 12 -8 71 42 71 60 0 19 -9 17
-47 -9z"/>
<path d="M3030 5659 c0 -5 5 -7 10 -4 6 3 10 8 10 11 0 2 -4 4 -10 4 -5 0 -10
-5 -10 -11z"/>
<path d="M8968 5513 c6 -2 18 -2 25 0 6 3 1 5 -13 5 -14 0 -19 -2 -12 -5z"/>
<path d="M9298 5463 c-53 -4 -58 -6 -58 -28 0 -13 5 -27 11 -31 14 -9 248 -22
288 -16 36 5 41 24 9 39 -75 34 -141 44 -250 36z"/>
<path d="M8729 5344 c-10 -13 -10 -17 1 -24 17 -10 30 -4 30 15 0 22 -16 26
-31 9z"/>
<path d="M9490 5310 c0 -5 7 -10 16 -10 8 0 12 5 9 10 -3 6 -10 10 -16 10 -5
0 -9 -4 -9 -10z"/>
<path d="M8360 5303 c-35 -15 -40 -30 -12 -43 52 -25 172 -47 172 -32 0 5 9
12 20 15 11 3 20 1 20 -5 0 -5 5 -6 11 -2 8 4 1 12 -17 22 -16 8 -34 20 -39
27 -12 14 -131 28 -155 18z"/>
<path d="M9000 5273 c0 -6 -18 -14 -40 -18 -59 -10 -59 -25 0 -25 53 0 75 19
51 43 -8 8 -11 8 -11 0z"/>
<path d="M8435 5170 c4 -6 11 -8 16 -5 14 9 11 15 -7 15 -8 0 -12 -5 -9 -10z"/>
<path d="M6145 4775 c-5 -11 -14 -35 -21 -54 -19 -45 -18 -48 13 -56 22 -5 32
-1 51 21 l23 27 -24 26 c-14 14 -27 33 -30 41 -4 12 -6 11 -12 -5z"/>
<path d="M5705 4570 c-3 -5 1 -10 9 -10 9 0 16 5 16 10 0 6 -4 10 -9 10 -6 0
-13 -4 -16 -10z"/>
<path d="M8950 4480 c0 -5 5 -10 10 -10 6 0 10 5 10 10 0 6 -4 10 -10 10 -5 0
-10 -4 -10 -10z"/>
<path d="M9155 4460 c-9 -15 -1 -23 21 -18 15 3 16 4 1 16 -11 9 -17 10 -22 2z"/>
<path d="M5830 4415 c0 -8 5 -15 10 -15 6 0 10 7 10 15 0 8 -4 15 -10 15 -5 0
-10 -7 -10 -15z"/>
<path d="M5570 4220 c0 -5 9 -10 20 -10 11 0 20 5 20 10 0 6 -9 10 -20 10 -11
0 -20 -4 -20 -10z"/>
<path d="M1758 4173 c-32 -20 -45 -47 -54 -111 -6 -46 -4 -51 35 -96 46 -53
45 -48 30 -116 -9 -40 -15 -50 -31 -50 -21 0 -21 15 -1 98 5 20 1 22 -30 22
-34 0 -36 -1 -46 -50 -6 -28 -11 -59 -11 -69 0 -32 33 -51 87 -51 62 0 85 22
101 98 18 80 16 91 -29 139 -38 42 -41 48 -35 86 8 46 21 67 43 67 12 0 14 -8
8 -37 -13 -66 -12 -68 20 -68 28 0 30 3 42 55 7 30 10 62 7 71 -9 32 -92 39
-136 12z"/>
<path d="M1935 4178 c-6 -16 -87 -388 -89 -408 -1 -11 9 -15 33 -15 l35 0 22
110 c12 61 31 155 43 209 11 55 19 101 18 102 -1 0 -14 4 -30 8 -18 4 -29 2
-32 -6z"/>
<path d="M2059 4182 c-26 -3 -27 -8 -68 -200 -53 -247 -52 -226 -16 -230 30
-3 30 -3 51 85 l21 88 -5 -88 -5 -88 33 3 c30 3 36 8 50 48 9 25 22 56 29 70
11 23 11 23 5 -10 -3 -19 -8 -52 -11 -73 l-6 -38 34 3 c34 3 34 3 45 73 7 39
20 106 29 150 10 44 23 108 30 142 l12 61 -36 5 c-20 2 -39 2 -43 -2 -4 -3
-23 -51 -43 -106 -21 -55 -42 -104 -47 -110 -7 -7 -9 29 -7 104 4 123 5 121
-52 113z"/>
<path d="M2343 4182 c-23 -2 -33 -8 -33 -20 0 -9 -16 -91 -35 -181 -48 -220
-43 -237 65 -229 60 4 75 29 105 178 14 69 31 153 39 188 13 58 12 62 -4 62
-10 0 -25 2 -32 5 -14 6 -20 -13 -63 -215 -37 -173 -36 -170 -57 -170 -23 0
-22 9 6 140 28 130 47 232 44 238 -2 4 -18 6 -35 4z"/>
<path d="M2556 4180 c-29 -5 -30 -7 -62 -155 -18 -82 -37 -169 -43 -193 -22
-85 -25 -82 99 -82 97 0 111 2 116 18 11 36 22 47 48 50 24 3 26 0 26 -32 0
-34 2 -36 34 -36 l34 0 6 128 c4 70 9 168 12 217 l5 90 -33 -2 c-18 -1 -36 -2
-40 -2 -4 -1 -10 -11 -14 -23 -3 -13 -22 -63 -41 -113 -103 -270 -89 -245
-141 -245 l-45 0 7 38 c8 48 29 156 51 255 9 42 15 81 13 85 -2 4 -16 5 -32 2z
m199 -227 c-10 -75 -15 -93 -26 -93 -20 0 -19 28 1 83 12 32 24 57 26 57 3 0
2 -21 -1 -47z"/>
<path d="M2875 4172 c-9 -25 -5 -32 20 -32 14 0 25 -5 25 -11 0 -6 -16 -82
-35 -170 -44 -200 -44 -209 -6 -209 22 0 30 6 34 23 3 12 19 91 36 175 17 85
36 163 42 173 5 11 20 19 34 19 16 0 25 6 25 15 0 8 1 18 3 21 1 3 -37 6 -85
7 -65 2 -89 -1 -93 -11z"/>
<path d="M3094 4173 c-31 -15 -46 -45 -59 -113 -9 -53 -35 -170 -46 -212 -8
-29 -6 -44 6 -68 14 -28 20 -30 69 -30 69 0 91 23 111 116 37 171 55 261 55
282 0 40 -77 55 -136 25z m66 -46 c0 -7 -12 -66 -26 -132 -14 -66 -28 -137
-31 -157 -3 -20 -11 -39 -19 -42 -22 -9 -33 17 -24 59 35 176 53 251 61 267
11 21 39 24 39 5z"/>
<path d="M3256 4113 c-9 -43 -24 -109 -32 -148 -8 -38 -22 -98 -30 -133 -8
-35 -12 -67 -9 -73 4 -5 19 -9 35 -9 26 0 30 4 36 38 17 97 30 146 41 149 10
4 11 -17 7 -91 l-6 -96 41 0 42 0 -2 100 c-1 84 1 104 16 120 10 11 26 54 36
97 l19 78 -21 18 c-14 11 -38 17 -74 17 -29 0 -60 2 -67 5 -11 4 -19 -14 -32
-72z m107 -32 c-3 -61 -17 -91 -43 -91 -23 0 -24 13 -9 78 22 89 55 97 52 13z"/>
<path d="M3587 4170 c-26 -21 -47 -73 -47 -117 0 -19 6 -23 28 -23 26 0 29 5
41 51 12 46 33 70 48 56 3 -3 2 -27 -2 -53 -6 -42 -15 -56 -75 -116 -71 -70
-100 -125 -100 -188 l0 -30 90 0 c89 0 90 0 90 25 0 24 -3 25 -54 25 l-54 0
10 38 c7 23 34 62 77 107 60 64 69 78 84 140 18 70 17 70 -4 88 -30 24 -99 23
-132 -3z"/>
<path d="M5520 4098 c-1 -42 -44 -151 -51 -129 -6 18 -99 2 -99 -16 0 -12 11
-14 49 -11 l50 3 -2 -182 c-2 -125 -7 -187 -15 -195 -8 -8 -23 -9 -57 -1 -51
12 -66 2 -34 -21 21 -14 21 -14 -7 -29 -16 -8 -55 -15 -86 -16 -53 0 -60 -3
-102 -44 -25 -24 -46 -49 -46 -55 0 -18 -48 -14 -58 4 -7 12 -18 15 -43 11
-19 -3 -54 -9 -79 -13 -25 -4 -48 -12 -52 -18 -4 -8 -32 -11 -75 -9 -37 1
-106 3 -153 4 -55 1 -91 7 -101 16 -16 13 -89 14 -89 1 0 -5 6 -8 14 -8 17 0
28 -37 12 -43 -6 -3 -34 -1 -61 3 -52 8 -69 5 -46 -10 10 -5 6 -8 -12 -7 -15
1 -27 8 -27 15 0 6 -11 12 -25 12 -19 0 -23 4 -18 17 5 12 2 15 -10 10 -42
-16 -48 6 -26 93 4 13 -52 15 -452 18 l-456 2 -17 -77 c-9 -43 -22 -96 -28
-118 -6 -22 -13 -58 -15 -80 -6 -60 -10 -67 -40 -63 -32 3 -30 -15 -18 195 9
156 6 163 -66 163 -55 0 -69 -13 -95 -95 -9 -27 -22 -63 -29 -80 -7 -16 -21
-56 -31 -87 -10 -32 -21 -58 -25 -58 -3 0 0 26 7 58 8 31 16 71 19 87 3 17 10
56 17 87 14 72 4 88 -58 88 -40 0 -67 -14 -76 -41 -2 -7 -18 -2 -42 14 -37 26
-38 26 -239 24 l-201 -2 -13 -25 c-7 -14 -15 -29 -17 -35 -2 -5 -11 0 -21 13
-9 12 -29 29 -45 37 -34 18 -151 20 -181 4 -15 -7 -24 -7 -34 1 -7 6 -32 10
-55 8 -51 -4 -62 -21 -85 -133 -8 -44 -28 -136 -43 -205 -27 -124 -27 -125
-57 -129 -16 -2 -234 -6 -484 -8 -415 -3 -455 -5 -467 -21 -7 -9 -14 -28 -14
-41 0 -14 -7 -33 -16 -43 -13 -14 -14 -21 -5 -32 8 -9 10 -24 5 -38 -4 -13 -7
-29 -5 -36 2 -10 -4 -12 -20 -7 -15 5 -20 3 -17 -6 3 -8 11 -14 19 -14 21 0
47 -28 55 -59 5 -20 2 -26 -11 -26 -9 0 -14 4 -11 9 3 5 -1 11 -9 15 -8 3 -12
12 -9 20 6 17 -12 31 -21 16 -11 -18 -25 -10 -25 15 0 14 -4 25 -10 25 -5 0
-10 -6 -10 -14 0 -8 -6 -16 -12 -18 -9 -3 -8 -9 4 -22 23 -22 13 -44 -17 -39
-14 3 -26 14 -29 29 -8 29 -27 33 -21 5 3 -17 0 -19 -18 -12 -25 9 -36 41 -14
41 10 0 14 9 13 25 -1 17 -7 25 -19 25 -14 0 -16 4 -7 19 15 29 12 41 -9 41
-16 0 -18 -5 -14 -40 6 -41 -9 -54 -33 -30 -17 17 -52 -1 -64 -33 -8 -23 -13
-28 -22 -19 -8 8 -8 15 1 26 9 10 9 16 1 21 -16 10 -39 -24 -40 -56 0 -31 15
-39 70 -39 48 0 59 -28 25 -60 -22 -21 -24 -21 -49 -5 -14 10 -26 25 -26 35 0
11 -10 20 -25 24 -26 7 -33 34 -14 53 8 8 -3 10 -41 8 -43 -3 -51 -1 -46 12 6
14 4 14 -11 2 -46 -35 -51 -43 -34 -56 14 -11 14 -12 -3 -13 -10 0 -27 -11
-37 -24 -23 -30 -98 -45 -111 -22 -5 8 -15 13 -23 10 -20 -8 -19 6 2 23 16 13
15 14 -12 10 -16 -2 -39 -8 -49 -12 -15 -7 -18 -5 -13 7 4 12 -2 17 -24 22
-27 5 -42 26 -18 26 8 0 8 5 -1 15 -13 16 -55 21 -46 6 3 -5 -2 -8 -12 -7 -16
1 -17 -16 -20 -201 -2 -161 0 -203 10 -203 8 0 46 9 86 20 40 11 78 18 83 14
5 -3 15 -2 22 3 7 5 57 18 112 28 55 10 141 28 192 41 51 13 115 26 143 30 28
4 53 11 56 15 7 12 -26 44 -34 33 -4 -5 -19 -10 -35 -12 -23 -2 -27 1 -27 22
0 15 8 30 20 36 13 7 20 7 20 1 0 -6 7 -8 15 -5 10 4 15 0 15 -10 0 -9 11 -21
25 -28 13 -6 22 -15 19 -19 -3 -5 7 -9 23 -9 22 0 25 2 13 10 -12 8 -11 10 5
8 11 0 33 0 49 0 23 2 27 6 23 22 -3 12 1 23 10 28 12 7 19 24 22 55 1 4 6 7
12 7 8 0 7 -5 -2 -16 -9 -11 -1 -9 29 6 52 27 88 21 103 -17 8 -22 7 -30 -7
-40 -10 -7 -14 -16 -11 -20 4 -4 13 -1 19 5 7 7 23 12 38 12 32 0 55 14 46 29
-4 6 -1 11 7 11 19 0 30 27 14 34 -7 2 -4 5 6 5 9 1 17 6 17 13 0 9 3 9 12 0
21 -21 41 -14 36 13 -3 14 -1 28 4 31 4 3 7 0 6 -7 -2 -9 9 -13 30 -14 17 0
32 3 32 8 0 4 -4 7 -10 7 -5 0 -10 5 -10 10 0 13 47 13 55 0 3 -5 0 -10 -8
-10 -8 0 -18 -12 -21 -26 -5 -20 -10 -24 -19 -15 -23 23 -45 12 -49 -25 l-4
-36 44 6 c25 3 51 6 59 6 11 0 13 7 9 25 -4 14 -2 25 4 25 5 0 10 12 10 26 0
26 0 26 25 10 14 -9 30 -14 35 -11 14 9 1 32 -21 38 -11 3 -19 14 -19 26 0 12
-4 21 -10 21 -5 0 -10 -9 -10 -20 0 -28 -17 -25 -24 5 -4 16 -13 25 -26 25
-10 0 -21 8 -25 19 -4 13 -13 17 -32 15 -27 -3 -68 -34 -45 -34 7 0 12 -5 12
-11 0 -6 -9 -8 -22 -4 -19 6 -21 5 -11 -6 10 -10 7 -15 -19 -26 -18 -8 -34
-10 -37 -4 -13 20 -46 16 -56 -6 -5 -13 -18 -23 -27 -23 -16 0 -16 2 2 20 11
11 20 28 20 38 -1 15 -2 16 -13 1 -27 -36 -95 -31 -81 6 3 7 1 16 -4 19 -12 7
-7 55 7 69 8 8 18 4 34 -11 28 -26 36 -27 51 -6 15 19 107 25 113 7 5 -14 33
-18 33 -5 0 8 113 16 200 14 187 -5 198 -6 192 -22 -3 -8 -10 -18 -15 -21 -5
-4 -5 -9 2 -13 6 -4 11 -2 11 3 0 6 10 11 21 11 17 0 20 -4 15 -22 -3 -13 -6
-26 -6 -30 0 -5 -8 -8 -17 -8 -15 0 -14 -2 3 -14 10 -8 15 -18 11 -22 -4 -5
-12 -3 -16 5 -6 9 -10 7 -14 -8 -3 -12 -10 -21 -16 -21 -6 0 -8 8 -5 18 5 16
5 16 -9 0 -8 -10 -17 -18 -21 -18 -12 0 -5 21 14 40 19 19 28 60 14 60 -12 0
-33 -34 -34 -52 0 -10 -5 -18 -11 -18 -5 0 -7 -5 -4 -10 4 -6 1 -17 -5 -25
-27 -33 55 -30 250 9 41 8 93 18 115 22 48 8 65 20 65 44 0 16 4 17 36 8 30
-8 38 -7 50 9 12 17 13 17 14 1 0 -25 60 -26 60 -1 0 15 1 15 12 1 12 -15 20
-15 78 -2 36 7 79 14 95 14 17 0 64 9 105 20 41 11 95 19 120 19 43 -1 41 -2
-25 -15 -38 -8 -92 -18 -120 -24 -103 -20 -213 -41 -320 -60 -60 -11 -146 -26
-190 -35 -125 -24 -172 -33 -295 -56 -63 -11 -133 -25 -155 -29 -22 -5 -87
-17 -145 -28 -58 -12 -139 -28 -180 -36 -41 -9 -111 -22 -155 -31 -44 -8 -102
-19 -130 -26 -27 -6 -81 -17 -120 -24 -38 -8 -99 -21 -135 -29 -36 -8 -135
-28 -220 -46 -85 -17 -173 -35 -195 -40 -22 -5 -52 -11 -68 -15 l-27 -5 0 -95
c0 -52 1 -95 3 -95 2 0 99 21 237 51 52 12 122 27 155 34 33 8 92 21 130 30
85 20 104 21 123 1 18 -18 24 -16 -98 -45 -47 -11 -132 -31 -190 -45 -58 -14
-154 -37 -215 -51 -60 -14 -118 -28 -127 -31 -17 -5 -18 -64 -18 -1060 l0
-1054 4800 0 4800 0 0 449 0 449 -52 4 c-29 2 -197 3 -373 2 -343 -2 -448 3
-439 18 3 5 0 9 -7 8 -21 -3 -59 11 -59 21 0 5 6 9 13 9 9 0 8 3 -2 9 -7 5
-10 14 -6 20 5 9 10 9 21 0 8 -6 17 -9 20 -6 10 9 -7 47 -21 47 -7 0 -15 10
-18 21 -4 15 -11 20 -21 16 -9 -4 -16 -2 -16 3 0 6 7 10 15 10 27 0 53 22 47
42 -2 11 1 18 9 18 8 0 3 6 -11 14 -14 7 -29 9 -34 5 -5 -4 -16 -4 -25 1 -9 4
-29 14 -45 21 -21 10 -24 15 -13 17 10 2 17 9 17 15 0 22 -18 40 -34 34 -8 -3
-18 -2 -22 4 -3 6 -13 8 -21 5 -24 -10 -36 5 -16 20 11 8 13 13 6 14 -7 0 -13
11 -13 25 0 25 14 33 25 15 3 -5 20 -10 36 -10 23 0 29 4 27 18 -2 12 3 16 17
13 19 -3 19 -2 2 16 -21 24 -22 37 -2 29 10 -3 15 1 15 12 0 12 -7 17 -25 17
-24 -1 -49 -15 -27 -15 7 0 9 -7 5 -17 -13 -35 -48 -44 -57 -15 -3 10 -21 22
-39 28 -17 5 -31 15 -30 22 2 6 -2 12 -7 12 -6 0 -10 -4 -10 -10 0 -5 -6 -10
-14 -10 -7 0 -21 -11 -30 -25 -15 -23 -15 -25 11 -51 l27 -27 -22 -8 c-29 -11
-28 -19 4 -19 18 0 28 6 31 20 7 28 38 21 39 -8 2 -32 -23 -55 -52 -48 -15 4
-24 2 -24 -5 0 -6 -7 -8 -16 -5 -9 4 -40 3 -68 0 -28 -4 -45 -9 -38 -11 6 -3
12 -11 12 -19 0 -9 -4 -13 -9 -10 -4 3 -36 1 -70 -5 -40 -6 -68 -6 -79 0 -16
9 -16 10 1 17 17 6 17 8 -3 29 l-21 22 31 7 c17 3 29 10 26 15 -3 5 1 11 9 15
8 3 15 1 15 -4 0 -6 9 -10 20 -10 24 0 16 -30 -9 -30 -14 -1 -14 -2 2 -11 13
-8 27 -7 50 4 18 9 44 13 60 10 15 -3 27 -2 27 2 0 11 -30 38 -36 32 -3 -3
-21 1 -39 9 -19 7 -40 11 -48 8 -8 -3 -18 0 -22 5 -3 6 -10 9 -15 6 -5 -3 -19
-1 -31 6 -39 21 -125 13 -172 -16 -39 -25 -40 -26 -12 -20 52 11 68 10 72 -2
3 -8 -4 -13 -16 -13 -12 0 -21 -4 -21 -10 0 -5 9 -10 20 -10 22 0 27 -15 9
-26 -8 -5 -6 -10 5 -16 9 -5 21 -6 26 -3 6 3 20 -1 32 -9 l22 -16 -24 -1 c-14
-1 -38 0 -53 1 -24 1 -28 -2 -25 -21 2 -12 9 -25 17 -27 10 -3 12 1 8 14 -7
18 -6 18 8 -1 13 -16 13 -21 1 -33 -11 -11 -18 -11 -35 -3 -16 9 -26 9 -39 1
-15 -10 -14 -11 6 -7 16 4 32 -5 57 -29 34 -32 39 -44 36 -71 -1 -10 5 -10 24
-3 22 8 25 7 25 -11 0 -24 25 -36 44 -20 17 14 66 10 66 -5 0 -15 -39 -25 -69
-17 -17 4 -22 3 -17 -5 4 -7 2 -12 -3 -12 -6 0 -11 4 -11 8 0 5 -14 9 -30 9
-24 0 -29 -4 -25 -16 4 -11 1 -10 -15 4 -20 18 -20 18 -20 -3 0 -18 6 -22 33
-24 17 -1 -69 -5 -193 -8 -308 -9 -4920 -11 -4920 -2 1 4 36 29 78 55 42 26
136 84 207 129 318 198 976 588 992 588 2 0 21 11 43 25 39 25 62 37 230 127
152 82 165 88 177 88 7 0 13 5 13 10 0 6 4 10 10 10 9 0 279 128 290 137 2 2
-2 8 -10 13 -11 7 -4 9 23 8 21 -1 43 4 49 10 22 22 -49 13 -109 -14 -32 -14
-67 -29 -78 -34 -11 -4 -50 -22 -86 -39 -62 -30 -75 -32 -250 -41 -101 -6
-201 -13 -223 -16 -30 -5 -37 -3 -34 7 3 8 14 19 26 25 12 6 19 14 14 19 -4 4
0 6 10 2 15 -5 99 21 114 36 4 4 16 7 26 7 10 0 18 4 18 8 0 5 18 14 41 21 22
7 43 19 46 27 3 9 13 13 27 9 11 -2 15 -2 9 1 -18 8 -16 24 2 24 8 0 15 -4 15
-10 0 -5 7 -7 15 -4 8 4 12 10 9 15 -5 9 8 13 37 10 8 -1 32 6 53 14 31 13 36
18 26 30 -7 8 -27 15 -44 16 l-31 1 28 8 c16 5 36 6 45 3 10 -4 5 6 -12 25
-22 24 -26 32 -14 32 9 0 25 3 35 6 15 6 16 4 6 -7 -19 -19 -16 -29 7 -29 17
0 19 -3 11 -19 -9 -16 -6 -20 15 -25 15 -4 29 -5 32 -1 3 3 1 5 -5 5 -5 0 -8
13 -5 30 4 25 1 30 -17 30 -25 0 -29 20 -3 21 14 0 14 2 -3 9 -18 7 -16 9 13
16 24 5 30 9 20 15 -8 6 -9 9 -1 9 6 0 19 3 29 7 13 5 16 2 12 -8 -4 -11 6
-14 48 -14 57 0 69 9 32 26 -21 9 -20 9 5 4 29 -6 67 9 67 25 0 6 -8 10 -17
10 -15 0 -16 2 -3 10 8 5 16 6 18 2 1 -5 17 -6 35 -4 17 2 40 4 50 5 20 2 23
13 5 19 -13 5 107 68 129 68 7 0 13 7 13 15 0 8 6 12 13 9 31 -12 95 89 67
106 -10 6 -8 11 9 21 11 8 21 19 21 26 0 7 7 13 15 13 8 0 15 5 15 10 0 6 6
10 13 10 7 0 22 8 33 18 10 10 34 27 52 37 28 17 32 25 33 65 1 25 1 51 0 58
-2 10 5 10 28 -2 43 -23 47 -20 12 10 l-31 25 -2 167 c-3 160 -4 167 -23 164
-97 -12 -155 -14 -155 -4 0 6 30 13 68 17 37 3 76 7 87 8 22 2 25 19 14 80
l-7 39 37 -5 c20 -3 28 -3 18 -1 -10 3 -14 10 -10 17 4 6 8 25 10 42 5 50 6
55 12 55 3 -1 25 -5 49 -9 30 -6 42 -5 39 3 -2 6 -13 12 -25 14 -11 2 -26 9
-32 17 -9 11 -5 17 17 29 27 15 27 15 5 16 l-24 0 6 215 c3 134 2 216 -4 220
-6 4 -10 -30 -11 -87 0 -61 -3 -86 -9 -73 -8 18 -9 17 -9 -6 -1 -32 -27 -57
-43 -41 -6 6 -17 8 -24 5 -9 -3 -14 2 -14 15 0 12 -5 33 -12 49 -22 54 -21 75
6 98 16 14 26 33 26 49 0 23 7 30 40 43 27 11 40 22 40 35 0 22 -4 22 -35 2
-24 -15 -25 -15 -25 3 0 19 -18 43 -32 43 -4 0 -8 -19 -8 -42z m55 -328 c-3
-5 -14 -10 -23 -10 -15 0 -15 2 -2 10 20 13 33 13 25 0z m-21 -60 c20 0 22 -5
24 -62 2 -53 -1 -65 -17 -75 -10 -6 -28 -9 -39 -6 -19 5 -20 11 -16 76 6 81
14 113 21 85 3 -11 14 -18 27 -18z m53 -122 c-2 -13 -4 -5 -4 17 -1 22 1 32 4
23 2 -10 2 -28 0 -40z m-183 -93 c-4 -17 -10 -23 -16 -17 -6 6 -6 18 2 32 15
28 23 20 14 -15z m-3318 -42 c-4 -21 -14 -69 -22 -108 -8 -38 -19 -90 -24
-115 -27 -131 -53 -238 -61 -258 -5 -13 -9 -34 -9 -47 0 -23 -4 -25 -45 -25
-25 0 -45 1 -45 3 1 11 50 257 69 347 7 30 19 87 27 125 9 39 18 80 20 93 4
19 11 22 50 22 l46 0 -6 -37z m240 10 c22 -24 25 -34 20 -68 -12 -90 -27 -140
-50 -170 -17 -22 -22 -35 -14 -43 19 -19 -4 -154 -38 -217 -27 -50 -61 -65
-146 -65 -41 0 -77 2 -80 5 -3 3 -1 25 4 48 5 23 15 71 23 107 7 36 20 97 28
135 8 39 20 95 26 125 13 59 31 137 37 158 2 8 28 12 84 12 75 0 83 -2 106
-27z m280 11 c-3 -9 -6 -24 -6 -34 0 -16 -9 -19 -57 -22 l-58 -3 -11 -60 c-6
-33 -15 -72 -19 -87 -6 -25 -5 -28 18 -28 32 0 38 -9 28 -46 -5 -20 -15 -30
-32 -32 -34 -5 -39 -13 -56 -84 -8 -34 -17 -73 -20 -85 -5 -21 -2 -23 33 -24
22 -1 45 -1 52 0 13 2 15 -12 6 -46 -6 -22 -11 -23 -101 -23 l-96 0 7 38 c3
20 13 69 21 107 9 39 23 104 31 145 30 142 43 205 54 253 l12 47 100 0 c87 0
99 -2 94 -16z m224 6 c56 -30 37 -202 -31 -275 -26 -29 -28 -37 -36 -165 l-8
-135 -39 -3 c-21 -2 -42 1 -45 7 -4 5 -3 45 0 88 17 185 6 208 -30 63 -45
-176 -37 -160 -81 -160 -44 0 -45 1 -29 70 6 25 12 56 14 70 3 14 9 45 15 70
6 25 17 77 25 115 8 39 23 113 34 165 12 52 21 96 21 98 0 7 174 0 190 -8z
m176 -12 c-4 -13 -13 -54 -21 -93 -16 -82 -32 -154 -45 -210 -52 -217 -58
-245 -59 -257 -1 -5 -19 -8 -42 -8 l-41 0 5 43 c3 23 12 74 20 112 28 132 49
230 63 290 7 33 16 74 19 90 12 54 13 55 61 55 43 0 46 -1 40 -22z m190 -182
c-4 -113 -9 -215 -11 -228 -3 -13 -8 -53 -11 -90 l-7 -68 -38 0 c-37 0 -39 1
-39 33 0 35 -8 51 -29 55 -28 6 -48 -10 -61 -48 -12 -37 -16 -40 -52 -40 -31
0 -38 4 -38 19 0 18 56 178 86 248 8 17 14 38 14 46 0 9 4 18 9 22 5 3 13 20
17 37 3 18 10 39 15 48 9 16 33 82 50 138 9 30 13 32 56 32 l46 0 -7 -204z
m-606 92 c0 -23 -66 -347 -71 -353 -2 -2 -20 -6 -40 -10 -32 -6 -37 -4 -42 17
-10 37 13 98 39 104 29 7 40 21 47 60 5 24 1 37 -16 55 -23 24 -24 48 -6 107
10 29 14 32 50 32 24 0 39 -5 39 -12z m1678 -16 c7 -5 10 -16 6 -28 -6 -18 -6
-18 9 1 22 28 26 18 17 -40 -9 -56 -1 -74 23 -51 9 9 24 16 34 17 11 0 13 3 5
6 -10 4 -9 8 5 19 17 13 17 13 -5 14 -13 0 -20 4 -17 10 7 12 25 13 43 2 16
-11 4 -72 -14 -72 -8 0 -14 -7 -14 -16 0 -14 -3 -14 -15 -4 -8 7 -15 8 -15 3
0 -15 -63 -33 -90 -26 -25 6 -40 20 -40 37 0 4 7 6 15 3 8 -4 17 -2 20 3 4 6
15 10 26 10 13 0 19 7 19 23 0 31 -22 77 -37 77 -7 0 -13 5 -13 10 0 12 20 13
38 2z m827 -2 c4 -6 -5 -10 -20 -10 -15 0 -24 4 -20 10 3 6 12 10 20 10 8 0
17 -4 20 -10z m-476 -17 c10 -17 10 -17 11 1 0 16 5 17 38 11 20 -4 39 -11 40
-16 2 -5 12 -9 23 -9 13 0 17 5 12 18 -6 15 -5 15 10 3 9 -7 17 -10 17 -6 0 4
7 2 15 -5 8 -7 15 -17 15 -22 0 -7 -5 -6 -13 1 -10 8 -19 6 -35 -10 -12 -11
-22 -24 -22 -29 0 -6 -7 -10 -15 -10 -8 0 -17 -11 -21 -24 -3 -13 -14 -26 -25
-29 -23 -6 -59 2 -59 13 0 5 -9 6 -21 3 -19 -5 -20 -4 -7 16 12 20 10 24 -12
41 -21 16 -26 17 -33 4 -12 -21 -24 -17 -29 11 -5 22 0 26 41 39 61 18 59 19
70 -1z m421 -3 c0 -5 -5 -10 -11 -10 -5 0 -7 5 -4 10 3 6 8 10 11 10 2 0 4 -4
4 -10z m-1278 -39 c23 -25 28 -41 28 -80 0 -87 -78 -163 -181 -177 -42 -6 -48
-4 -82 29 -34 31 -37 39 -37 89 0 45 5 62 29 94 47 66 85 85 165 80 41 -3 55
-9 78 -35z m1398 29 c0 -5 -2 -10 -4 -10 -3 0 -8 5 -11 10 -3 6 -1 10 4 10 6
0 11 -4 11 -10z m35 -8 c-3 -3 -11 0 -18 7 -9 10 -8 11 6 5 10 -3 15 -9 12
-12z m-952 -39 c-5 -34 -20 -43 -29 -20 -7 19 15 72 25 61 5 -5 7 -24 4 -41z
m224 35 c-2 -7 -1 -22 4 -33 7 -18 8 -18 8 5 1 25 1 25 16 -5 9 -16 24 -36 33
-43 15 -12 13 -12 -11 -6 -27 6 -28 6 -15 -15 11 -18 11 -23 -2 -31 -8 -5 -19
-10 -25 -10 -5 0 -4 4 4 9 21 14 5 41 -29 48 -28 5 -29 7 -15 23 20 22 19 27
-5 33 -25 6 -26 24 -2 30 32 9 44 7 39 -5z m533 3 c0 -5 -7 -12 -16 -15 -14
-5 -15 -4 -4 9 14 17 20 19 20 6z m165 -21 c3 -5 -3 -10 -15 -10 -12 0 -18 5
-15 10 3 6 10 10 15 10 5 0 12 -4 15 -10z m105 -34 c-36 -14 -50 -12 -50 5 0
5 19 9 43 8 l42 -1 -35 -12z m-330 -6 c-19 -4 -43 -11 -52 -15 -10 -4 -18 -3
-18 2 0 18 13 23 59 22 46 -1 46 -1 11 -9z m228 -2 c-3 -7 -17 -14 -31 -15
-33 -2 -35 5 -4 17 31 12 39 12 35 -2z m-311 -4 c-3 -3 -12 -4 -19 -1 -8 3 -5
6 6 6 11 1 17 -2 13 -5z m203 -13 c0 -5 -9 -7 -20 -4 -14 4 -20 0 -20 -12 0
-14 6 -16 38 -11 134 20 243 31 258 26 26 -10 7 -17 -66 -24 -36 -4 -94 -13
-130 -21 -160 -34 -160 -34 -160 -14 0 10 5 21 10 24 6 3 10 14 10 24 0 13 10
18 40 19 22 2 40 -1 40 -7z m-156 -36 c-5 -19 -2 -25 10 -25 32 0 15 -19 -21
-25 -21 -3 -49 -8 -63 -11 -14 -3 -52 -9 -85 -15 -33 -5 -73 -14 -90 -19 -16
-5 -58 -12 -92 -16 -58 -6 -63 -5 -63 13 0 27 39 43 105 43 34 0 55 4 55 11 0
6 7 9 15 5 9 -3 15 0 15 9 0 14 29 35 49 35 6 0 11 -9 11 -20 0 -21 16 -28 22
-9 3 10 66 28 111 32 9 1 17 5 17 9 0 4 2 8 5 8 3 0 3 -11 -1 -25z m-2587 -17
c-3 -8 -6 -5 -6 6 -1 11 2 17 5 13 3 -3 4 -12 1 -19z m2052 -7 c41 -2 19 -8
-44 -14 -33 -3 -52 -3 -42 -1 9 3 17 10 17 15 0 5 10 7 23 5 12 -3 33 -5 46
-5z m-1549 -25 c0 -13 -7 -29 -15 -36 -12 -10 -15 -9 -15 8 0 27 10 52 21 52
5 0 9 -11 9 -24z m1440 4 c0 -5 -4 -10 -10 -10 -5 0 -10 5 -10 10 0 6 5 10 10
10 6 0 10 -4 10 -10z m196 -79 c-4 -5 -30 -12 -59 -16 -28 -4 -94 -16 -146
-27 -51 -10 -96 -17 -98 -14 -11 11 10 25 47 31 22 4 40 10 40 14 0 4 26 8 57
9 31 1 59 5 62 7 9 9 102 5 97 -4z m-1216 -20 c0 -6 -4 -13 -10 -16 -5 -3 -10
1 -10 9 0 9 5 16 10 16 6 0 10 -4 10 -9z m-1372 -49 c2 -7 -7 -12 -22 -12 -26
0 -41 14 -31 30 7 11 47 -2 53 -18z m782 -122 c0 -5 -4 -10 -10 -10 -5 0 -10
5 -10 10 0 6 5 10 10 10 6 0 10 -4 10 -10z m809 1 c18 -5 -7 -13 -90 -28 -182
-35 -179 -35 -179 -15 0 27 208 60 269 43z m-1585 -17 c27 -10 18 -22 -19 -26
-22 -2 -35 0 -35 7 0 24 22 31 54 19z m1218 -12 c7 -10 22 -22 33 -26 19 -7
19 -8 2 -18 -11 -5 -128 -32 -260 -59 -133 -27 -262 -54 -287 -60 -25 -5 -76
-16 -115 -24 -38 -8 -104 -21 -145 -30 -94 -19 -119 -19 -127 0 -7 20 1 28 34
31 69 7 112 17 107 25 -3 5 2 9 10 9 8 0 20 8 25 18 10 16 10 16 11 -2 0 -14
3 -16 14 -7 7 6 22 8 31 4 11 -4 16 -2 12 3 -9 16 5 30 55 53 52 23 78 27 78
10 0 -6 -7 -8 -16 -5 -10 4 -24 -2 -35 -15 -38 -44 -23 -47 121 -17 44 9 66
18 68 29 2 13 -3 15 -22 12 -22 -5 -25 -2 -22 23 3 24 9 30 42 37 21 5 62 6
89 4 28 -3 60 -1 72 4 25 9 53 -11 53 -38 0 -11 5 -13 18 -7 9 4 39 9 65 12
45 4 49 6 44 28 -5 30 25 34 45 6z m-787 -2 c-11 -5 -31 -9 -45 -9 -20 -1 -22
1 -10 9 8 5 29 9 45 9 26 0 27 -2 10 -9z m-450 -54 c0 -13 -3 -27 -7 -31 -9
-9 -21 32 -13 45 11 18 21 11 20 -14z m-1221 -1 c3 -8 12 -12 20 -9 15 6 15
-6 1 -38 -8 -20 -65 -25 -65 -7 0 8 -4 9 -13 0 -20 -16 -29 -2 -11 17 12 12
20 12 41 3 30 -14 36 -11 27 13 -3 9 -17 16 -30 16 -13 0 -24 5 -24 10 0 16
47 12 54 -5z m586 -3 c0 -15 -36 -42 -55 -42 -15 0 -2 19 16 23 15 4 20 11 16
21 -4 10 -1 16 8 16 8 0 15 -8 15 -18z m1390 -16 c0 -11 -19 -15 -25 -6 -3 5
1 10 9 10 9 0 16 -2 16 -4z m-298 -31 c-1 -5 -14 -11 -30 -12 -69 -4 -85 -28
-18 -28 24 0 48 -3 52 -7 4 -5 -17 -8 -47 -8 -30 0 -61 -6 -68 -12 -11 -11
-12 -6 -6 27 4 22 12 43 18 48 17 11 102 4 99 -8z m909 2 c-1 -12 -15 -9 -19
4 -3 6 1 10 8 8 6 -3 11 -8 11 -12z m-2778 -17 c21 -24 21 -30 4 -30 -18 0
-49 34 -40 43 10 11 17 8 36 -13z m237 -4 c0 -3 -4 -8 -10 -11 -5 -3 -10 -1
-10 4 0 6 5 11 10 11 6 0 10 -2 10 -4z m267 -18 c-3 -8 -6 -5 -6 6 -1 11 2 17
5 13 3 -3 4 -12 1 -19z m120 16 c-3 -3 -12 -4 -19 -1 -8 3 -5 6 6 6 11 1 17
-2 13 -5z m1041 -1 c-3 -5 -10 -23 -17 -40 -8 -20 -20 -33 -29 -32 -10 0 -12
3 -6 5 15 6 6 44 -10 44 -6 0 -13 -13 -14 -30 -1 -19 2 -30 10 -30 9 0 8 -3
-2 -10 -9 -6 -10 -10 -3 -10 6 0 14 4 17 9 3 5 21 3 41 -3 65 -23 65 -23 -120
-66 -123 -28 -213 -50 -257 -61 -20 -5 -56 -13 -80 -18 -44 -9 -214 -46 -278
-61 -19 -5 -66 -15 -105 -24 -38 -9 -101 -24 -140 -32 -38 -8 -97 -21 -130
-29 -136 -31 -227 -46 -252 -43 -37 4 -41 26 -6 33 120 25 248 58 266 67 15 8
16 12 5 25 -7 8 -21 19 -33 24 -19 9 -19 9 2 5 13 -2 29 4 40 17 18 20 18 20
-9 13 -15 -3 -30 -2 -33 4 -6 9 8 15 29 11 5 -1 12 2 15 7 8 14 50 19 51 7 1
-5 6 -16 12 -22 8 -10 6 -13 -7 -13 -12 0 -15 -5 -11 -16 4 -10 -1 -22 -11
-29 -31 -23 -9 -25 73 -10 43 9 104 20 134 26 79 14 121 29 119 42 -4 34 20
67 48 67 13 0 13 -3 -2 -26 -12 -18 -14 -29 -6 -37 15 -15 88 11 106 37 8 11
24 21 36 23 19 3 20 1 9 -12 -21 -25 -5 -28 67 -11 37 9 89 22 115 28 35 9 45
15 41 27 -5 13 -3 14 8 4 19 -18 50 -16 104 7 26 11 51 18 55 15 5 -3 20 -1
34 5 23 8 26 15 26 54 0 43 2 46 33 55 40 12 70 13 65 4z m-1965 -57 c-4 -6
-8 -6 -11 2 -2 7 -8 10 -13 6 -8 -5 -39 18 -39 29 0 3 16 -2 34 -11 19 -9 32
-20 29 -26z m1838 23 c-18 -7 -22 -15 -18 -35 3 -19 1 -24 -12 -22 -9 2 -25
-4 -35 -14 -12 -11 -24 -14 -29 -9 -13 13 2 71 19 71 8 0 13 -4 12 -9 -2 -5 1
-9 7 -10 5 0 10 5 11 12 2 25 5 27 37 26 30 0 31 -1 8 -10z m-1201 -3 c0 -2
-7 -6 -15 -10 -8 -3 -15 -1 -15 4 0 6 7 10 15 10 8 0 15 -2 15 -4z m115 -6 c3
-5 -3 -10 -14 -10 -12 0 -21 5 -21 10 0 6 6 10 14 10 8 0 18 -4 21 -10z m842
-36 c-3 -3 -12 -4 -19 -1 -8 3 -5 6 6 6 11 1 17 -2 13 -5z m-1047 -44 c0 -5
-4 -10 -10 -10 -5 0 -10 5 -10 10 0 6 5 10 10 10 6 0 10 -4 10 -10z m100 -10
c11 -7 4 -10 -25 -9 -31 0 -36 2 -20 9 26 11 28 11 45 0z m855 0 c-3 -5 -13
-10 -21 -10 -8 0 -12 5 -9 10 3 6 13 10 21 10 8 0 12 -4 9 -10z m-394 -30 c27
-15 24 -36 -8 -48 -53 -19 -63 -21 -63 -12 0 6 6 10 13 10 8 0 22 9 32 20 18
20 18 20 -16 14 -34 -6 -34 -6 -9 9 32 19 28 19 51 7z m376 4 c-3 -3 -12 -4
-19 -1 -8 3 -5 6 6 6 11 1 17 -2 13 -5z m-507 -76 c0 -13 -23 -5 -28 10 -2 7
2 10 12 6 9 -3 16 -11 16 -16z m3820 -108 c0 -5 -2 -10 -4 -10 -3 0 -8 5 -11
10 -3 6 -1 10 4 10 6 0 11 -4 11 -10z m-310 -210 c0 -5 -5 -10 -11 -10 -5 0
-7 5 -4 10 3 6 8 10 11 10 2 0 4 -4 4 -10z m-33 -16 c-3 -3 -12 -4 -19 -1 -8
3 -5 6 6 6 11 1 17 -2 13 -5z m-117 -18 c0 -26 -36 -41 -100 -42 -36 0 -58 1
-50 4 8 2 29 10 47 18 17 8 36 14 42 14 6 0 11 4 11 9 0 5 11 9 25 9 14 0 25
-6 25 -12z m-105 -55 c-3 -6 2 -14 11 -19 15 -8 13 -11 -12 -15 -105 -21 -134
-18 -116 9 10 15 51 24 58 13 3 -5 15 -2 27 6 24 17 41 20 32 6z m-145 -31 c0
-5 -7 -10 -16 -10 -8 0 -12 5 -9 10 3 6 10 10 16 10 5 0 9 -4 9 -10z m394 -98
c2 -4 -32 -25 -77 -46 -132 -63 -399 -196 -432 -216 -19 -11 -62 -20 -120 -24
-85 -7 -118 -9 -323 -21 -59 -4 -81 -2 -77 6 6 9 138 75 295 146 30 14 105 49
165 78 l110 54 150 11 c82 6 151 12 152 14 7 7 152 5 157 -2z m-633 -326 c-6
-7 -33 -24 -59 -38 -26 -14 -72 -38 -102 -55 -30 -16 -95 -51 -145 -78 -82
-44 -202 -115 -360 -214 -56 -35 -68 -38 -160 -45 -55 -4 -158 -13 -230 -21
-287 -31 -365 -36 -344 -22 2 1 92 47 199 101 107 54 304 154 437 222 l242
124 173 15 c334 29 364 30 349 11z m4473 -273 c4 -9 -3 -13 -19 -13 -23 0 -32
10 -20 22 10 10 34 4 39 -9z m-354 -63 c13 -8 13 -10 -2 -10 -9 0 -20 5 -23
10 -8 13 5 13 25 0z m440 -79 c0 -17 -18 -21 -24 -6 -3 9 0 15 9 15 8 0 15 -4
15 -9z m-5385 -61 c-3 -5 -38 -28 -78 -51 -40 -23 -98 -60 -129 -81 -31 -21
-59 -38 -62 -38 -3 0 -39 -20 -80 -45 l-74 -45 -338 2 -339 3 156 77 c100 49
178 80 215 87 128 22 241 41 279 45 22 3 103 13 180 22 77 9 163 20 190 24 75
11 87 11 80 0z m5475 -55 c0 -8 -7 -15 -15 -15 -8 0 -15 7 -15 15 0 8 7 15 15
15 8 0 15 -7 15 -15z m-491 -106 c-16 -10 -23 -4 -14 10 3 6 11 8 17 5 6 -4 5
-9 -3 -15z m296 1 c4 -6 -5 -10 -19 -10 -14 0 -26 5 -26 10 0 6 9 10 19 10 11
0 23 -4 26 -10z m-95 -10 c0 -5 -10 -10 -22 -10 -19 0 -20 2 -8 10 19 13 30
13 30 0z m290 1 c0 -6 -4 -13 -10 -16 -5 -3 -10 1 -10 9 0 9 5 16 10 16 6 0
10 -4 10 -9z"/>
<path d="M2235 3411 c-5 -9 -15 -55 -31 -138 -6 -29 -4 -33 15 -33 14 0 23 8
27 28 4 15 13 51 20 81 7 29 11 58 8 62 -7 12 -31 11 -39 0z"/>
<path d="M2175 3148 c-4 -12 -9 -37 -32 -151 -5 -26 -3 -28 18 -25 17 2 25 12
32 38 21 88 27 126 22 137 -6 17 -34 17 -40 1z"/>
<path d="M2742 3408 c-6 -6 -12 -23 -12 -36 0 -13 -4 -31 -9 -40 -4 -9 -11
-34 -14 -54 -5 -35 -4 -38 18 -38 33 0 56 46 58 118 2 43 -1 57 -13 59 -9 2
-21 -2 -28 -9z"/>
<path d="M3102 3157 c-7 -16 -12 -34 -12 -42 0 -8 -4 -17 -10 -20 -18 -11 -11
-35 10 -35 23 0 33 30 28 86 l-4 39 -12 -28z"/>
<path d="M4660 3286 c0 -8 -6 -16 -12 -19 -7 -2 -10 -8 -6 -12 4 -4 14 -2 23
5 17 14 20 40 5 40 -5 0 -10 -6 -10 -14z"/>
<path d="M4680 3249 c0 -5 5 -7 10 -4 6 3 10 8 10 11 0 2 -4 4 -10 4 -5 0 -10
-5 -10 -11z"/>
<path d="M3632 3310 c-23 -14 -30 -24 -25 -36 5 -13 3 -15 -7 -9 -10 6 -12 -1
-8 -29 4 -32 2 -36 -19 -36 -13 0 -23 -4 -23 -10 0 -5 5 -10 10 -10 6 0 10 -5
10 -11 0 -6 -9 -8 -20 -4 -14 5 -20 2 -20 -9 0 -10 9 -16 21 -16 15 0 19 -5
15 -15 -3 -10 1 -15 14 -15 31 0 33 -18 3 -22 l-28 -4 29 -14 c26 -13 30 -13
39 2 10 15 12 15 23 0 10 -14 15 -15 40 -3 l29 14 -25 7 -25 6 23 8 c13 4 30
23 39 42 9 19 23 34 30 34 18 0 17 18 -2 22 -10 2 -12 8 -5 17 6 12 12 12 23
3 7 -7 16 -9 20 -6 9 10 -4 34 -19 34 -9 0 -14 11 -14 28 0 40 -44 62 -62 32
-15 -23 -33 -27 -25 -5 10 23 -7 25 -41 5z m78 -50 c15 0 17 -65 3 -87 -9 -13
-13 -29 -10 -36 4 -11 -8 -14 -54 -13 -32 1 -59 4 -59 9 0 4 4 7 10 7 5 0 7 7
3 15 -3 9 0 36 7 60 10 36 17 45 39 48 14 2 32 2 39 0 8 -1 17 -3 22 -3z"/>
<path d="M3660 3229 c0 -5 5 -7 10 -4 6 3 10 8 10 11 0 2 -4 4 -10 4 -5 0 -10
-5 -10 -11z"/>
<path d="M3645 3150 c3 -5 8 -10 11 -10 2 0 4 5 4 10 0 6 -5 10 -11 10 -5 0
-7 -4 -4 -10z"/>
<path d="M3760 3160 c0 -5 5 -10 10 -10 6 0 10 5 10 10 0 6 -4 10 -10 10 -5 0
-10 -4 -10 -10z"/>
<path d="M2900 2820 c-13 -8 -12 -10 3 -10 9 0 17 5 17 10 0 12 -1 12 -20 0z"/>
<path d="M2838 2803 c7 -3 16 -2 19 1 4 3 -2 6 -13 5 -11 0 -14 -3 -6 -6z"/>
<path d="M2775 2790 c-3 -5 3 -10 15 -10 12 0 18 5 15 10 -3 6 -10 10 -15 10
-5 0 -12 -4 -15 -10z"/>
<path d="M2470 2729 c0 -5 9 -9 20 -9 11 0 20 2 20 4 0 2 -9 6 -20 9 -11 3
-20 1 -20 -4z"/>
<path d="M4621 4093 c1 -36 16 -99 18 -78 1 6 6 3 11 -5 7 -11 10 -3 10 30 0
25 3 55 6 68 5 19 2 22 -20 22 -24 0 -26 -3 -25 -37z"/>
<path d="M2865 4080 c3 -5 8 -10 11 -10 2 0 4 5 4 10 0 6 -5 10 -11 10 -5 0
-7 -4 -4 -10z"/>
<path d="M5120 3975 c0 -13 -25 -21 -52 -16 -5 0 -8 -6 -8 -15 0 -22 -65 -47
-90 -34 -11 6 -21 6 -24 1 -3 -5 -15 -7 -26 -4 -13 3 -20 0 -20 -8 0 -11 -2
-11 -10 1 -6 9 -10 10 -10 3 0 -6 5 -15 10 -18 22 -13 -7 -85 -33 -85 -5 0 -5
6 1 13 7 8 7 18 2 27 -5 9 -5 19 2 27 13 15 -3 18 -18 3 -6 -6 -30 -12 -52
-13 -23 -1 -42 -4 -42 -7 0 -7 -52 -6 -65 1 -5 3 -32 6 -59 7 -40 1 -53 -3
-72 -23 -15 -17 -19 -27 -11 -32 6 -3 13 -1 15 5 2 7 11 12 19 12 12 0 14 -7
9 -35 -5 -23 -3 -35 4 -35 7 0 9 -8 5 -20 -5 -15 -2 -20 10 -20 13 0 16 6 13
25 -4 19 -1 25 13 25 11 0 19 5 19 11 0 5 5 7 12 3 24 -15 69 -11 78 7 14 26
80 46 91 28 13 -20 11 -29 -6 -29 -10 0 -15 -10 -15 -30 0 -35 13 -38 37 -10
21 25 31 25 29 3 0 -10 5 -18 12 -19 6 -1 17 -2 22 -3 6 0 10 -13 11 -28 0
-16 4 -37 8 -48 7 -18 8 -17 14 7 4 14 10 34 14 44 5 12 3 15 -6 9 -8 -4 -17
-2 -22 6 -15 23 -10 39 11 39 11 0 20 -4 20 -10 0 -16 30 -12 36 5 4 8 15 15
25 15 10 0 19 5 19 10 0 6 11 10 25 10 14 0 25 5 25 10 0 13 47 13 55 0 3 -5
12 -7 20 -4 7 3 23 1 34 -5 17 -10 26 -7 53 18 27 24 30 31 20 44 -7 8 -21 13
-32 10 -14 -4 -22 2 -30 21 -14 37 -40 45 -58 18 -8 -12 -19 -22 -25 -22 -6 0
-7 3 -4 7 4 3 2 12 -3 18 -7 8 -4 18 8 32 21 25 62 39 62 22 0 -8 7 -6 19 5
10 9 22 16 27 15 5 -1 20 0 34 1 20 2 16 4 -15 11 -38 9 -44 8 -99 -20 -5 -2
-7 3 -3 12 5 12 1 17 -13 17 -11 0 -20 -7 -20 -15z m-80 -146 c0 -5 -9 -9 -20
-9 -22 0 -27 16 -7 23 15 5 27 -1 27 -14z m-122 -28 c-7 -12 -16 -21 -21 -21
-4 0 0 11 9 25 20 30 31 26 12 -4z m-193 -10 c-3 -6 -11 -8 -17 -5 -6 4 -5 9
3 15 16 10 23 4 14 -10z"/>
<path d="M2576 3910 c-3 -21 -9 -45 -12 -54 -11 -28 21 -17 33 12 24 56 26 78
5 79 -15 1 -21 -7 -26 -37z"/>
<path d="M1622 3895 c0 -16 2 -22 5 -12 2 9 2 23 0 30 -3 6 -5 -1 -5 -18z"/>
<path d="M5297 3875 c-4 -8 -2 -17 3 -20 6 -4 10 3 10 14 0 25 -6 27 -13 6z"/>
<path d="M1608 3834 c-24 -24 10 -110 52 -131 17 -9 103 -11 307 -9 155 2 314
0 353 -3 54 -5 70 -4 70 6 0 8 13 13 33 13 l32 1 -25 14 c-16 8 -27 10 -31 3
-7 -11 -24 -12 -354 -10 -132 1 -261 -1 -286 -4 -89 -12 -135 20 -141 94 -2
19 -6 30 -10 26z"/>
<path d="M4463 3791 c-13 -11 -23 -26 -23 -35 0 -9 -5 -16 -11 -16 -6 0 -8 -9
-4 -20 5 -16 3 -19 -12 -13 -14 5 -15 3 -6 -7 14 -15 61 5 77 35 6 11 17 24
24 28 6 4 12 17 12 27 0 25 -28 25 -57 1z"/>
<path d="M5273 3791 c-6 -3 -15 -19 -20 -36 -8 -23 -15 -29 -34 -27 -13 1 -33
11 -44 22 -12 11 -27 20 -33 20 -7 0 -12 5 -12 10 0 6 -9 1 -20 -10 -11 -11
-20 -26 -20 -34 0 -7 -7 -19 -15 -26 -8 -7 -15 -19 -15 -26 0 -8 -9 -14 -20
-14 -11 0 -20 -5 -20 -11 0 -7 10 -9 25 -6 19 3 29 -1 36 -15 10 -19 12 -19
30 -2 10 9 19 22 19 29 0 7 18 12 47 12 31 1 49 6 55 17 15 27 88 18 88 -10 0
-8 4 -14 9 -14 15 0 19 82 4 87 -7 3 -13 11 -13 18 0 14 -33 26 -47 16z"/>
<path d="M4640 3740 c0 -5 7 -7 15 -4 8 4 15 8 15 10 0 2 -7 4 -15 4 -8 0 -15
-4 -15 -10z"/>
<path d="M4690 3731 c0 -5 9 -7 20 -4 11 3 20 7 20 9 0 2 -9 4 -20 4 -11 0
-20 -4 -20 -9z"/>
<path d="M4326 3708 c-8 -33 -8 -33 19 -34 29 -2 29 -3 13 31 -14 31 -24 32
-32 3z"/>
<path d="M4863 3687 c-39 -13 -43 -27 -9 -27 35 0 56 10 56 26 0 16 -2 16 -47
1z"/>
<path d="M2405 3680 c3 -5 10 -10 16 -10 5 0 9 5 9 10 0 6 -7 10 -16 10 -8 0
-12 -4 -9 -10z"/>
<path d="M2468 3663 c6 -2 18 -2 25 0 6 3 1 5 -13 5 -14 0 -19 -2 -12 -5z"/>
<path d="M2553 3649 c14 -8 22 -8 30 0 8 8 3 11 -18 11 -26 -1 -28 -2 -12 -11z"/>
<path d="M2768 3643 c7 -3 16 -2 19 1 4 3 -2 6 -13 5 -11 0 -14 -3 -6 -6z"/>
<path d="M9403 3563 c9 -2 23 -2 30 0 6 3 -1 5 -18 5 -16 0 -22 -2 -12 -5z"/>
<path d="M4608 3543 c-26 -13 -33 -25 -29 -47 4 -20 -10 -57 -19 -51 -6 3 -10
1 -10 -4 0 -6 -1 -13 -2 -16 -2 -3 47 -7 107 -9 61 -2 117 -7 125 -10 11 -5
16 0 18 19 1 19 -3 25 -18 25 -10 0 -22 5 -25 10 -4 6 -10 8 -15 5 -4 -3 -10
2 -14 10 -3 8 -16 20 -29 26 -12 6 -27 20 -32 32 -13 26 -23 28 -57 10z"/>
<path d="M9107 3530 c-27 -5 -52 -12 -55 -16 -7 -7 49 0 133 16 l40 7 -35 1
c-19 0 -57 -4 -83 -8z"/>
<path d="M8998 3503 c6 -2 18 -2 25 0 6 3 1 5 -13 5 -14 0 -19 -2 -12 -5z"/>
<path d="M1035 3492 c-12 -8 -35 -92 -35 -127 l0 -25 444 0 c326 0 447 3 452
12 11 17 33 131 28 140 -6 10 -875 10 -889 0z"/>
<path d="M6068 3453 c6 -2 18 -2 25 0 6 3 1 5 -13 5 -14 0 -19 -2 -12 -5z"/>
<path d="M4821 3404 c0 -11 3 -14 6 -6 3 7 2 16 -1 19 -3 4 -6 -2 -5 -13z"/>
<path d="M5655 3370 c-16 -7 -11 -9 20 -9 29 -1 36 2 25 9 -17 11 -19 11 -45
0z"/>
<path d="M1220 3256 c0 -8 6 -16 12 -18 8 -3 4 -9 -10 -17 -12 -6 -22 -18 -22
-25 0 -7 -11 -22 -25 -32 -14 -10 -25 -23 -25 -28 0 -5 8 -2 18 7 27 24 32 21
30 -15 -3 -32 -2 -33 42 -36 33 -3 47 1 57 14 17 24 16 44 -2 44 -17 0 -39 36
-31 55 2 7 17 19 32 27 49 23 41 38 -20 38 -42 0 -56 -4 -56 -14z"/>
<path d="M1345 3140 c3 -5 8 -10 11 -10 2 0 4 5 4 10 0 6 -5 10 -11 10 -5 0
-7 -4 -4 -10z"/>
<path d="M820 3010 c0 -5 5 -10 11 -10 5 0 7 5 4 10 -3 6 -8 10 -11 10 -2 0
-4 -4 -4 -10z"/>
<path d="M773 2971 c0 -11 5 -17 9 -15 11 7 10 34 -1 34 -6 0 -9 -9 -8 -19z"/>
<path d="M608 2913 c6 -2 18 -2 25 0 6 3 1 5 -13 5 -14 0 -19 -2 -12 -5z"/>
<path d="M743 2903 c9 -2 25 -2 35 0 9 3 1 5 -18 5 -19 0 -27 -2 -17 -5z"/>
<path d="M1447 2845 c3 -8 9 -12 14 -9 12 7 11 11 -5 17 -10 4 -13 1 -9 -8z"/>
<path d="M5638 2853 c7 -3 16 -2 19 1 4 3 -2 6 -13 5 -11 0 -14 -3 -6 -6z"/>
<path d="M6083 2853 c15 -2 39 -2 55 0 15 2 2 4 -28 4 -30 0 -43 -2 -27 -4z"/>
<path d="M6393 2853 c86 -2 228 -2 315 0 86 1 15 3 -158 3 -173 0 -244 -2
-157 -3z"/>
<path d="M946 2835 c4 -8 8 -15 10 -15 2 0 4 7 4 15 0 8 -4 15 -10 15 -5 0 -7
-7 -4 -15z"/>
<path d="M5688 2843 c6 -2 18 -2 25 0 6 3 1 5 -13 5 -14 0 -19 -2 -12 -5z"/>
<path d="M5945 2841 c-11 -4 -56 -9 -100 -10 -111 -4 -108 -11 4 -11 85 0 92
-2 86 -17 -20 -47 -31 -163 -16 -163 5 0 12 35 16 78 10 101 16 112 65 112 21
0 42 5 45 10 7 12 -70 13 -100 1z"/>
<path d="M75 2820 c3 -5 8 -10 11 -10 2 0 4 5 4 10 0 6 -5 10 -11 10 -5 0 -7
-4 -4 -10z"/>
<path d="M1100 2810 c0 -5 5 -10 11 -10 5 0 7 5 4 10 -3 6 -8 10 -11 10 -2 0
-4 -4 -4 -10z"/>
<path d="M1395 2798 c-11 -6 -21 -12 -23 -14 -2 -1 6 -12 17 -23 22 -22 61
-29 61 -11 0 6 -4 10 -10 10 -5 0 -10 9 -10 19 0 26 -11 32 -35 19z"/>
<path d="M108 2783 c7 -3 16 -2 19 1 4 3 -2 6 -13 5 -11 0 -14 -3 -6 -6z"/>
<path d="M780 2750 c0 -5 7 -10 15 -10 8 0 15 5 15 10 0 6 -7 10 -15 10 -8 0
-15 -4 -15 -10z"/>
<path d="M240 2730 c0 -5 10 -10 23 -10 18 0 19 2 7 10 -19 13 -30 13 -30 0z"/>
<path d="M225 2700 c-3 -5 3 -10 15 -10 12 0 18 5 15 10 -3 6 -10 10 -15 10
-5 0 -12 -4 -15 -10z"/>
<path d="M590 2684 c0 -14 4 -23 10 -19 6 3 10 15 10 26 0 10 -4 19 -10 19 -5
0 -10 -12 -10 -26z"/>
<path d="M5550 2688 c0 -9 7 -21 15 -28 8 -7 15 -20 15 -30 0 -24 10 -31 31
-20 14 8 21 6 29 -10 15 -28 37 -25 42 5 4 17 1 25 -8 25 -16 0 -82 36 -106
58 -16 13 -18 13 -18 0z"/>
<path d="M1338 2682 c-10 -2 -18 -10 -18 -19 0 -11 6 -14 23 -9 12 3 32 6 45
6 13 0 21 4 18 9 -7 11 -45 18 -68 13z"/>
<path d="M1450 2680 c0 -5 7 -10 15 -10 8 0 15 5 15 10 0 6 -7 10 -15 10 -8 0
-15 -4 -15 -10z"/>
<path d="M5370 2629 c0 -5 5 -7 10 -4 6 3 10 8 10 11 0 2 -4 4 -10 4 -5 0 -10
-5 -10 -11z"/>
<path d="M5738 2603 c7 -3 16 -2 19 1 4 3 -2 6 -13 5 -11 0 -14 -3 -6 -6z"/>
<path d="M5280 2500 c0 -5 5 -10 10 -10 6 0 10 5 10 10 0 6 -4 10 -10 10 -5 0
-10 -4 -10 -10z"/>
<path d="M4865 2270 c-3 -5 3 -10 15 -10 12 0 18 5 15 10 -3 6 -10 10 -15 10
-5 0 -12 -4 -15 -10z"/>
<path d="M4858 2233 c7 -3 16 -2 19 1 4 3 -2 6 -13 5 -11 0 -14 -3 -6 -6z"/>
<path d="M5822 2055 c0 -16 2 -22 5 -12 2 9 2 23 0 30 -3 6 -5 -1 -5 -18z"/>
<path d="M5592 1999 c2 -6 8 -10 13 -10 5 0 11 4 13 10 2 6 -4 11 -13 11 -9 0
-15 -5 -13 -11z"/>
<path d="M7440 1989 c0 -5 5 -7 10 -4 6 3 10 8 10 11 0 2 -4 4 -10 4 -5 0 -10
-5 -10 -11z"/>
<path d="M5648 1983 c6 -2 18 -2 25 0 6 3 1 5 -13 5 -14 0 -19 -2 -12 -5z"/>
<path d="M6095 1520 c3 -5 10 -10 16 -10 5 0 9 5 9 10 0 6 -7 10 -16 10 -8 0
-12 -4 -9 -10z"/>
<path d="M6430 1400 c-12 -8 -11 -10 7 -10 12 0 25 5 28 10 8 13 -15 13 -35 0z"/>
<path d="M8710 1390 c0 -5 5 -10 10 -10 6 0 10 5 10 10 0 6 -4 10 -10 10 -5 0
-10 -4 -10 -10z"/>
<path d="M8656 1344 c-11 -8 -16 -14 -10 -14 13 0 39 18 34 24 -3 2 -14 -2
-24 -10z"/>
<path d="M9320 1340 c0 -5 5 -10 10 -10 6 0 10 5 10 10 0 6 -4 10 -10 10 -5 0
-10 -4 -10 -10z"/>
<path d="M7000 1330 c0 -5 7 -10 15 -10 8 0 18 0 22 -1 4 0 9 4 11 10 2 6 -8
11 -22 11 -14 0 -26 -4 -26 -10z"/>
<path d="M7755 1322 c-22 -8 -53 -18 -70 -23 -24 -7 -22 -8 15 -4 25 3 40 2
33 -3 -15 -9 -6 -22 29 -45 44 -27 112 -17 92 14 -4 7 -7 25 -6 40 2 22 -3 27
-25 31 -16 2 -46 -3 -68 -10z m45 -42 c0 -5 -4 -10 -10 -10 -5 0 -10 5 -10 10
0 6 5 10 10 10 6 0 10 -4 10 -10z"/>
<path d="M7895 1330 l-30 -8 27 -1 c15 0 30 4 33 9 3 6 5 9 3 9 -2 -1 -16 -5
-33 -9z"/>
<path d="M9045 1310 c3 -5 8 -10 11 -10 2 0 4 5 4 10 0 6 -5 10 -11 10 -5 0
-7 -4 -4 -10z"/>
<path d="M6975 1289 c-19 -9 -18 -9 3 -5 12 2 22 0 22 -5 0 -5 7 -9 15 -9 9 0
12 6 9 15 -7 17 -20 18 -49 4z"/>
<path d="M7425 1290 c3 -5 8 -10 11 -10 2 0 4 5 4 10 0 6 -5 10 -11 10 -5 0
-7 -4 -4 -10z"/>
<path d="M7870 1290 c-8 -5 -10 -10 -5 -10 6 0 17 5 25 10 8 5 11 10 5 10 -5
0 -17 -5 -25 -10z"/>
<path d="M8560 1275 c7 -8 17 -15 22 -15 6 0 5 7 -2 15 -7 8 -17 15 -22 15 -6
0 -5 -7 2 -15z"/>
<path d="M7890 1270 c0 -5 12 -10 26 -10 14 0 23 4 19 10 -3 6 -15 10 -26 10
-10 0 -19 -4 -19 -10z"/>
<path d="M8775 1270 c-3 -5 -1 -10 4 -10 6 0 11 5 11 10 0 6 -2 10 -4 10 -3 0
-8 -4 -11 -10z"/>
<path d="M8655 1253 c-18 -14 -18 -15 -2 -9 10 3 23 6 28 6 5 0 9 5 9 10 0 14
-12 12 -35 -7z"/>
<path d="M9066 1254 c-9 -22 -8 -24 9 -18 8 4 15 12 15 20 0 19 -16 18 -24 -2z"/>
<path d="M8152 1246 c7 -8 15 -12 17 -11 5 6 -10 25 -20 25 -5 0 -4 -6 3 -14z"/>
<path d="M9300 1223 c0 -5 4 -15 10 -23 11 -18 25 -7 17 15 -6 15 -27 21 -27
8z"/>
<path d="M9253 1203 c-7 -2 -13 -11 -13 -18 0 -15 38 -27 46 -14 3 5 -2 9 -11
9 -11 0 -15 5 -11 15 3 8 4 15 3 14 -1 0 -8 -3 -14 -6z"/>
<path d="M8628 1188 c9 -9 15 -9 24 0 9 9 7 12 -12 12 -19 0 -21 -3 -12 -12z"/>
<path d="M9190 1182 c0 -5 7 -15 15 -22 8 -7 15 -8 15 -2 0 5 -7 15 -15 22 -8
7 -15 8 -15 2z"/>
<path d="M9070 1161 c0 -6 5 -13 10 -16 6 -3 10 1 10 9 0 9 -4 16 -10 16 -5 0
-10 -4 -10 -9z"/>
<path d="M8830 1130 c0 -5 5 -10 10 -10 6 0 10 5 10 10 0 6 -4 10 -10 10 -5 0
-10 -4 -10 -10z"/>
<path d="M9075 1120 c-8 -12 20 -24 35 -15 6 3 8 11 5 16 -8 12 -32 12 -40 -1z"/>
<path d="M9450 1101 c0 -15 9 -20 39 -23 l40 -3 -21 19 c-30 28 -58 31 -58 7z"/>
<path d="M9415 1100 c3 -5 10 -10 16 -10 5 0 9 5 9 10 0 6 -7 10 -16 10 -8 0
-12 -4 -9 -10z"/>
<path d="M9530 1100 c0 -5 5 -10 10 -10 6 0 10 5 10 10 0 6 -4 10 -10 10 -5 0
-10 -4 -10 -10z"/>
<path d="M9554 1089 c-3 -5 -3 -13 1 -18 3 -5 0 -13 -6 -17 -8 -5 -8 -9 2 -14
16 -11 49 10 49 31 0 18 -37 33 -46 18z"/>
<path d="M7950 1079 c0 -5 5 -7 10 -4 6 3 10 8 10 11 0 2 -4 4 -10 4 -5 0 -10
-5 -10 -11z"/>
<path d="M8680 1070 c0 -5 5 -10 10 -10 6 0 10 5 10 10 0 6 -4 10 -10 10 -5 0
-10 -4 -10 -10z"/>
<path d="M8746 1055 c4 -10 0 -15 -11 -15 -12 0 -15 -5 -11 -16 3 -9 6 -21 6
-27 0 -7 6 -3 12 8 12 19 12 19 19 -5 7 -24 7 -24 8 -2 1 18 7 22 34 23 29 0
30 1 9 9 -12 5 -29 7 -37 4 -10 -4 -15 0 -15 15 0 12 -4 21 -10 21 -5 0 -7 -7
-4 -15z"/>
<path d="M9247 1053 c-16 -15 -5 -30 23 -31 17 0 28 4 25 9 -4 5 -15 9 -26 9
-11 0 -17 5 -14 10 7 11 2 13 -8 3z"/>
<path d="M9315 1050 c3 -5 8 -10 11 -10 2 0 4 5 4 10 0 6 -5 10 -11 10 -5 0
-7 -4 -4 -10z"/>
<path d="M7910 1040 c0 -5 5 -10 10 -10 6 0 10 -4 10 -10 0 -5 -7 -10 -15 -10
-9 0 -18 -7 -21 -15 -4 -8 -12 -15 -20 -15 -8 0 -14 -4 -14 -9 0 -12 37 -24
49 -17 5 4 11 0 14 -6 3 -10 9 -10 30 1 15 8 23 19 19 25 -7 11 -11 28 -14 59
-2 18 -48 25 -48 7z"/>
<path d="M9360 1035 c-25 -15 -24 -15 16 -12 28 1 40 6 37 15 -7 16 -22 15
-53 -3z"/>
<path d="M7816 984 c-11 -29 -6 -44 14 -44 23 0 26 19 8 39 -10 11 -10 13 0 7
6 -4 12 -2 12 3 0 17 -27 13 -34 -5z"/>
<path d="M9015 970 c-3 -5 -1 -10 4 -10 6 0 11 5 11 10 0 6 -2 10 -4 10 -3 0
-8 -4 -11 -10z"/>
<path d="M9430 970 c0 -5 5 -10 10 -10 6 0 10 5 10 10 0 6 -4 10 -10 10 -5 0
-10 -4 -10 -10z"/>
<path d="M9472 957 c-33 -10 -39 -35 -7 -29 18 4 51 30 44 36 -2 1 -19 -2 -37
-7z"/>
</g>
</svg>
